<svg id="Capa_1" enable-background="new 0 0 511.455 511.455" height="512" viewBox="0 0 511.455 511.455" width="512" xmlns="http://www.w3.org/2000/svg"><g><g><path d="m450.162 79.51-5.443-34.51c-.488-3.093-3.153-5.37-6.284-5.37h-26.1c-3.131 0-5.796 2.278-6.284 5.37l-5.443 34.51-3.924 18.429h55.719z" fill="#de6a66"/><path d="m423.531 227.422c-2.212 0-4.333.879-5.896 2.442l-23.929 23.929c-1.564 1.564-2.442 3.685-2.442 5.896v83.84h75.794v-116.107z" fill="#cac5cb"/><path d="m432.055 227.422v46.354c0 10.411-8.44 18.85-18.85 18.85h-21.941v50.903h40.791 35.003v-50.903-65.205h-35.003z" fill="#b3adb5"/><path d="m256.218 303.395c0-2.578-1.425-4.946-3.703-6.153l-82.533-43.041v126.444h85.519z" fill="#cac5cb"/><path d="m208.479 315.019v-40.742l-38.497-20.076v70.619 55.824h38.497 47.023l.518-55.824h-37.739c-5.414.001-9.802-4.388-9.802-9.801z" fill="#b3adb5"/><path d="m479.055 346.227h-32v-197.849c0-1.613-1.31-2.92-2.923-2.915l-199.75.598c-.894.003-1.737.415-2.287 1.119l-47.996 61.382c-.401.513-.619 1.145-.619 1.795v160.176h-32v-167.376c0-3.129 1.047-6.168 2.974-8.632l63.056-80.642 15.297-17.187h236.248z" fill="#e1dee2"/><g><path d="m481.962 113.883h-261.453c-4.295 0-7.777-3.482-7.777-7.777v-18.82c0-4.295 3.482-7.777 7.777-7.777h261.453c4.295 0 7.777 3.482 7.777 7.777v18.82c-.001 4.295-3.482 7.777-7.777 7.777z" fill="#b3adb5"/><path d="m499.835 433.442c2.275 0 4.12-1.845 4.12-4.12v-105.588c0-.737-.197-1.46-.572-2.094l-7.074-11.988c-.741-1.256-2.09-2.026-3.548-2.026h-146.22c-1.093 0-2.141.434-2.913 1.207l-29.781 29.781c-.773.773-1.82 1.207-2.913 1.207h-194.845v93.622h383.746z" fill="#fbe372"/><path d="m492.473 408.821c0-45.542-37.051-82.594-82.594-82.594s-82.594 37.051-82.594 82.594c0 8.572 1.315 16.842 3.749 24.621h157.689c2.436-7.779 3.75-16.049 3.75-24.621z" fill="#f9de58"/><circle cx="409.879" cy="408.821" fill="#b3adb5" r="62.594"/><circle cx="409.879" cy="408.821" fill="#a59ca6" r="28.176"/><path d="m210.029 360.88c-17.531 0-33.474 6.928-45.237 18.188-3.432 3.285-9.133.805-9.133-3.946v-35.302h-39.57v93.622h159.022c.252-2.33.39-4.694.39-7.09 0-36.101-29.371-65.472-65.472-65.472z" fill="#f9de58"/><circle cx="210.029" cy="426.353" fill="#b3adb5" r="45.473"/><g fill="#a59ca6"><path d="m375.462 406.124c0-27.603 17.848-51.038 42.647-59.361-2.703-.357-5.428-.536-8.229-.536-34.57 0-62.594 28.024-62.594 62.594s28.024 62.594 62.594 62.594c6.967 0 13.639-1.134 19.898-3.235-30.665-4.043-54.316-30.287-54.316-62.056z"/><path d="m184.556 423.656c0-19.498 12.266-36.13 29.508-42.593-1.333-.118-2.671-.183-4.035-.183-25.114 0-45.473 20.359-45.473 45.473s20.359 45.473 45.473 45.473c5.615 0 10.973-1.018 15.939-2.879-23.218-2.049-41.412-21.541-41.412-45.291z"/><circle cx="210.029" cy="426.353" r="15.473"/></g><path d="m102.241 411.594v-318.312c0-1.929 1.564-3.493 3.493-3.493h22.863c1.929 0 3.493 1.564 3.493 3.493v318.312z" fill="#e1dee2"/></g><path d="m132.089 433.442h-119.881c-2.6 0-4.708-2.108-4.708-4.708v-20.431c0-2.6 2.108-4.708 4.708-4.708h119.88v29.847z" fill="#cac5cb"/></g><g><path d="m509.842 317.829-7.074-11.988c-2.08-3.524-5.915-5.714-10.007-5.714h-6.206v-179.453c6.186-1.955 10.684-7.745 10.684-14.568v-18.82c0-8.424-6.853-15.277-15.276-15.277h-25.391l-4.444-28.178c-1.069-6.781-6.828-11.702-13.692-11.702h-26.099c-6.865 0-12.623 4.921-13.692 11.702l-4.444 28.178h-122c-4.142 0-7.5 3.358-7.5 7.5s3.358 7.5 7.5 7.5h209.762c.152 0 .276.124.276.277 0 0-.124 19.096-.276 19.096h-261.454c-.153 0-.277-.124-.277-.276v-18.82c0-.153.124-.277.277-.277h19.728c4.142 0 7.5-3.358 7.5-7.5s-3.358-7.5-7.5-7.5h-19.728c-8.424 0-15.277 6.853-15.277 15.277v18.82c0 5.887 3.353 10.998 8.244 13.547l-54.932 70.252c-2.944 3.766-4.566 8.472-4.566 13.252v129.164h-14.39v-239.039c0-6.062-4.931-10.993-10.993-10.993h-22.863c-6.062 0-10.993 4.931-10.993 10.993v47.894c0 4.142 3.358 7.5 7.5 7.5s7.5-3.358 7.5-7.5v-43.887h14.848v298.805h-14.848v-222.956c0-4.142-3.358-7.5-7.5-7.5s-7.5 3.358-7.5 7.5v222.956h-82.531c-6.731 0-12.208 5.477-12.208 12.209v20.431c0 6.731 5.477 12.208 12.208 12.208h146.907c6.353 22.134 26.764 38.383 50.913 38.383s44.56-16.249 50.913-38.383h86.669c11.67 22.531 35.192 37.973 62.269 37.973s50.599-15.442 62.269-37.973h27.687c6.407 0 11.62-5.212 11.62-11.62v-105.588c0-2.077-.559-4.119-1.613-5.905zm-100.458-245.819 3.924-24.88h24.154l3.924 24.88zm-240.405 131.147c0-1.447.491-2.873 1.382-4.013l60.804-77.762h240.389v178.744h-17v-151.748c0-2.788-1.087-5.407-3.062-7.375-1.974-1.968-4.599-3.066-7.384-3.039l-199.752.598c-3.213.011-6.191 1.468-8.171 4l-47.996 61.382c-1.425 1.823-2.21 4.101-2.21 6.415v121.962h-17zm177.562 96.97c-3.104 0-6.022 1.208-8.216 3.403l-28.791 28.791h-45.816v-28.925c0-5.369-2.947-10.266-7.69-12.78l-19.508-10.339 10.563-18.45 13.672 7.246c1.12.593 2.321.875 3.506.875 2.688 0 5.287-1.449 6.633-3.989 1.939-3.66.545-8.199-3.115-10.139l-39.892-21.143c-3.66-1.939-8.198-.545-10.139 3.115-1.939 3.66-.545 8.199 3.115 10.139l12.959 6.868-10.563 18.45-22.28-11.808v-49.502l45.652-58.384 192.924-.578v66.945h-16.023c-4.231 0-8.209 1.648-11.199 4.639l-23.931 23.93c-2.991 2.992-4.638 6.969-4.638 11.199v40.437zm-145.562-21.71 47.739 25.301v28.603h-47.739zm197.784-18.727c0-.221.09-.438.246-.593l23.931-23.93c.155-.155.371-.245.592-.245h16.023v65.205h-40.792zm-383.763 151.404h109.589v14.848h-109.589zm195.029 53.231c-20.938 0-37.973-17.035-37.973-37.973s17.035-37.973 37.973-37.973 37.973 17.035 37.973 37.973-17.035 37.973-37.973 37.973zm286.426-38.383h-18.605c1.382-5.482 2.124-11.216 2.124-17.121 0-10.601-2.311-20.792-6.87-30.292-1.792-3.734-6.271-5.309-10.006-3.517-3.734 1.792-5.309 6.272-3.517 10.006 3.579 7.458 5.393 15.466 5.393 23.802 0 30.379-24.715 55.094-55.094 55.094s-55.094-24.715-55.094-55.094 24.715-55.094 55.094-55.094c11.308 0 22.181 3.412 31.446 9.867 3.4 2.368 8.073 1.532 10.441-1.866s1.532-8.073-1.866-10.441c-11.793-8.216-25.632-12.56-40.021-12.56-38.65 0-70.094 31.444-70.094 70.094 0 5.905.742 11.639 2.124 17.121h-78.918c-.223-29.02-23.89-52.562-52.962-52.562s-52.74 23.542-52.962 52.562h-17.478v-24.171-54.45h171.345c3.104 0 6.022-1.208 8.216-3.403l28.791-28.791h142.89l5.624 9.531v101.285z"/><path d="m409.879 373.145c-19.672 0-35.676 16.004-35.676 35.676s16.004 35.676 35.676 35.676 35.676-16.004 35.676-35.676-16.004-35.676-35.676-35.676zm0 56.352c-11.401 0-20.676-9.275-20.676-20.676s9.275-20.676 20.676-20.676 20.676 9.275 20.676 20.676-9.275 20.676-20.676 20.676z"/><path d="m210.029 403.38c-12.667 0-22.973 10.306-22.973 22.973s10.306 22.973 22.973 22.973 22.973-10.306 22.973-22.973-10.306-22.973-22.973-22.973zm0 30.945c-4.396 0-7.973-3.577-7.973-7.973s3.577-7.973 7.973-7.973 7.973 3.577 7.973 7.973-3.577 7.973-7.973 7.973z"/></g></g></svg>