<svg id="Capa_1" enable-background="new 0 0 511.356 511.356" height="512" viewBox="0 0 511.356 511.356" width="512" xmlns="http://www.w3.org/2000/svg"><g><g><path d="m324.498 14.502-2.26 1.39c-13.88 8.56-29 14.21-44.52 16.94l-1.789 4.151h-40.623l-2.668-4.321c-15.17-2.8-29.94-8.39-43.52-16.77l-2.26-1.39h-51.218v471.348h257.855v-471.348z" fill="#f3b658"/><path d="m252.322 460.913v-203.558h-.004v-127.053c0-5.749-1.211-11.322-3.608-16.586l-40.267-88.076c-6.64-2.667-13.108-5.911-19.325-9.748l-2.26-1.39h-51.218v471.348h111.032c3.619-7.557 5.65-16.014 5.65-24.937z" fill="#f2a940"/><g><g id="XMLID_143_"><g><path d="m393.495 14.502h-68.997l-2.26 1.39c-6.217 3.834-12.684 7.08-19.324 9.745l-40.276 88.096c-2.389 5.244-3.6 10.818-3.6 16.568v330.61c0 8.923 2.031 17.38 5.65 24.938h128.807z" fill="#f2a940"/><path d="m462.698 196.052-38.89-33.23c-1.4-1.2-2.21-2.95-2.21-4.8v-138.54c0-6.62-5.36-11.98-11.98-11.98h-20.374l-4.086 4.261h-33.106l-3.468-4.261h-13.196c-4.69 0-8.94 2.73-10.89 7l-48.21 105.45c-1.48 3.25-2.25 6.78-2.25 10.35v142.14l23.474 38.123h151.676l18.531-38.123v-65.5c-.001-4.19-1.841-8.17-5.021-10.89z" fill="#f5c374"/><path d="m348.582 7.5h40.664v283.945h-40.664z" fill="#f8f7f8"/><path d="m235.068 119.952-48.21-105.45c-1.95-4.27-6.2-7-10.89-7h-13.197l-5.272 4.463h-33.317l-2.07-4.463h-20.373c-6.62 0-11.98 5.36-11.98 11.98v138.54c0 1.85-.81 3.6-2.21 4.8l-38.89 33.23c-3.18 2.72-5.02 6.7-5.02 10.89v65.5l15.954 32.652h150.327l27.399-32.652v-142.14c-.001-3.57-.771-7.1-2.251-10.35z" fill="#f5c374"/><path d="m68.377 282.016-.004-.007v-59.847c0-3.828 1.84-7.465 5.02-9.95l38.89-30.362c1.4-1.096 2.21-2.695 2.21-4.386v-126.583c0-6.049 5.36-10.946 11.98-10.946h72.011l-11.627-25.432c-1.95-4.27-6.2-7-10.89-7h-13.197l-5.272 4.463h-33.317l-2.07-4.463h-20.373c-6.62 0-11.98 5.36-11.98 11.98v138.54c0 1.85-.81 3.6-2.21 4.8l-38.89 33.23c-3.18 2.72-5.02 6.7-5.02 10.89v65.5l15.954 32.652h8.785z" fill="#f3b658"/><path d="m122.11 7.5h40.664v284.945h-40.664z" fill="#f8f7f8" transform="matrix(-1 0 0 -1 284.884 299.945)"/></g></g><g id="XMLID_117_"><g><path d="m277.718 32.832v23.01c0 2.62-2.12 4.74-4.74 4.74h-35.6c-2.62 0-4.74-2.12-4.74-4.74v-23.18c14.89 2.75 30.17 2.81 45.08.17z" fill="#cac5cb"/></g></g><path d="m213.852 272.442h-170.21v41.138l7.454 8.548v38.095l-7.454 6.541v32.482l13.201 5.362v34.789l-13.201 13.032v27.054c0 13.46 10.92 24.37 24.38 24.37h126.36c23.72 0 42.94-19.22 42.94-42.94v-188.47c0-.001-20.8.119-23.47-.001z" fill="#f3b658"/><path d="m219.117 493.447h-126.359c-13.46 0-24.38-9.968-24.38-22.267v-189.164l-.004-.007v-9.566h-24.732v41.138l7.454 8.548v38.095l-7.454 6.541v32.482l13.201 5.362v34.789l-13.201 13.032v27.054c0 13.46 10.92 24.37 24.38 24.37h126.36c10.783 0 20.628-3.981 28.168-10.542-1.134.081-2.276.135-3.433.135z" fill="#f2a940"/><path d="m119.12 366.764h-75.478v-53.184h75.479c4.2 0 7.605 3.405 7.605 7.605v37.973c0 4.201-3.405 7.606-7.606 7.606z" fill="#f3f1f3"/><path d="m157.991 452.429h-114.353v-53.183h114.353c4.2 0 7.605 3.405 7.605 7.605v37.973c.001 4.2-3.404 7.605-7.605 7.605z" fill="#f3f1f3"/><path d="m455.713 445.306v-36.785l12.005-9.275v-32.482l-10.038-11.363v-31.444l10.038-10.376v-41.138h-170.21-23.47v188.47c0 23.72 19.22 42.94 42.94 42.94h126.36c13.46 0 24.38-10.91 24.38-24.37v-27.054z" fill="#f3b658"/><g fill="#f3f1f3"><path d="m392.239 366.763h75.479v-53.183h-75.479c-4.2 0-7.605 3.405-7.605 7.605v37.973c0 4.2 3.405 7.605 7.605 7.605z"/><path d="m353.365 452.428h114.353v-53.183h-114.353c-4.2 0-7.605 3.405-7.605 7.605v37.973c-.001 4.2 3.404 7.605 7.605 7.605z"/></g></g><path d="m287.084 301.687h-62.812c-5.759 0-10.428-4.669-10.428-10.428v-18.814c0-5.759 4.669-10.428 10.428-10.428h62.812c5.759 0 10.428 4.669 10.428 10.428v18.814c0 5.759-4.669 10.428-10.428 10.428z" fill="#f3f1f3"/><path d="m287.084 386.599h-62.812c-5.759 0-10.428-4.669-10.428-10.428v-18.814c0-5.759 4.669-10.428 10.428-10.428h62.812c5.759 0 10.428 4.669 10.428 10.428v18.814c0 5.759-4.669 10.428-10.428 10.428z" fill="#f3f1f3"/><g fill="#efedee"><path d="m122.11 40.694c1.353-.484 2.822-.759 4.364-.759h36.3v-32.435h-40.664z"/><path d="m43.642 313.58h24.736v53.183h-24.736z"/><path d="m43.638 399.245h24.74v53.183h-24.74z"/></g></g><path d="m467.57 190.352-38.47-32.875v-137.996c0-10.742-8.739-19.481-19.481-19.481h-74.229c-6.745 0-12.975 3.523-16.502 9.146l-.589.364c-18.837 11.617-40.49 17.757-62.621 17.757-22.13 0-43.784-6.141-62.62-17.757l-.591-.365c-3.528-5.622-9.757-9.145-16.502-9.145h-74.228c-10.742 0-19.481 8.739-19.481 19.481v137.997l-38.469 32.874c-4.858 4.151-7.645 10.198-7.645 16.589v272.539c0 17.577 14.3 31.877 31.877 31.877h126.357c27.815 0 50.445-22.63 50.445-50.445v-66.812h21.713v66.812c0 27.815 22.63 50.445 50.446 50.445h126.356c17.577 0 31.877-14.3 31.877-31.877v-272.54c.001-6.39-2.785-12.437-7.643-16.588zm-7.356 168.912h-67.979c-.059 0-.105-.047-.105-.105v-37.973c0-.058.047-.105.105-.105h67.979zm-78.468-94.319h-25.664v-249.945h25.664zm-46.355-249.945h5.691v249.945h-37.736c-2.846-6.145-9.056-10.428-16.262-10.428h-5.55v-124.214c0-2.513.53-4.946 1.576-7.234l48.206-105.451c.727-1.591 2.327-2.618 4.075-2.618zm-111.119 364.099c-1.614 0-2.928-1.313-2.928-2.928v-18.814c0-1.615 1.313-2.928 2.928-2.928h62.812c1.614 0 2.928 1.313 2.928 2.928v18.814c0 1.614-1.313 2.928-2.928 2.928zm20.549-39.67v-30.242h21.713v30.242zm-20.549-45.242c-1.614 0-2.928-1.313-2.928-2.928v-18.814c0-1.614 1.313-2.928 2.928-2.928h62.812c1.614 0 2.928 1.313 2.928 2.928v18.814c0 1.614-1.313 2.928-2.928 2.928zm17.616-177.354-39.05-85.422c7.213 3.091 14.675 5.535 22.301 7.319v17.117c0 6.746 5.488 12.234 12.234 12.234h35.609c6.745 0 12.233-5.488 12.233-12.234v-16.885c7.976-1.8 15.774-4.329 23.304-7.556l-39.052 85.427c-1.946 4.258-2.934 8.791-2.934 13.47v124.214h-21.713v-124.214c.001-4.681-.986-9.214-2.932-13.47zm28.328-75.37v11.617h-30.077v-11.73c5.14.6 10.326.918 15.539.918 4.874-.001 9.725-.281 14.538-.805zm-90.176-23.845 48.207 105.451c1.045 2.286 1.575 4.72 1.575 7.234v124.214h-5.549c-7.206 0-13.416 4.282-16.262 10.428h-37.737v-49.666c0-4.142-3.358-7.5-7.5-7.5s-7.5 3.358-7.5 7.5v49.666h-25.664v-249.945h25.664v168.317c0 4.142 3.358 7.5 7.5 7.5s7.5-3.358 7.5-7.5v-157.228c-1.787-2.272-3.575-4.526-5.033-7.052-.797-1.381-1.177-2.742-1.239-4.037h11.963c1.748 0 3.348 1.028 4.075 2.618zm-126.509 184.137 38.886-33.23c3.075-2.627 4.839-6.454 4.839-10.498v-138.546c0-2.471 2.01-4.481 4.481-4.481h12.873v249.945h-63.468v-58.005c0-1.997.87-3.887 2.389-5.185zm-2.389 119.326h67.979c.058 0 .105.047.105.105v37.973c0 .058-.047.105-.105.105h-67.979zm178.679 139.83c0 19.544-15.901 35.445-35.445 35.445h-126.357c-9.306 0-16.877-7.571-16.877-16.877v-19.55h106.853c8.329 0 15.105-6.776 15.105-15.105v-37.973c0-8.329-6.776-15.105-15.105-15.105h-48.085c-4.142 0-7.5 3.358-7.5 7.5s3.358 7.5 7.5 7.5h48.085c.058 0 .105.047.105.105v37.973c0 .058-.047.105-.105.105h-106.853v-38.184h26.805c4.142 0 7.5-3.358 7.5-7.5s-3.358-7.5-7.5-7.5h-26.805v-17.481h67.979c8.329 0 15.105-6.776 15.105-15.105v-37.973c0-8.329-6.776-15.105-15.105-15.105h-67.979v-26.136h155.203v11.314c0 9.885 8.042 17.928 17.928 17.928h5.549v30.242h-5.549c-9.885 0-17.928 8.042-17.928 17.928v18.814c0 9.885 8.042 17.928 17.928 17.928h5.549v66.812zm213.516 35.445h-126.356c-19.545 0-35.446-15.901-35.446-35.445v-66.812h5.55c9.886 0 17.928-8.042 17.928-17.928v-18.814c0-9.886-8.042-17.928-17.928-17.928h-5.55v-30.242h5.55c9.886 0 17.928-8.042 17.928-17.928v-11.314h102.566c4.143 0 7.5-3.358 7.5-7.5s-3.357-7.5-7.5-7.5h-10.832v-249.945h12.873c2.471 0 4.48 2.01 4.48 4.481v138.546c0 4.045 1.764 7.872 4.839 10.498l38.886 33.23c1.519 1.297 2.39 3.188 2.39 5.185v58.004h-20.675c-4.143 0-7.5 3.358-7.5 7.5s3.357 7.5 7.5 7.5h20.674v26.136h-67.979c-8.329 0-15.105 6.776-15.105 15.105v37.973c0 8.329 6.776 15.105 15.105 15.105h67.979v17.481h-106.853c-8.329 0-15.105 6.776-15.105 15.105v37.973c0 8.329 6.776 15.105 15.105 15.105h106.854v19.55c-.001 9.308-7.572 16.879-16.878 16.879zm16.877-51.427h-106.853c-.059 0-.105-.047-.105-.105v-37.973c0-.058.047-.105.105-.105h106.854v38.183z"/></g></svg>