<svg id="Capa_1" enable-background="new 0 0 512 512" height="512" viewBox="0 0 512 512" width="512" xmlns="http://www.w3.org/2000/svg"><g><g><path d="m451 166.7h-6.3l-18.6 8.4-16.1-8.4h-45.4l-15.3 7.7-19.5-7.7h-45.4l-18.5 9.6-16.3-9.6h-45.4l-16.2 7.8-18.6-7.8h-45.4l-16.6 9.4-18.2-9.4h-26.5c-4.8 0-8.8 3.9-8.8 8.8v36.3c0 4.8 3.9 8.8 8.8 8.8h6.1l22.9-14.7 11.9 14.7h45.4l22.4-10.8 12.4 10.8h45.4l23.6-13.8 11.2 13.8h45.4l20.4-11.2 14.4 11.2h45.4l22.1-9 12.7 9h26.6c4.8 0 8.8-3.9 8.8-8.8v-36.3c0-4.8-4-8.8-8.8-8.8z" fill="#fbe372"/><path d="m391.6 120.6h7.4c8.4 0 15.1-6.8 15.1-15.1v-29.5h-37.7v29.5c0 8.4 6.8 15.1 15.2 15.1z" fill="#e1dee2"/><path d="m122.2 120.6h-7.4c-8.4 0-15.1-6.8-15.1-15.1v-31.5h37.7v31.5c-.1 8.4-6.9 15.1-15.2 15.1z" fill="#e1dee2"/><path d="m411.5 113.6h-7.4c-8.4 0-15.1-6.8-15.1-15.1v-22.5h-12.5v29.5c0 8.4 6.8 15.1 15.1 15.1h7.4c5.4 0 10.1-2.8 12.8-7-.1 0-.2 0-.3 0z" fill="#cac5cb"/><path d="m134.7 113.6h-7.4c-8.4 0-15.1-6.8-15.1-15.1v-24.5h-12.6v31.5c0 8.4 6.8 15.1 15.1 15.1h7.4c5.4 0 10.1-2.8 12.8-7-.1 0-.2 0-.2 0z" fill="#cac5cb"/><g><g><path d="m241.3 504.5c-27.6.1-51.1-17.8-59.4-42.5-3.3-9.8 3.9-19.9 14.2-19.9 6.5 0 12.2 4.3 14.3 10.4 4.6 13.4 17.6 22.8 32.7 21.9 15.7-.9 28.7-13.3 30.3-29 1.6-15.4-7.7-29.5-22.2-34.2-6.1-2-10.3-7.8-10.3-14.2v-40.3h30v30.5c21.1 11.4 34.2 34.3 32.5 59.3-2.3 32.4-29.6 57.9-62.1 58z" fill="#e1dee2"/></g><path d="m320.4 273.9v60c0 2.2-.9 4.4-2.6 5.9l-30.8 27.9c-1.5 1.3-3.4 2.1-5.3 2.1h-50.6c-2 0-3.9-.7-5.3-2.1l-30.9-27.9c-1.7-1.5-2.6-3.6-2.6-5.9v-60c0-4.4 3.5-7.9 7.9-7.9h112.3c4.4-.1 7.9 3.5 7.9 7.9z" fill="#b3adb5"/><path d="m251.1 356.8c-2 0-4-.7-5.5-1.9l-31.6-26.2c-1.7-1.4-2.7-3.4-2.7-5.5v-56.2c0-.3 0-.6.1-1h-11.2c-4.4 0-7.9 3.5-7.9 7.9v60c0 2.2.9 4.4 2.6 5.9l30.9 27.9c1.5 1.3 3.4 2.1 5.3 2.1h50.6c2 0 3.9-.7 5.3-2.1l12.1-10.9z" fill="#a59ca6"/><circle cx="256.4" cy="317.8" fill="#e1dee2" r="24.3"/><g id="XMLID_160_"><g><g><path d="m254.4 208.7 9.6 11.8h45.4l20.4-11.2 14.4 11.2h45.4l22.1-9 12.7 9h26.6c4.8 0 8.8-3.9 8.8-8.8v-3.1z" fill="#f9de58"/></g><path d="m444.7 166.7-20.3 53.8h-34.8l20.4-53.8z" fill="#a59ca6"/><path d="m364.5 166.7-20.3 53.8h-34.8l20.4-53.8z" fill="#a59ca6"/><path d="m94 208.7 9.6 11.8h45.4l22.4-10.7 12.4 10.7h45.4l20.1-11.8z" fill="#f9de58"/><path d="m284.4 166.7-20.4 53.8h-34.8l20.4-53.8z" fill="#a59ca6"/><path d="m204.2 166.7-20.4 53.8h-34.8l20.4-53.8z" fill="#a59ca6"/><path d="m85.4 208.7c-4.8 0-8.8-3.9-8.8-8.8v-33.2h-13.9c-4.8 0-8.8 3.9-8.8 8.8v36.3c0 4.8 3.9 8.8 8.8 8.8h6.1l18.3-11.8h-1.7z" fill="#f9de58"/><path d="m124 166.7-20.4 53.8h-34.8l20.4-53.8z" fill="#a59ca6"/></g></g><g fill="#8f8390"><path d="m394.1 208.7-4.5 11.8h34.8l4.5-11.8z"/><path d="m313.9 208.7-4.5 11.8h34.8l4.5-11.8z"/><path d="m233.7 208.7-4.5 11.8h34.8l4.5-11.8z"/><path d="m153.5 208.7-4.5 11.8h34.8l4.5-11.8z"/><path d="m85.4 208.7c-4.8 0-8.8-3.9-8.8-8.8v-.1l-7.8 20.7h34.8l4.5-11.8z"/></g><path d="m453.3 83h-392.9c-12.2 0-22.1-9.9-22.1-22.1v-53.4h437v53.4c.1 12.2-9.8 22.1-22 22.1z" fill="#b3adb5"/><path d="m90.9 62.4c-12.2 0-22.1-9.9-22.1-22.1v-32.8h-30.5v53.4c0 12.2 9.9 22.1 22.1 22.1h392.9c11.7 0 21.2-9.1 22-20.6z" fill="#a59ca6"/><g><path d="m484.8 15h-457.6c-4.1 0-7.5-3.4-7.5-7.5s3.3-7.5 7.5-7.5h457.6c4.1 0 7.5 3.4 7.5 7.5s-3.3 7.5-7.5 7.5z" fill="#8f8390"/></g></g></g></g><g><path d="m256.4 286.1c-17.5 0-31.8 14.3-31.8 31.8s14.3 31.8 31.8 31.8 31.8-14.3 31.8-31.8c-.1-17.6-14.3-31.8-31.8-31.8zm0 48.5c-9.3 0-16.8-7.5-16.8-16.8s7.5-16.8 16.8-16.8 16.8 7.5 16.8 16.8c-.1 9.3-7.6 16.8-16.8 16.8z"/><path d="m484.8 0h-457.6c-4.1 0-7.5 3.4-7.5 7.5s3.3 7.5 7.5 7.5h3.7v45.9c0 16.3 13.3 29.6 29.6 29.6h31.7v15.1c0 11.2 8.2 20.5 18.8 22.3v31.5h-48.3c-9 0-16.3 7.3-16.3 16.3v36.3c0 9 7.3 16.3 16.3 16.3h135.1v30.6c-7.3 1.2-13 7.5-13 15.2v60c0 4.3 1.8 8.5 5.1 11.4l30.9 27.9c2.8 2.6 6.5 4 10.3 4h2.3v19.6c0 9.7 6.2 18.3 15.5 21.3 11.2 3.7 18.2 14.5 17 26.3-1.2 12-11.2 21.6-23.3 22.3-11.2.7-21.5-6.3-25.2-16.9-3.2-9.3-11.7-15.5-21.4-15.5-7.3 0-14 3.4-18.2 9.3s-5.4 13.5-3.1 20.4c9.6 28.5 36.2 47.6 66.3 47.6h.3c29.6-.1 56.1-19 65.8-47.1 1.4-3.9-.7-8.2-4.6-9.5-3.9-1.4-8.2.7-9.5 4.6-7.7 22.1-28.4 37-51.7 37-.1 0-.1 0-.2 0-23.6 0-44.5-15-52.1-37.4-.8-2.4-.4-4.9 1-6.9s3.6-3.1 6.1-3.1c3.2 0 6.1 2.2 7.2 5.4 5.8 17 22.3 28.1 40.2 27 19.3-1.1 35.4-16.5 37.3-35.7 1.9-18.9-9.3-36.2-27.3-42.1-3.1-1-5.1-3.9-5.1-7.1v-19.8h15v10c0 2.8 1.5 5.3 3.9 6.6 14.6 7.9 24.7 21.8 27.8 38.1.7 3.6 3.8 6.1 7.4 6.1.5 0 .9 0 1.4-.1 4.1-.8 6.7-4.7 6-8.7-3.6-19.3-15-35.9-31.4-46.2v-5.7h3.3c3.8 0 7.5-1.4 10.4-4l30.9-27.9c3.2-2.9 5.1-7.1 5.1-11.4v-60c0-7.3-5.1-13.4-12-15v-30.9h135.1c9 0 16.3-7.3 16.3-16.3v-36.3c0-9-7.3-16.3-16.3-16.3h-48.2v-31.5c10.7-1.8 18.8-11.1 18.8-22.3v-14.9h31.7c16.3 0 29.6-13.3 29.6-29.6v-45.8h1.9c4.1 0 7.5-3.4 7.5-7.5s-3.6-7.5-7.8-7.5zm-377.7 105.5v-15.1h22.7v15.1c0 4.2-3.4 7.6-7.6 7.6h-7.4c-4.3 0-7.7-3.4-7.7-7.6zm292 68.7-14.7 38.8h-29.4l14.7-38.8zm34.8 0-14.7 38.8h-18.8l14.7-38.8zm-94.9 38.8h-18.8l14.7-38.8h18.8zm-34.8 0h-29.4l14.7-38.8h29.4zm-45.4 0h-18.8l14.7-38.8h18.8zm-34.8 0h-29.4l14.7-38.8h29.4zm-45.4 0h-18.8l14.7-38.8h18.8zm-34.8 0h-29.4l14.7-38.8h29.4zm-64.1 0 14.7-38.8h18.8l-14.8 38.8zm-18.3-37.5c0-.7.6-1.3 1.3-1.3h15.6l-14.7 38.8h-.9c-.7 0-1.3-.6-1.3-1.3zm251.5 158.4c0 .1-.1.2-.1.3l-30.9 27.9c-.1.1-.2.1-.3.1h-50.6c-.1 0-.2 0-.3-.1l-30.9-27.9c-.1-.1-.1-.2-.1-.3v-60c0-.2.2-.4.4-.4h26.1c4.1 0 7.5-3.4 7.5-7.5s-3.4-7.5-7.5-7.5h-13.6v-30.5h88.4v30.4h-42.7c-4.1 0-7.5 3.4-7.5 7.5s3.4 7.5 7.5 7.5h54.2c.2 0 .4.2.4.4zm139.4-122.1c0 .7-.6 1.3-1.3 1.3h-15.8l14.7-38.8h1.1c.7 0 1.3.6 1.3 1.3zm-45.7-106.3c0 4.2-3.4 7.6-7.6 7.6h-7.4c-4.2 0-7.6-3.4-7.6-7.6v-15.1h22.7v15.1zm61.3-44.6c0 8.1-6.6 14.6-14.6 14.6h-116.9c-4.1 0-7.5 3.4-7.5 7.5s3.4 7.5 7.5 7.5h32.6v15.1c0 11.2 8.2 20.5 18.8 22.3v31.5h-261.9v-31.5c10.7-1.8 18.8-11.1 18.8-22.3v-15.2h159.7c4.1 0 7.5-3.4 7.5-7.5s-3.4-7.5-7.5-7.5h-244c-8.1 0-14.6-6.6-14.6-14.6v-45.8h422.1z"/><path d="m118.4 54.5c4.1 0 7.5-3.4 7.5-7.5v-3.8c0-4.1-3.4-7.5-7.5-7.5s-7.5 3.4-7.5 7.5v3.8c.1 4.2 3.4 7.5 7.5 7.5z"/><path d="m395.3 54.5c4.1 0 7.5-3.4 7.5-7.5v-3.8c0-4.1-3.4-7.5-7.5-7.5s-7.5 3.4-7.5 7.5v3.8c0 4.2 3.3 7.5 7.5 7.5z"/></g></svg>