<svg id="Capa_1" enable-background="new 0 0 511.557 511.557" height="512" viewBox="0 0 511.557 511.557" width="512" xmlns="http://www.w3.org/2000/svg"><g><g><g><path d="m123.68 182.536-30.477-22.172 83.867-119.756 33.466 19.757z" fill="#cac5cb"/></g><path d="m178.825 104.968 31.71-44.603-33.465-19.757-83.867 119.756 30.477 22.172 1.951-2.745 24.236-34.09c-3.466-4.455-7.509-8.438-12.013-11.841-2.383-1.801-2.954-5.138-1.241-7.585l18.438-26.329c1.677-2.395 4.916-3.033 7.413-1.512 4.978 3.033 10.488 5.273 16.361 6.534z" fill="#b3adb5"/><path d="m118.309 332.913h-37.99l-.01-141.679h38z" fill="#cac5cb"/><path d="m99.367 248.876c6.592 0 12.954-1.004 18.942-2.864v-54.778h-26.602-11.398l.01 141.679h11.398 26.593v-53.621h-21.546c-2.79 0-5.052-2.262-5.052-5.052l-.001-20.367c0-2.881 2.403-5.15 5.282-5.042.788.03 1.579.045 2.374.045z" fill="#b3adb5"/><path d="m142.181 305.986c0-8.115-6.579-14.694-14.694-14.694h-56.322c-8.115 0-14.694 6.579-14.694 14.694v101.327h85.71z" fill="#e1dee2"/><path d="m91.039 333.434c-5.928.01-10.73-4.792-10.73-10.72v-26.423c0-1.758.325-3.436.891-4.999h-10.034c-8.115 0-14.694 6.579-14.694 14.694v101.327h18.147 67.562v-9.695-64.234s-33.418.019-51.142.05z" fill="#cac5cb"/><path d="m253.704 67.067h28.501v75.278h-28.501z" fill="#b3adb5"/><g><g><path d="m310.899 193.85h-12.264c-4.898 0-8.868-3.97-8.868-8.868v-5.758c0-11.812-9.167-21.885-20.971-22.331-12.409-.469-22.652 9.49-22.652 21.796v6.293c0 4.898-3.97 8.868-8.868 8.868h-12.264c-4.898 0-8.868-3.97-8.868-8.868v-5.424c0-28.371 22.445-52.134 50.811-52.671 29.025-.55 52.812 22.9 52.812 51.802v6.293c0 4.898-3.971 8.868-8.868 8.868z" fill="#e1dee2"/></g></g><g><path d="m236.796 187.379c-4.755 0-8.609-3.362-8.609-7.51v-4.593c0-24.027 21.79-44.152 49.327-44.607 4.321-.071 8.516.331 12.533 1.159-6.989-3.309-14.825-5.096-23.092-4.94-28.366.538-50.811 24.3-50.811 52.671v5.424c0 4.898 3.97 8.868 8.868 8.868h12.264c4.066 0 7.484-2.739 8.531-6.471h-9.011z" fill="#cac5cb"/></g><g><path d="m427.544 501.41h-343.531c-42.257 0-76.513-34.256-76.513-76.513 0-42.257 34.256-76.513 76.513-76.513h343.531c42.257 0 76.513 34.256 76.513 76.513 0 42.257-34.256 76.513-76.513 76.513z" fill="#b3adb5"/><path d="m144.11 482.821c-42.257 0-76.513-34.256-76.513-76.513 0-23.156 10.301-43.893 26.554-57.924h-10.138c-42.257 0-76.513 34.256-76.513 76.513 0 42.257 34.256 76.513 76.513 76.513h343.531c19.101 0 36.576-7.007 49.983-18.581z" fill="#a59ca6"/><path d="m84.013 471.41c-25.647 0-46.513-20.866-46.513-46.513s20.865-46.513 46.513-46.513h343.531c25.647 0 46.513 20.866 46.513 46.513s-20.865 46.513-46.513 46.513z" fill="#cac5cb"/><path d="m67.597 406.307c0-9.291 1.662-18.191 4.698-26.426-19.993 5.208-34.795 23.415-34.795 45.016 0 25.647 20.865 46.513 46.513 46.513h19.902c-21.793-13.484-36.318-37.593-36.318-65.103z" fill="#b3adb5"/><g fill="#e1dee2"><circle cx="83.482" cy="424.897" r="15.885"/><circle cx="428.075" cy="424.897" r="15.885"/><circle cx="256.778" cy="424.897" r="15.885"/><circle cx="344.532" cy="424.897" r="15.885"/><circle cx="169.025" cy="424.897" r="15.885"/><circle cx="99.367" cy="184.903" r="51.973"/></g><path d="m67.997 184.903c0-25.176 17.903-46.168 41.671-50.948-3.33-.67-6.774-1.025-10.301-1.025-28.704 0-51.973 23.269-51.973 51.973s23.269 51.973 51.973 51.973c3.527 0 6.971-.355 10.301-1.025-23.769-4.78-41.671-25.771-41.671-50.948z" fill="#cac5cb"/><circle cx="189.993" cy="53.008" fill="#e1dee2" r="41.15"/><path d="m167.899 52.971c0-19.417 13.44-35.701 31.53-40.03-3.035-.713-6.183-1.083-9.436-1.083-22.727 0-41.15 18.424-41.15 41.15s18.424 41.15 41.15 41.15c3.31 0 6.511-.387 9.595-1.125-18.171-4.27-31.689-20.588-31.689-40.062z" fill="#cac5cb"/><circle cx="99.367" cy="184.903" fill="#cac5cb" r="20.602"/><path d="m300.425 95.794h-64.941c-2.397 0-4.341-1.943-4.341-4.341v-49.853c0-17.371 14.082-31.454 31.454-31.454h10.716c17.371 0 31.454 14.082 31.454 31.454v49.853c-.001 2.398-1.944 4.341-4.342 4.341z" fill="#e1dee2"/><path d="m263.573 84.732c-5.45 0-9.868-4.418-9.868-9.869v-33.226c0-15.383 11.045-28.177 25.635-30.908-1.951-.379-3.965-.583-6.027-.583h-10.716c-17.371 0-31.453 14.082-31.453 31.453v49.854c0 2.397 1.944 4.341 4.341 4.341h64.941c2.397 0 4.341-1.944 4.341-4.341v-6.722h-41.194z" fill="#cac5cb"/><path d="m389.575 348.384h-191.99c-4.193 0-7.592-3.399-7.592-7.592v-110.802c0-4.193 3.399-7.592 7.592-7.592h191.99c4.193 0 7.592 3.399 7.592 7.592v110.801c.001 4.193-3.398 7.593-7.592 7.593z" fill="#f8deb6"/><path d="m228.492 326.753c-4.193 0-7.592-3.399-7.592-7.592v-96.763h-23.314c-4.193 0-7.593 3.399-7.593 7.592v110.801c0 4.193 3.399 7.592 7.593 7.592h191.99c4.193 0 7.592-3.399 7.592-7.592v-14.038z" fill="#f7d8a4"/><path d="m315.054 222.398v51.606c0 2.086-2.152 3.445-3.986 2.517l-16.261-8.225c-.773-.391-1.681-.391-2.454 0l-16.261 8.225c-1.834.928-3.986-.431-3.986-2.517v-51.606z" fill="#de6a66"/></g></g><g><path d="m427.544 340.884h-22.879c0-.031.003-.061.003-.092v-39.419c0-4.142-3.357-7.5-7.5-7.5s-7.5 3.358-7.5 7.5v39.419c0 .051-.042.092-.093.092h-191.99c-.051 0-.092-.042-.092-.092v-110.802c0-.051.041-.092.092-.092h67.021v44.158c0 3.576 1.814 6.835 4.854 8.719 1.66 1.03 3.526 1.549 5.399 1.549 1.556 0 3.116-.358 4.568-1.079l14.152-7.027 14.152 7.027c3.202 1.59 6.929 1.415 9.968-.469s4.854-5.144 4.854-8.72v-44.158h67.021c.051 0 .093.042.093.092v39.419c0 4.142 3.357 7.5 7.5 7.5s7.5-3.358 7.5-7.5v-39.419c0-8.322-6.771-15.092-15.093-15.092h-191.99c-8.321 0-15.092 6.771-15.092 15.092v110.801c0 .031.004.061.004.092h-32.815v-34.898c0-12.238-9.956-22.194-22.194-22.194h-1.671c-.003-15.161-.006-31.095-.007-45.639 19.557-9.751 33.03-29.952 33.03-53.25 0-10.312-2.642-20.018-7.279-28.482l38.24-54.768c.065 0 .128.005.193.005 13.047 0 24.907-5.167 33.65-13.558v3.353c0 6.529 5.312 11.841 11.841 11.841h10.72v20.327c-21.93 8.883-37.561 30.734-37.561 55.937v5.424c0 9.025 7.343 16.368 16.368 16.368h12.264c9.025 0 16.368-7.342 16.368-16.368v-6.293c0-3.916 1.561-7.576 4.395-10.304 2.831-2.726 6.575-4.139 10.475-3.997 7.584.287 13.754 6.942 13.754 14.836v5.758c0 9.025 7.343 16.368 16.368 16.368h12.264c9.025 0 16.368-7.342 16.368-16.368v-6.293c0-16.034-6.318-31.063-17.792-42.321-5.774-5.665-12.485-9.995-19.77-12.871v-20.202h10.72c6.529 0 11.842-5.312 11.842-11.841v-14.55c0-4.142-3.357-7.5-7.5-7.5s-7.5 3.358-7.5 7.5v11.392h-58.623v-46.695c0-13.208 10.745-23.953 23.953-23.953h10.716c13.208 0 23.954 10.745 23.954 23.953v3.341c0 4.142 3.357 7.5 7.5 7.5s7.5-3.358 7.5-7.5v-3.341c0-21.479-17.475-38.953-38.954-38.953h-10.716c-14.791 0-27.673 8.292-34.264 20.468-8.909-11.406-22.778-18.757-38.34-18.757-26.826 0-48.65 21.825-48.65 48.65 0 6.958 1.479 13.574 4.122 19.566-12.451 17.833-25.814 36.971-37.36 53.504-2.853-.422-5.77-.647-8.738-.647-10.903 0-21.569 2.979-30.845 8.614-3.54 2.151-4.666 6.764-2.516 10.304 2.152 3.541 6.766 4.666 10.305 2.516 6.928-4.209 14.9-6.434 23.056-6.434 24.521 0 44.472 19.95 44.472 44.472s-19.95 44.473-44.472 44.473-44.473-19.95-44.473-44.473c0-5.968 1.163-11.761 3.456-17.218 1.605-3.818-.189-8.215-4.008-9.82-3.818-1.604-8.215.19-9.82 4.008-3.071 7.306-4.628 15.055-4.628 23.029 0 23.252 13.421 43.417 32.916 53.191l.007 45.698h-1.652c-12.237 0-22.193 9.956-22.193 22.194v42.584c-28.872 13.309-48.972 42.506-48.972 76.328 0 46.325 37.688 84.013 84.013 84.013h343.531c46.325 0 84.013-37.688 84.013-84.013s-37.688-84.013-84.013-84.013zm-119.99-74.476-9.412-4.673c-2.858-1.418-6.271-1.417-9.123 0l-9.412 4.673v-36.511h27.947zm4.713-87.719v6.293c0 .754-.613 1.368-1.368 1.368h-12.264c-.755 0-1.368-.614-1.368-1.368v-5.758c0-16.128-12.382-29.229-28.188-29.826-.382-.015-.762-.021-1.142-.021-7.613 0-14.786 2.889-20.304 8.202-5.798 5.583-8.99 13.079-8.99 21.109v6.293c0 .754-.613 1.368-1.368 1.368h-12.264c-.755 0-1.368-.614-1.368-1.368v-5.424c0-24.454 19.493-44.719 43.454-45.173 11.934-.232 23.301 4.279 31.872 12.689 8.575 8.415 13.298 19.643 13.298 31.616zm-37.562-58.92c-2.222-.25-4.467-.392-6.735-.392-.385 0-.771.004-1.157.011-1.892.036-3.762.171-5.608.386v-16.48h13.501v16.475zm-84.712-100.411c18.555 0 33.65 15.096 33.65 33.65s-15.096 33.65-33.65 33.65-33.65-15.096-33.65-33.65 15.095-33.65 33.65-33.65zm-66.671 111.129c9.77-13.989 20.619-29.526 31.019-44.423 5.238 5.645 11.791 10.05 19.172 12.716l-31.346 44.893c-5.334-5.534-11.723-10.038-18.845-13.186zm-35.511 112.753c3.74.74 7.602 1.136 11.556 1.136 3.914 0 7.737-.391 11.442-1.116.001 13.118.004 27.128.007 40.532h-22.999zm-23.839 62.746c0-3.967 3.227-7.194 7.193-7.194h56.322c3.967 0 7.194 3.227 7.194 7.194v34.898h-50.668c-6.907 0-13.615.855-20.041 2.434zm363.572 187.924h-343.531c-38.054 0-69.013-30.959-69.013-69.013s30.959-69.013 69.013-69.013h343.531c38.054 0 69.013 30.959 69.013 69.013s-30.959 69.013-69.013 69.013z"/><path d="m427.544 370.884h-343.531c-29.783 0-54.013 24.23-54.013 54.013s24.229 54.013 54.013 54.013h343.531c29.783 0 54.013-24.23 54.013-54.013s-24.23-54.013-54.013-54.013zm0 93.026h-343.531c-21.512 0-39.013-17.502-39.013-39.013s17.501-39.013 39.013-39.013h343.531c21.512 0 39.013 17.501 39.013 39.013s-17.501 39.013-39.013 39.013z"/><path d="m83.481 401.512c-12.895 0-23.385 10.49-23.385 23.385s10.49 23.385 23.385 23.385 23.386-10.49 23.386-23.385-10.491-23.385-23.386-23.385zm0 31.769c-4.623 0-8.385-3.761-8.385-8.385s3.762-8.385 8.385-8.385c4.624 0 8.386 3.761 8.386 8.385s-3.762 8.385-8.386 8.385z"/><path d="m428.075 401.512c-12.895 0-23.386 10.49-23.386 23.385s10.491 23.385 23.386 23.385 23.385-10.49 23.385-23.385-10.49-23.385-23.385-23.385zm0 31.769c-4.624 0-8.386-3.761-8.386-8.385s3.762-8.385 8.386-8.385c4.623 0 8.385 3.761 8.385 8.385s-3.762 8.385-8.385 8.385z"/><path d="m256.778 401.512c-12.895 0-23.385 10.49-23.385 23.385s10.49 23.385 23.385 23.385 23.385-10.49 23.385-23.385-10.49-23.385-23.385-23.385zm0 31.769c-4.623 0-8.385-3.761-8.385-8.385s3.762-8.385 8.385-8.385 8.385 3.761 8.385 8.385-3.762 8.385-8.385 8.385z"/><path d="m344.531 401.512c-12.895 0-23.385 10.49-23.385 23.385s10.49 23.385 23.385 23.385 23.386-10.49 23.386-23.385-10.491-23.385-23.386-23.385zm0 31.769c-4.623 0-8.385-3.761-8.385-8.385s3.762-8.385 8.385-8.385c4.624 0 8.386 3.761 8.386 8.385s-3.762 8.385-8.386 8.385z"/><path d="m169.025 401.512c-12.895 0-23.386 10.49-23.386 23.385s10.491 23.385 23.386 23.385 23.385-10.49 23.385-23.385-10.49-23.385-23.385-23.385zm0 31.769c-4.624 0-8.386-3.761-8.386-8.385s3.762-8.385 8.386-8.385c4.623 0 8.385 3.761 8.385 8.385s-3.762 8.385-8.385 8.385z"/><path d="m127.469 184.904c0-15.496-12.606-28.103-28.102-28.103s-28.103 12.607-28.103 28.103 12.606 28.102 28.103 28.102c15.495 0 28.102-12.607 28.102-28.102zm-41.204 0c0-7.225 5.878-13.103 13.103-13.103s13.102 5.878 13.102 13.103-5.877 13.102-13.102 13.102-13.103-5.878-13.103-13.102z"/><path d="m189.993 62.503c4.143 0 7.5-3.358 7.5-7.5v-3.991c0-4.142-3.357-7.5-7.5-7.5s-7.5 3.358-7.5 7.5v3.991c0 4.142 3.358 7.5 7.5 7.5z"/></g></g></svg>