<svg id="Capa_1" enable-background="new 0 0 510.464 510.464" height="512" viewBox="0 0 510.464 510.464" width="512" xmlns="http://www.w3.org/2000/svg"><g><g><path d="m136.405 180.52c-1.899-13.634-13.558-23.782-27.324-23.782h-32.427c-13.766 0-25.425 10.148-27.324 23.782l-11.061 79.407-5.253 22.318h118.247l-3.796-22.318z" fill="#e5827f"/><path d="m147.466 259.928-2.089-15h-60.602c-8.126 0-14.378-7.182-13.257-15.231l4.389-31.507c1.899-13.634 13.558-23.782 27.324-23.782h31.598c-4.019-10.446-14.133-17.67-25.747-17.67h-32.428c-13.766 0-25.425 10.148-27.324 23.782l-11.061 79.407-5.253 22.318h30.327.409 87.51z" fill="#de6a66"/><path d="m457.199 115.872 29.379-49.281c5.636-9.454 1.286-21.703-9.051-25.484l-33.158-12.128c-10.337-3.781-21.564 2.77-23.358 13.63l-9.352 56.607-5.568 26.807 35.433 14.243z" fill="#cac5cb"/><path d="m429.095 119.095 9.352-56.607c1.794-10.859 13.021-17.411 23.358-13.63l27.212 9.953c.512-7.496-3.852-14.912-11.489-17.705l-33.158-12.128c-10.337-3.781-21.564 2.77-23.358 13.63l-9.352 56.607-5.568 26.807 19.902 8z" fill="#b3adb5"/><path d="m375.848 318.562 60.135-164.404c.629-1.721 1.858-3.157 3.461-4.045l14.242-7.889c1.603-.888 2.832-2.324 3.461-4.045l4.587-12.542c1.444-3.949-.586-8.321-4.535-9.766l-45.54-16.657c-3.949-1.444-8.321.586-9.766 4.535l-4.587 12.542c-.629 1.721-.617 3.611.035 5.323l5.791 15.216c.652 1.712.664 3.603.034 5.323l-60.08 164.255s-37.007 84.995-37.121 84.998c-.114.002 32.195 15.578 32.195 15.578z" fill="#efedee"/><path d="m442.684 462.409c1.89-8.876 2.893-18.08 2.893-27.519 0-72.625-58.874-131.499-131.499-131.499s-131.499 58.874-131.499 131.499c0 9.439 1.003 18.643 2.893 27.519z" fill="#e4e1e5"/><path d="m444.893 421.406h-199.446c-11.293 0-19.219-11.329-15.129-21.855 19.074-49.092 66.775-83.892 122.609-83.892 6.702 0 13.297.496 19.729 1.463-16.933-8.438-35.95-13.331-56.064-13.708-73.201-1.373-133.025 56.489-134.002 129.696-.134 10.062.873 19.866 2.881 29.298h29.829 7.019 220.365c1.89-8.876 2.893-18.08 2.893-27.519 0-4.551-.232-9.05-.684-13.483z" fill="#d6d1d6"/><path d="m374.741 446.627c.731-3.802 1.128-7.722 1.128-11.737 0-34.126-27.665-61.791-61.791-61.791s-61.791 27.665-61.791 61.791c0 4.015.396 7.936 1.128 11.737z" fill="#efedee"/><path d="m252.286 434.89c0 4.015.396 7.936 1.128 11.737h121.327c.731-3.802 1.128-7.722 1.128-11.737 0-4.634-.526-9.142-1.493-13.484h-120.596c-.967 4.342-1.494 8.851-1.494 13.484z" fill="#e4e1e5"/><path d="m74.564 282.962h36.607v170.444h-36.607z" fill="#cac5cb"/><g><path d="m74.564 421.406h36.607v32h-36.607z" fill="#b3adb5"/><path d="m488.39 482.561h-466.316c-8.049 0-14.574-6.525-14.574-14.574v-17.007c0-8.049 6.525-14.574 14.574-14.574h466.316c8.049 0 14.574 6.525 14.574 14.574v17.007c0 8.049-6.525 14.574-14.574 14.574z" fill="#a59ca6"/><path d="m74.564 282.962h36.607v28h-36.607z" fill="#b3adb5"/><path d="m150.951 295.962h-116.167c-5.829 0-10.554-4.725-10.554-10.554v-14.927c0-5.829 4.725-10.554 10.554-10.554h116.168c5.829 0 10.554 4.725 10.554 10.554v14.927c-.001 5.829-4.726 10.554-10.555 10.554z" fill="#e4e1e5"/><path d="m50.104 285.228c-5.829 0-10.554-4.725-10.554-10.554v-14.746h-4.767c-5.829 0-10.554 4.725-10.554 10.554v14.927c0 5.829 4.725 10.554 10.554 10.554h116.168c5.829 0 10.554-4.725 10.554-10.554v-.181z" fill="#d6d1d6"/></g></g><g><path d="m488.39 428.906h-35.255c-2.055-48.338-28.876-90.367-68.072-113.703l15.003-41.018c1.423-3.89-.577-8.197-4.467-9.62-3.889-1.424-8.197.576-9.62 4.467l-14.318 39.144c-6.016-2.745-12.261-5.069-18.696-6.945l57.245-156.501c1.249-3.415 1.225-7.167-.068-10.567l-5.792-15.295 4.587-12.542c.022-.059.084-.088.146-.067l45.54 16.657c.05.019.085.096.067.146l-4.639 12.602-14.244 7.89c-3.181 1.763-5.62 4.614-6.869 8.029l-31.971 87.405c-1.423 3.89.577 8.197 4.467 9.62 3.888 1.424 8.197-.577 9.62-4.467l32.022-87.466 14.243-7.889c3.181-1.762 5.622-4.614 6.87-8.029l4.587-12.542c1.387-3.791 1.214-7.896-.486-11.557-.395-.851-.869-1.649-1.4-2.398l26.128-43.828c3.834-6.43 4.596-14.165 2.09-21.22-2.505-7.055-7.975-12.577-15.007-15.148l-33.157-12.128c-7.031-2.572-14.773-1.884-21.239 1.89-6.467 3.773-10.875 10.173-12.096 17.56l-8.318 50.351c-4.657 1.201-8.67 4.589-10.443 9.437l-4.587 12.542c-1.25 3.416-1.225 7.168.068 10.567l5.791 15.296-57.874 158.224c-7.853-1.381-15.928-2.105-24.171-2.105-20.425 0-39.856 3.805-57.755 11.31-3.82 1.602-5.618 5.997-4.017 9.816 1.601 3.82 5.996 5.62 9.816 4.017 16.053-6.73 33.533-10.143 51.956-10.143 66.475 0 120.914 52.497 124.047 118.209h-55.031c-3.046-35.414-32.826-63.307-69.016-63.307s-65.97 27.893-69.016 63.307h-55.049c1.516-38.617 17.726-71.5 46.055-93.064 3.296-2.509 3.934-7.214 1.425-10.51-2.51-3.297-7.215-3.935-10.51-1.425-32.129 24.456-50.44 61.576-51.98 105h-56.332v-125.446h32.28c9.955 0 18.054-8.099 18.054-18.054v-14.927c0-8.902-6.483-16.301-14.971-17.771l-10.2-73.225c-2.401-17.244-17.342-30.247-34.752-30.247h-32.425c-17.411 0-32.351 13.003-34.752 30.247l-2.838 20.375c-.572 4.103 2.291 7.892 6.394 8.463 4.104.57 7.892-2.292 8.463-6.394l2.838-20.375c1.375-9.872 9.928-17.316 19.896-17.316h32.428c9.967 0 18.521 7.444 19.896 17.316l9.872 70.873h-91.965l2.622-18.826c.571-4.103-2.291-7.892-6.394-8.463-4.103-.573-7.892 2.291-8.463 6.394l-2.95 21.179c-8.489 1.469-14.971 8.868-14.971 17.771v14.927c0 9.955 8.099 18.054 18.054 18.054h32.28v125.444h-44.99c-12.172-.001-22.074 9.901-22.074 22.073v17.008c0 12.171 9.902 22.074 22.074 22.074h466.316c12.172 0 22.074-9.902 22.074-22.074v-17.008c0-12.172-9.902-22.074-22.074-22.074zm-59.978-385.076c.49-2.965 2.259-5.535 4.855-7.049s5.704-1.792 8.526-.759l33.157 12.128c2.823 1.033 5.019 3.25 6.025 6.082 1.006 2.833.7 5.938-.839 8.519l-26.197 43.943-33.867-12.388zm-114.334 336.769c27.914 0 50.965 21.177 53.954 48.307h-107.908c2.989-27.13 26.041-48.307 53.954-48.307zm-282.348-95.191v-14.927c0-1.684 1.37-3.054 3.054-3.054h116.167c1.684 0 3.054 1.37 3.054 3.054v14.927c0 1.684-1.37 3.054-3.054 3.054h-116.167c-1.684 0-3.054-1.37-3.054-3.054zm50.334 18.054h21.607v125.444h-21.607zm413.4 164.526c0 3.9-3.173 7.074-7.074 7.074h-466.316c-3.901 0-7.074-3.173-7.074-7.074v-17.008c0-3.9 3.173-7.074 7.074-7.074h466.316c3.901 0 7.074 3.173 7.074 7.074z"/><path d="m3.405 159.943 9.911 7.02c1.316.933 2.83 1.38 4.329 1.38 2.35 0 4.665-1.102 6.126-3.166 2.395-3.38 1.595-8.061-1.785-10.455l-9.911-7.02c-3.379-2.395-8.06-1.595-10.455 1.785-2.394 3.38-1.596 8.062 1.785 10.456z"/><path d="m7.746 209.225c1.499 0 3.013-.448 4.329-1.38l9.911-7.02c3.38-2.394 4.18-7.075 1.785-10.455-2.394-3.38-7.076-4.179-10.455-1.785l-9.911 7.02c-3.38 2.394-4.179 7.075-1.785 10.455 1.462 2.063 3.776 3.165 6.126 3.165z"/><path d="m168.091 168.343c1.499 0 3.013-.448 4.329-1.38l9.911-7.02c3.38-2.394 4.18-7.075 1.785-10.455s-7.076-4.18-10.455-1.785l-9.911 7.02c-3.38 2.394-4.18 7.075-1.785 10.455 1.461 2.064 3.775 3.165 6.126 3.165z"/><path d="m163.75 200.825 9.911 7.02c1.316.933 2.83 1.38 4.329 1.38 2.35 0 4.665-1.102 6.126-3.166 2.395-3.38 1.595-8.061-1.785-10.455l-9.911-7.02c-3.38-2.394-8.06-1.595-10.455 1.785s-1.596 8.061 1.785 10.456z"/></g></g></svg>