<svg id="Capa_1" enable-background="new 0 0 510.696 510.696" height="512" viewBox="0 0 510.696 510.696" width="512" xmlns="http://www.w3.org/2000/svg"><g><g><path d="m371.965 162.25 84.243-84.243 12.614-4.27c1.321-.447 2.52-1.192 3.506-2.178l24.448-24.448c2.645-2.645 2.645-6.934 0-9.579l-21.246-21.249c-2.645-2.645-6.934-2.645-9.579 0l-24.448 24.448c-.986.986-1.731 2.186-2.178 3.506l-4.27 12.614-84.243 84.243-41.52 41.412 17.559 21.735z" fill="#efedee"/><path d="m233.913 132.682-15.1-.003c-11.87 3.59-23.012 8.858-33.145 15.533l-28.1 21.43-9.75 17.09-.09.17c-3.35 5.308-6.294 10.891-8.846 16.685l.602 14.109 22.76 24.265 10.343-7.139c7.556-30.632 31.555-54.784 62.107-62.541l7.843-7.212z" fill="#fbe372"/><g><path d="m264.292 227.613-126.608-126.608c10.133-24.515 5.242-53.777-14.684-73.703-19.507-19.507-47.959-24.596-72.148-15.294-1.602.616-2.024 2.694-.81 3.908l39.921 39.921c1.385 1.385 1.89 3.422 1.313 5.294l-6.279 20.346c-.515 1.669-1.822 2.975-3.49 3.49l-20.346 6.279c-1.871.578-3.909.072-5.294-1.313l-39.922-39.922c-1.213-1.213-3.29-.793-3.905.807-9.461 24.597-4.04 53.604 16.29 73.13 19.375 18.609 47.413 23.331 71.205 14.232l127.095 127.095 17.411 18.211 39.253-36.736z" fill="#efedee"/></g><path d="m372.564 283.486-22.596-14.296-10.645 6.094c-7.171 30.256-30.352 54.297-60.112 62.697l-7.655 14.859 10.325 19.005 23.616.927c6.438-2.72 12.612-5.941 18.46-9.629.12-.08.24-.13.35-.18l26.5-16.34 11.84-21.43c4.521-6.863 8.395-14.188 11.544-21.885z" fill="#fbe372"/><path d="m247.785 286.43 124.731 124.731c-9.099 23.792-4.377 51.829 14.232 71.205 19.527 20.331 48.533 25.752 73.13 16.29 1.601-.615 2.02-2.693.807-3.905l-39.922-39.922c-1.385-1.385-1.89-3.422-1.313-5.294l6.279-20.346c.515-1.669 1.822-2.976 3.49-3.491l20.346-6.278c1.871-.578 3.909-.072 5.294 1.313l39.921 39.921c1.214 1.214 3.292.792 3.908-.81 9.302-24.189 4.214-52.641-15.294-72.148-19.926-19.926-49.188-24.816-73.703-14.684l-124.244-124.244-16.422-15.385-38.709 39.313z" fill="#efedee"/><path d="m274.15 237.541-9.857-9.928-10.607-10.607-10.346 10.346c-6.083 6.083-15.945 6.083-22.028 0l-104.025-104.024c-5.782-5.782-14.046-8.201-22.089-6.724-20.761 3.812-43.008-2.041-59.203-17.595-14.051-13.495-20.969-31.536-20.786-49.502-1.186-.515-2.666.003-3.169 1.311-9.461 24.597-4.04 53.604 16.29 73.13 19.375 18.609 47.413 23.331 71.205 14.232l127.095 127.095 17.411 18.211 39.253-36.736z" fill="#e4e1e5"/><path d="m461.312 495.844c-18.214.386-36.559-6.535-50.242-20.782-15.6-16.243-21.441-38.573-17.561-59.387 1.476-7.918-.94-16.059-6.655-21.735l-106.277-105.556c-3.746-3.721-3.756-9.776-.023-13.51l15.5-15.5-10.607-10.607-9.159-8.581-7.262-6.804-38.709 39.313 17.468 13.734 10.607 10.607 114.125 114.125c-9.099 23.792-4.377 51.829 14.232 71.205 19.527 20.331 48.533 25.751 73.13 16.29 1.182-.454 1.722-1.699 1.433-2.812z" fill="#e4e1e5"/><path d="m327.379 206.835-109.102 109.103-35.724 35.441-22.503-22.061 37.073-34.535 109.482-109.483 22.16-23.05 22.045 21.284z" fill="#efedee"/><g><g><path d="m138.891 203.595v.001l.001-.001z" fill="#b3adb5"/><path d="m279.211 337.981c-7.425 2.096-15.248 3.241-23.343 3.241-47.38 0-85.79-38.41-85.79-85.79 0-7.107.88-14.006 2.509-20.61l-33.696-31.227c-.476 1.28-5.698 14.41-7.663 23.096-.32 1.43-1.61 2.43-3.07 2.43h-12.2c-4.3 0-7.78 3.49-7.78 7.78v36.2c0 4.29 3.48 7.78 7.78 7.78h12.2c1.46 0 2.75 1 3.07 2.43 3.24 14.32 8.89 27.73 16.5 39.79.14.21.23.44.31.68l8.76 18.77 32.56 21.54c11.64 7.12 24.49 12.45 38.2 15.55 1.43.32 2.43 1.61 2.43 3.07v12.2c0 4.29 3.48 7.77 7.77 7.77h36.21c4.29 0 7.77-3.48 7.77-7.77v-12.2c0-1.46 1-2.75 2.43-3.07 8.601-1.945 18.981-5.974 21.317-6.886v-.002c-8.39-10.939-19.074-24.969-26.274-34.772z" fill="#fbe372"/></g><g><path d="m218.813 132.679v.003h.001z" fill="#b3adb5"/><path d="m395.768 229.122h-12.19c-1.49 0-2.76-1.04-3.09-2.49-3.24-14.28-8.88-27.66-16.46-39.68-.79-1.26-.63-2.89.42-3.94l8.64-8.64c3.04-3.04 3.04-7.96 0-11l-25.6-25.6c-3.03-3.03-7.96-3.03-10.99 0l-8.64 8.64c-1.05 1.05-2.69 1.22-3.94.42-12.03-7.58-25.4-13.21-39.69-16.45-1.45-.33-2.49-1.6-2.49-3.09v-12.2c0-4.29-3.48-7.77-7.77-7.77h-36.21c-4.29 0-7.77 3.48-7.77 7.77v12.2c0 1.49-1.04 2.76-2.49 3.09-3.447.781-7.716 2.018-8.684 2.3l15.88 39.6c6.773-1.72 13.866-2.64 21.174-2.64 47.38 0 85.79 38.41 85.79 85.79 0 6.837-.823 13.477-2.334 19.852l34.868 28.023c2.619-6.402 4.739-13.061 6.296-19.935.33-1.45 1.6-2.49 3.09-2.49h12.19c4.3 0 7.78-3.49 7.78-7.78v-36.2c0-4.29-3.48-7.78-7.78-7.78z" fill="#fbe372"/></g></g><g><g><path d="m197.123 294.783-37.073 34.535 22.503 22.061 35.724-35.441 10.607-10.607-21.155-21.155z" fill="#e4e1e5"/><path d="m91.549 472.399 127.716-141.42c3.737-4.138 3.575-10.478-.367-14.42l-22.798-22.798c-3.942-3.942-10.282-4.104-14.42-.367l-141.42 127.716c-15.214 13.74-15.817 37.421-1.321 51.917l.694.694c14.496 14.495 38.177 13.892 51.916-1.322z" fill="#e5827f"/></g></g><path d="m74.477 473.72-.693-.694c-14.496-14.496-13.893-38.177 1.321-51.917l130.495-117.849-9.499-9.499c-3.942-3.942-10.282-4.104-14.42-.367l-141.421 127.716c-15.214 13.74-15.817 37.421-1.321 51.917l.693.694c11.632 11.632 29.173 13.546 42.751 5.985-2.83-1.579-5.495-3.575-7.906-5.986z" fill="#de6a66"/></g><path d="m488.698 382.393c-20.352-20.352-50.136-27.198-77.115-18.095l-39.699-39.699c6.804-11.309 11.875-23.457 15.112-36.221h8.774c8.422 0 15.274-6.852 15.274-15.274v-36.201c0-8.423-6.852-15.275-15.274-15.275h-8.775c-3.188-12.567-8.162-24.559-14.821-35.737l6.217-6.218c4.475-4.475 5.586-11.057 3.337-16.58l19.337-19.337c2.929-2.929 2.929-7.678 0-10.606-2.929-2.929-7.678-2.929-10.606 0l-18.495 18.495-10.548-10.548 78.94-78.94c.815-.815 1.431-1.807 1.801-2.898l4.271-12.615c.077-.227.207-.437.377-.606l23.936-23.938 20.219 20.22-23.933 23.934c-.171.171-.382.302-.609.379l-12.614 4.27c-1.092.37-2.083.986-2.898 1.801l-37.844 37.844c-2.929 2.929-2.929 7.678 0 10.606 2.929 2.929 7.678 2.929 10.606 0l36.605-36.605 10.956-3.708c2.398-.812 4.612-2.188 6.403-3.979l24.448-24.448c2.696-2.696 4.181-6.28 4.181-10.093s-1.484-7.397-4.181-10.093l-21.247-21.248c-5.564-5.564-14.62-5.564-20.186 0l-24.448 24.449c-1.792 1.792-3.167 4.006-3.979 6.404l-3.708 10.955-77.888 77.888c-2.522-1.736-5.502-2.676-8.63-2.676-4.08 0-7.916 1.589-10.801 4.474l-6.218 6.218c-11.177-6.659-23.168-11.632-35.736-14.821v-8.775c0-8.423-6.852-15.275-15.275-15.275h-36.201c-8.422 0-15.275 6.852-15.275 15.275v8.775c-12.763 3.237-24.911 8.307-36.221 15.112l-39.871-39.871c3.888-11.571 4.902-23.949 2.926-36.102-.665-4.089-4.521-6.864-8.607-6.199-4.088.665-6.864 4.519-6.199 8.607 1.804 11.087.502 22.402-3.763 32.724-1.158 2.802-.516 6.024 1.628 8.168l121.305 121.305-27.056 27.056-121.792-121.794c-2.092-2.092-5.218-2.758-7.982-1.702-21.798 8.337-46.658 3.377-63.33-12.636-15.539-14.924-21.77-36.688-16.897-57.238l33.934 33.934c3.359 3.36 8.268 4.578 12.809 3.177l20.344-6.278c4.042-1.246 7.2-4.403 8.447-8.446l6.278-20.345c1.401-4.541.185-9.449-3.176-12.809l-33.931-33.93c20.1-4.738 41.512 1.152 56.362 16.002 2.052 2.052 3.986 4.292 5.748 6.655 2.475 3.321 7.173 4.006 10.496 1.532 3.321-2.475 4.007-7.174 1.532-10.496-2.193-2.943-4.605-5.735-7.168-8.298-20.977-20.978-52.435-27.649-80.145-16.991-3.124 1.202-5.405 3.877-6.101 7.158-.699 3.291.303 6.675 2.681 9.053l38.976 38.976-5.539 17.95-17.95 5.54-38.978-38.977c-2.378-2.377-5.762-3.38-9.053-2.681-3.279.696-5.954 2.976-7.156 6.099-10.895 28.325-3.792 60.21 18.095 81.232 19.657 18.88 48.386 25.481 74.411 17.44l40.932 40.932c-6.121 10.65-10.732 22.017-13.747 33.898h-8.775c-8.422 0-15.274 6.852-15.274 15.275v36.201c0 8.422 6.852 15.274 15.274 15.274h8.775c3.016 11.889 7.633 23.263 13.759 33.917l-50.267 45.395c-3.074 2.776-3.315 7.519-.539 10.593 2.775 3.073 7.518 3.314 10.593.54l88.432-79.862c1.174-1.06 2.971-1.015 4.09.104l22.798 22.798c1.119 1.119 1.165 2.916.104 4.09l-127.717 141.42c-5.253 5.817-12.462 9.131-20.299 9.331-7.812.199-15.205-2.743-20.746-8.284l-.695-.696c-5.543-5.543-8.486-12.911-8.286-20.748.199-7.836 3.513-15.046 9.331-20.3l29.237-26.404c3.074-2.776 3.315-7.519.54-10.593-2.777-3.074-7.519-3.316-10.593-.54l-29.237 26.404c-8.898 8.036-13.967 19.063-14.272 31.05s4.196 23.257 12.673 31.734l.695.696c8.209 8.209 19.034 12.69 30.594 12.689.38 0 .761-.005 1.143-.015 11.987-.305 23.014-5.374 31.049-14.272l93.747-103.806c10.022 5.513 20.619 9.719 31.626 12.515v8.775c0 8.422 6.853 15.274 15.275 15.274h36.201c8.422 0 15.275-6.852 15.275-15.274v-8.775c11.883-3.015 23.251-7.626 33.898-13.746l40.762 40.761c-8.04 26.023-1.44 54.753 17.44 74.411 14.478 15.074 34.105 23.136 54.177 23.134 9.072 0 18.238-1.648 27.056-5.039 3.123-1.202 5.403-3.876 6.099-7.156.699-3.291-.304-6.676-2.681-9.053l-38.977-38.978 5.539-17.95 17.95-5.539 38.975 38.975c2.376 2.378 5.763 3.38 9.052 2.683 3.281-.696 5.958-2.977 7.16-6.103 10.653-27.706 3.984-59.164-16.993-80.141zm-259.543-244.699c4.906-1.113 8.333-5.39 8.333-10.402v-12.197c0-.151.124-.275.275-.275h36.201c.151 0 .275.124.275.275v12.197c0 5.012 3.427 9.289 8.333 10.402 13.242 3.002 25.806 8.212 37.341 15.487 4.257 2.684 9.704 2.082 13.247-1.462l8.639-8.639c.026-.026.081-.08.194-.08s.168.054.194.081l25.598 25.598c.107.107.107.281 0 .389l-8.639 8.639c-3.544 3.544-4.146 8.992-1.462 13.247 7.274 11.538 12.485 24.101 15.487 37.342 1.113 4.907 5.39 8.333 10.402 8.333h12.197c.151 0 .274.124.274.275v36.201c0 .151-.123.274-.274.274h-12.197c-5.012 0-9.289 3.427-10.402 8.334-2.54 11.204-6.681 21.888-12.284 31.891l-19.743-19.743c5.53-12.141 8.434-25.463 8.434-38.857 0-51.675-42.041-93.715-93.715-93.715-13.395 0-26.716 2.904-38.857 8.434l-19.744-19.744c10.005-5.605 20.689-9.745 31.893-12.285zm105.424 117.308c0 9.347-1.689 18.647-4.92 27.372l-33.606-33.606 29.772-29.772c5.581 10.799 8.754 23.035 8.754 36.006zm-106.085-73.793c8.724-3.231 18.023-4.922 27.369-4.922 14.124 0 27.379 3.758 38.851 10.298l-30.422 30.422zm-89.952 100.446c-1.103-4.874-5.375-8.278-10.389-8.278h-12.197c-.151 0-.274-.123-.274-.274v-36.201c0-.151.123-.275.274-.275h12.197c5.015 0 9.287-3.404 10.389-8.278 2.336-10.324 6.05-20.219 11.006-29.549l19.902 19.902c-4.848 11.491-7.302 23.677-7.302 36.3 0 13.248 2.844 26.429 8.26 38.466l-20.479 18.494c-5.153-9.552-8.989-19.707-11.387-30.307zm44.232 2.548c-3.691-9.25-5.626-19.2-5.626-29.201 0-8.495 1.327-16.75 3.944-24.658l34.931 34.931-19.655 19.655c-4.266-2.017-9.16-2.275-13.594-.727zm24.955 10.58 99.421-99.42c3.776 3.251 7.239 6.852 10.341 10.755l-99.214 99.214zm20.26 22.049 19.796-19.796 32.737 32.737c-7.907 2.617-16.162 3.944-24.658 3.944-9.377 0-18.459-1.621-27.104-4.807 1.139-3.979.881-8.256-.771-12.078zm54.528 55.491c-4.874 1.103-8.278 5.375-8.278 10.389v12.197c0 .151-.124.274-.275.274h-36.201c-.151 0-.275-.123-.275-.274v-12.197c0-5.015-3.404-9.287-8.278-10.389-9.706-2.196-19.071-5.634-27.968-10.198l18.601-20.597c11.408 4.77 23.498 7.188 36.021 7.188 12.624 0 24.809-2.454 36.3-7.302l19.923 19.923c-9.338 4.955-19.245 8.65-29.57 10.986zm211.577 77.037-33.93-33.929c-3.359-3.361-8.269-4.579-12.809-3.177l-20.346 6.278c-4.041 1.248-7.198 4.404-8.445 8.446l-6.278 20.345c-1.401 4.541-.185 9.449 3.176 12.809l33.935 33.935c-20.554 4.873-42.315-1.358-57.239-16.897-16.013-16.672-20.973-41.531-12.636-63.331 1.057-2.764.39-5.89-1.702-7.982l-119.429-119.427 27.056-27.056 118.941 118.941c2.144 2.145 5.367 2.786 8.168 1.628 22.559-9.323 48.282-4.198 65.536 13.056 14.849 14.851 20.74 36.265 16.002 56.361z"/></g></svg>