<svg id="Capa_1" enable-background="new 0 0 511.974 511.974" height="512" viewBox="0 0 511.974 511.974" width="512" xmlns="http://www.w3.org/2000/svg"><g><g><path d="m277.667 178.617 40.252 21.413v34.394c0 5.455 4.422 9.877 9.876 9.877h10.247c5.455 0 9.877-4.422 9.877-9.877v-43.405c0-5.545-3.06-10.639-7.955-13.243l-48.212-25.647-38.191-18.382-12.855 27.884z" fill="#e1dee2"/><path d="m235.789 178.617-40.252 21.413v34.394c0 5.455-4.422 9.877-9.877 9.877h-10.247c-5.455 0-9.877-4.422-9.877-9.877v-43.405c0-5.545 3.06-10.639 7.955-13.243l48.211-25.647 21.739-11.01 11.648 26.894z" fill="#e1dee2"/><g><g><path d="m240.706 57.526h32.045v82.913h-32.045z" fill="#e1dee2"/></g></g><path d="m186.306 52.971 14.357 19.557 110.316 4.584 13.696-8.105 4.371-4.374c.95-.95 1.48-2.23 1.48-3.57v-53.561h-143.176c-.339 14.459-1.044 45.469-1.044 45.469z" fill="#a59ca6"/><g><path d="m489.964 504.474h-467.954c-7.96 0-14.413-6.453-14.413-14.413v-10.12c0-7.96 6.453-14.413 14.413-14.413h467.954c7.96 0 14.413 6.453 14.413 14.413v10.12c0 7.96-6.453 14.413-14.413 14.413z" fill="#a59ca6"/><path d="m397.962 465.527h-283.95c-5.292 0-9.582-4.29-9.582-9.582v-154.421c0-5.292 4.29-9.582 9.582-9.582h283.95c5.292 0 9.582 4.29 9.582 9.582v154.421c0 5.292-4.29 9.582-9.582 9.582z" fill="#f8deb6"/><path d="m143.319 437.507c-5.292 0-9.582-4.29-9.582-9.582v-135.983h-19.725c-5.292 0-9.582 4.29-9.582 9.582v154.421c0 5.292 4.29 9.582 9.582 9.582h283.95c5.292 0 9.582-4.29 9.582-9.582v-18.439h-264.225z" fill="#f7d8a4"/><path d="m222.246 356.367h-73.954c-3.095 0-5.604 2.509-5.604 5.604v103.556h85.163v-103.556c0-3.095-2.51-5.604-5.605-5.604z" fill="#e5827f"/><path d="m363.458 378.735h-83.706c-3.414 0-6.182-2.768-6.182-6.182v-43.677c0-3.414 2.768-6.182 6.182-6.182h83.706c3.414 0 6.182 2.768 6.182 6.182v43.677c.001 3.414-2.767 6.182-6.182 6.182z" fill="#f8f7f8"/><g fill="#d6d1d6"><path d="m221.704 152.129-14.182 7.544c1.912 10.262 6.956 19.433 14.11 26.475l14.158-7.531 19.302-10.603-11.648-26.894z"/><path d="m272.751 103.067c-5.034-1.706-10.419-2.645-16.022-2.645s-10.988.939-16.022 2.645v37.372h32.045v-37.372z"/><path d="m253.561 133.747-12.855 27.884 36.961 16.985 14.158 7.532c7.154-7.042 12.198-16.213 14.11-26.475l-14.183-7.545z"/></g><circle cx="256.728" cy="150.488" fill="#b3adb5" r="35.066"/><path d="m237.685 150.488c0-16.609 11.563-30.518 27.066-34.144-2.574-.602-5.266-.922-8.023-.922-19.366 0-35.066 15.699-35.066 35.066 0 19.366 15.699 35.066 35.066 35.066 2.758 0 5.431-.316 8.005-.918-15.503-3.626-27.048-17.54-27.048-34.148z" fill="#a59ca6"/><g><g><path d="m256.729 159.778c-4.142 0-7.5-3.358-7.5-7.5v-2.791c0-4.142 3.358-7.5 7.5-7.5s7.5 3.358 7.5 7.5v2.791c0 4.142-3.358 7.5-7.5 7.5z" fill="#e1dee2"/></g></g><path d="m221.417 69.006c-1.34 0-2.63-.54-3.58-1.48l-15.77-15.78c-.95-.95-1.48-2.23-1.48-3.57v-40.674h-18.14v53.56c0 .927.249 1.81.72 2.59l23.265 8.779 2.485 9.461h36.54l8.104-3.983h29.438l1.388 3.983h25.31c1.34 0 2.63-.54 3.58-1.48l11.399-11.406z" fill="#8f8390"/><g id="XMLID_180_"><g fill="#fbe372"><path d="m262.657 7.502-53.74 74.39h-5.64c-1.34 0-2.63-.54-3.58-1.48l-15.77-15.78c-.3-.3-.55-.63-.76-.98l40.57-56.15h38.92z"/><path d="m330.527 7.502v10.52l-46.14 63.87h-38.93l53.74-74.39z"/></g></g></g><path d="m254.766 69.006-9.309 12.886h38.93l9.309-12.886z" fill="#f9de58"/><path d="m203.277 81.892h5.64l9.86-13.649c-.336-.205-.656-.437-.94-.717l-15.77-15.78c-.95-.95-1.48-2.23-1.48-3.57v-8.634l-17.42 24.11c.21.35.46.68.76.98l15.77 15.78c.95.94 2.24 1.48 3.58 1.48z" fill="#f9de58"/><path d="m143.319 437.507c-.213 0-.422-.018-.631-.032v28.053h85.163v-28.021z" fill="#de6a66"/></g><g><path d="m489.963 458.027h-75.06c.084-.684.14-1.376.14-2.082v-154.421c0-9.419-7.663-17.082-17.082-17.082h-25.72c-4.143 0-7.5 3.358-7.5 7.5s3.357 7.5 7.5 7.5h25.72c1.148 0 2.082.934 2.082 2.082v154.421c0 1.148-.934 2.082-2.082 2.082h-162.61v-35.099c0-4.142-3.358-7.5-7.5-7.5s-7.5 3.358-7.5 7.5v35.099h-70.163v-94.161h70.163v27.099c0 4.142 3.358 7.5 7.5 7.5s7.5-3.358 7.5-7.5v-28.995c0-7.226-5.878-13.104-13.104-13.104h-73.954c-7.226 0-13.104 5.879-13.104 13.104v96.056h-21.175c-1.148 0-2.082-.934-2.082-2.082v-154.42c0-1.148.934-2.082 2.082-2.082h226.267c4.143 0 7.5-3.358 7.5-7.5s-3.357-7.5-7.5-7.5h-226.269c-9.419 0-17.082 7.663-17.082 17.082v154.421c0 .706.056 1.398.14 2.082h-18.934c-4.142 0-7.5 3.358-7.5 7.5s3.358 7.5 7.5 7.5h411.827c3.812 0 6.913 3.101 6.913 6.913v10.12c0 3.812-3.102 6.913-6.913 6.913h-467.953c-3.812 0-6.913-3.101-6.913-6.913v-10.12c0-3.812 3.101-6.913 6.913-6.913h24.164c4.142 0 7.5-3.358 7.5-7.5s-3.358-7.5-7.5-7.5h-24.164c-12.083 0-21.913 9.83-21.913 21.913v10.12c0 12.083 9.83 21.913 21.913 21.913h467.954c12.083 0 21.913-9.83 21.913-21.913v-10.12c-.001-12.083-9.831-21.913-21.914-21.913z"/><path d="m377.14 328.875c0-7.544-6.138-13.682-13.682-13.682h-83.707c-7.544 0-13.682 6.138-13.682 13.682v43.677c0 7.544 6.138 13.683 13.682 13.683h83.707c7.544 0 13.682-6.138 13.682-13.683zm-15 42.36h-81.07v-41.042h81.07z"/><path d="m273.57 414.447h7.741c4.143 0 7.5-3.358 7.5-7.5s-3.357-7.5-7.5-7.5h-7.741c-4.143 0-7.5 3.358-7.5 7.5s3.357 7.5 7.5 7.5z"/><path d="m369.64 399.447h-58.723c-4.143 0-7.5 3.358-7.5 7.5s3.357 7.5 7.5 7.5h58.723c4.143 0 7.5-3.358 7.5-7.5s-3.357-7.5-7.5-7.5z"/><path d="m273.57 443.737h96.07c4.143 0 7.5-3.358 7.5-7.5s-3.357-7.5-7.5-7.5h-96.07c-4.143 0-7.5 3.358-7.5 7.5s3.357 7.5 7.5 7.5z"/><path d="m175.414 251.8h10.247c9.582 0 17.376-7.795 17.376-17.376v-29.889l32.379-17.224c6.272 3.645 13.55 5.743 21.312 5.743s15.039-2.099 21.312-5.743l32.379 17.224v29.889c0 9.582 7.795 17.376 17.376 17.376h10.247c9.582 0 17.377-7.795 17.377-17.376v-43.405c0-8.337-4.572-15.949-11.933-19.864l-44.302-23.567c-.919-13.575-8.223-25.423-18.934-32.553v-25.646h29.446c3.354 0 6.507-1.306 8.881-3.678l15.771-15.772c2.371-2.372 3.678-5.525 3.678-8.88v-46.059h4.233c4.143 0 7.5-3.358 7.5-7.5s-3.357-7.5-7.5-7.5h-171.063c-4.142 0-7.5 3.358-7.5 7.5s3.358 7.5 7.5 7.5h3.75v46.059c0 3.355 1.307 6.51 3.678 8.88l15.771 15.771c2.372 2.373 5.526 3.68 8.881 3.68h29.929v25.646c-10.711 7.13-18.015 18.977-18.934 32.552l-44.302 23.567c-7.361 3.915-11.933 11.527-11.933 19.864v43.405c.002 9.581 7.797 17.376 17.378 17.376zm165.005-60.781v43.405c0 1.311-1.066 2.376-2.377 2.376h-10.247c-1.311 0-2.376-1.066-2.376-2.376v-34.394c0-2.773-1.529-5.319-3.978-6.622l-31.27-16.635c3.085-3.917 5.501-8.383 7.067-13.231l39.204 20.855c2.453 1.305 3.977 3.842 3.977 6.622zm-55.889-176.019-42.904 59.389h-18.036l42.904-59.389zm18.505 0h19.992v.595l-42.474 58.794h-20.422zm5.651 59.389h-9.629l23.969-33.18v18.838zm-99.623-59.389-19.116 26.461v-26.461zm-16.168 47.995 34.673-47.995h20.421l-42.904 59.389h-.797zm55.311 26.394h17.044v19.392c-2.754-.562-5.604-.858-8.522-.858s-5.768.296-8.522.858zm8.523 33.533c15.2 0 27.566 12.366 27.566 27.565s-12.366 27.566-27.566 27.566-27.566-12.366-27.566-27.566 12.366-27.565 27.566-27.565zm-83.691 68.097c0-2.779 1.524-5.316 3.978-6.621l39.204-20.855c1.566 4.847 3.981 9.313 7.067 13.231l-31.27 16.635c-2.448 1.302-3.978 3.849-3.978 6.622v34.394c0 1.311-1.066 2.376-2.376 2.376h-10.247c-1.311 0-2.376-1.066-2.376-2.376v-43.406z"/><path d="m256.729 159.778c4.142 0 7.5-3.358 7.5-7.5v-2.791c0-4.142-3.358-7.5-7.5-7.5s-7.5 3.358-7.5 7.5v2.791c0 4.142 3.357 7.5 7.5 7.5z"/></g></g></svg>