<svg id="Capa_1" enable-background="new 0 0 506.451 506.451" height="512" viewBox="0 0 506.451 506.451" width="512" xmlns="http://www.w3.org/2000/svg"><g><g><g><path d="m421.297 193.417v50.71c0 6.02-4.88 10.89-10.89 10.89h-17.09c-2.06 0-3.86 1.41-4.31 3.41-4.54 20.07-12.46 38.86-23.12 55.75-1.09 1.73-.82 4 .64 5.45l12.1 12.11c4.25 4.25 4.25 11.15 0 15.4l-35.86 35.86c-4.26 4.26-11.15 4.26-15.41 0l-12.1-12.1c-1.45-1.45-3.72-1.73-5.46-.63-16.88 10.66-35.67 18.57-55.74 23.11-2 .46-3.41 2.26-3.41 4.31v17.09c0 6.01-4.88 10.89-10.89 10.89h-50.72c-6.01 0-10.89-4.88-10.89-10.89v-17.09c0-2.05-1.41-3.85-3.41-4.31-20.07-4.54-38.86-12.45-55.74-23.11-1.74-1.1-4.01-.82-5.46.63l-12.1 12.1c-4.26 4.26-11.15 4.26-15.41 0l-35.86-35.86c-4.25-4.25-4.25-11.15 0-15.4l12.1-12.11c1.46-1.45 1.73-3.72.64-5.45-10.66-16.89-18.58-35.68-23.12-55.75-.45-2-2.25-3.41-4.31-3.41h-17.09c-6.01 0-10.89-4.87-10.89-10.89v-50.71c0-6.02 4.88-10.9 10.89-10.9h17.09c2.06 0 3.86-1.4 4.31-3.41 4.54-20.07 12.46-38.85 23.12-55.74 1.09-1.74.82-4.01-.64-5.46l-12.1-12.1c-4.25-4.25-4.25-11.15 0-15.4l35.86-35.87c4.26-4.25 11.15-4.25 15.41 0l12.1 12.11c1.45 1.45 3.72 1.73 5.46.63 16.88-10.66 35.67-18.58 55.74-23.12 2-.45 3.41-2.25 3.41-4.3v-17.09c0-6.02 4.88-10.89 10.89-10.89h50.72c6.01 0 10.89 4.87 10.89 10.89v17.09c0 2.05 1.41 3.85 3.41 4.3 20.07 4.54 38.86 12.46 55.74 23.12 1.74 1.1 4.01.82 5.46-.63l12.1-12.11c4.26-4.25 11.15-4.25 15.41 0l35.86 35.87c4.25 4.25 4.25 11.15 0 15.4l-12.1 12.1c-1.46 1.45-1.73 3.72-.64 5.46 10.66 16.89 18.58 35.67 23.12 55.74.45 2.01 2.25 3.41 4.31 3.41h17.09c6.01 0 10.89 4.88 10.89 10.9zm-103.05 25.35c0-57.26-46.59-103.85-103.85-103.85s-103.85 46.59-103.85 103.85c0 57.27 46.59 103.85 103.85 103.85s103.85-46.58 103.85-103.85z" fill="#fbe372"/></g><g><g><g id="XMLID_179_"><g><path d="m214.397 84.917c73.92 0 133.85 59.93 133.85 133.85 0 73.93-59.93 133.85-133.85 133.85s-133.85-59.92-133.85-133.85c0-73.92 59.93-133.85 133.85-133.85zm103.85 133.85c0-57.26-46.59-103.85-103.85-103.85s-103.85 46.59-103.85 103.85c0 57.27 46.59 103.85 103.85 103.85s103.85-46.58 103.85-103.85z" fill="#f8d448"/></g></g></g><g id="XMLID_182_"><g><circle cx="345.992" cy="341.093" fill="#f8f7f8" r="86.622"/><path d="m345.997 246.047c52.78 0 95.57 42.79 95.57 95.57 0 52.79-42.79 95.58-95.57 95.58-52.79 0-95.58-42.79-95.58-95.58 0-52.78 42.79-95.57 95.58-95.57zm65.57 95.57c0-36.16-29.42-65.57-65.57-65.57-36.16 0-65.58 29.41-65.58 65.57s29.42 65.58 65.58 65.58c36.15 0 65.57-29.42 65.57-65.58z" fill="#e4e1e5"/><g><path d="m76.597 213.602c0-70.748 36.968-132.869 92.627-168.104-17.998 4.682-34.905 12.104-50.227 21.78-1.74 1.1-4.01.82-5.46-.63l-12.1-12.11c-4.26-4.25-11.15-4.25-15.41 0l-35.86 35.87c-4.25 4.25-4.25 11.15 0 15.4l12.1 12.1c1.46 1.45 1.73 3.72.64 5.46-10.66 16.89-18.58 35.67-23.12 55.74-.45 2.01-2.25 3.41-4.31 3.41h-17.09c-6.01 0-10.89 4.88-10.89 10.9v50.71c0 6.02 4.88 10.89 10.89 10.89h17.09c2.06 0 3.86 1.41 4.31 3.41 4.54 20.07 12.46 38.86 23.12 55.75 1.09 1.73.82 4-.64 5.45l-12.1 12.11c-4.25 4.25-4.25 11.15 0 15.4l35.86 35.86c4.26 4.26 11.15 4.26 15.41 0l12.1-12.1c1.45-1.45 3.72-1.73 5.46-.63 16.88 10.66 35.67 18.57 55.74 23.11 2 .46 3.41 2.26 3.41 4.31v17.09c0 6.01 4.88 10.89 10.89 10.89h50.72c6.01 0 10.89-4.88 10.89-10.89v-3.899c-98.114-12.19-174.05-95.863-174.05-197.277z" fill="#f9de58"/></g><path d="m498.947 322.877v37.49c0 4.45-3.6 8.05-8.05 8.05h-12.63c-1.52 0-2.85 1.04-3.19 2.52-3.35 14.84-9.21 28.73-17.08 41.21-.82 1.29-.61 2.97.46 4.04l8.95 8.95c3.14 3.14 3.14 8.24 0 11.38l-26.51 26.52c-3.15 3.14-8.25 3.14-11.39 0l-8.95-8.95c-1.07-1.07-2.75-1.28-4.03-.47-12.49 7.88-26.38 13.74-41.21 17.09-1.48.34-2.52 1.67-2.52 3.19v12.63c0 4.45-3.61 8.05-8.06 8.05h-37.49c-4.45 0-8.05-3.6-8.05-8.05v-12.63c0-1.52-1.04-2.85-2.52-3.19-14.84-3.35-28.73-9.21-41.21-17.09-1.29-.81-2.97-.6-4.04.47l-8.95 8.95c-3.14 3.14-8.24 3.14-11.38 0l-26.52-26.52c-3.14-3.14-3.14-8.24 0-11.38l8.95-8.95c1.07-1.07 1.28-2.75.47-4.04-7.88-12.48-13.74-26.37-17.09-41.21-.34-1.48-1.67-2.52-3.19-2.52h-12.63c-4.45 0-8.05-3.6-8.05-8.05v-37.49c0-4.45 3.6-8.06 8.05-8.06h12.63c1.52 0 2.85-1.04 3.19-2.52 3.35-14.83 9.21-28.72 17.09-41.21.81-1.28.6-2.96-.47-4.03l-8.95-8.95c-3.14-3.14-3.14-8.24 0-11.39l26.52-26.51c3.14-3.14 8.24-3.14 11.38 0l8.95 8.95c1.07 1.07 2.75 1.28 4.04.46 12.48-7.87 26.37-13.73 41.21-17.08 1.48-.34 2.52-1.67 2.52-3.19v-12.63c0-4.45 3.6-8.05 8.05-8.05h37.49c4.45 0 8.06 3.6 8.06 8.05v12.63c0 1.52 1.04 2.85 2.52 3.19 14.83 3.35 28.72 9.21 41.21 17.08 1.28.82 2.96.61 4.03-.46l8.95-8.95c3.14-3.14 8.24-3.14 11.39 0l26.51 26.51c3.14 3.15 3.14 8.25 0 11.39l-8.95 8.95c-1.07 1.07-1.28 2.75-.46 4.03 7.87 12.49 13.73 26.38 17.08 41.21.34 1.48 1.67 2.52 3.19 2.52h12.63c4.45 0 8.05 3.61 8.05 8.06zm-57.38 18.74c0-52.78-42.79-95.57-95.57-95.57-52.79 0-95.58 42.79-95.58 95.57 0 52.79 42.79 95.58 95.58 95.58 52.78 0 95.57-42.79 95.57-95.58z" fill="#efedee"/><g><path d="m246.332 333.879c0-50.151 26.209-94.335 66.01-120.278-13.213 3.461-25.619 8.917-36.875 16.015-1.29.82-2.97.61-4.04-.46l-8.95-8.95c-3.14-3.14-8.24-3.14-11.38 0l-26.52 26.51c-3.14 3.15-3.14 8.25 0 11.39l8.95 8.95c1.07 1.07 1.28 2.75.47 4.03-7.88 12.49-13.74 26.38-17.09 41.21-.34 1.48-1.67 2.52-3.19 2.52h-12.63c-4.45 0-8.05 3.61-8.05 8.06v37.49c0 4.45 3.6 8.05 8.05 8.05h12.63c1.52 0 2.85 1.04 3.19 2.52 3.35 14.84 9.21 28.73 17.09 41.21.81 1.29.6 2.97-.47 4.04l-8.95 8.95c-3.14 3.14-3.14 8.24 0 11.38l26.52 26.52c3.14 3.14 8.24 3.14 11.38 0l8.95-8.95c1.07-1.07 2.75-1.28 4.04-.47 12.48 7.88 26.37 13.74 41.21 17.09 1.48.34 2.52 1.67 2.52 3.19v12.63c0 4.45 3.6 8.05 8.05 8.05h37.49c4.45 0 8.06-3.6 8.06-8.05v-9.607c-71.562-10.358-126.465-70.451-126.465-143.04z" fill="#e4e1e5"/></g></g></g></g></g><g><path d="m192.597 418.167h-3.558c-1.87 0-3.392-1.521-3.392-3.392v-17.088c0-5.61-3.805-10.389-9.254-11.622-18.938-4.283-36.902-11.733-53.395-22.143-4.727-2.982-10.797-2.297-14.767 1.671l-12.102 12.102c-.865.865-1.874.994-2.399.994-.524 0-1.533-.129-2.397-.993l-35.862-35.862c-1.322-1.322-1.322-3.475 0-4.797l12.101-12.101c3.968-3.965 4.656-10.037 1.673-14.768-10.408-16.491-17.858-34.456-22.143-53.396-1.233-5.448-6.013-9.253-11.622-9.253h-17.087c-1.871 0-3.393-1.521-3.393-3.392v-50.716c0-1.87 1.521-3.392 3.393-3.392h17.087c5.609 0 10.389-3.805 11.622-9.254 4.284-18.938 11.733-36.903 22.144-53.397 2.982-4.727 2.294-10.798-1.672-14.764l-12.103-12.102c-1.322-1.323-1.322-3.476 0-4.798l35.862-35.862c.864-.864 1.873-.993 2.397-.993.525 0 1.534.129 2.398.993l12.104 12.105c3.969 3.965 10.04 4.65 14.764 1.669 4.067-2.567 8.3-4.994 12.581-7.214 3.677-1.907 5.111-6.434 3.205-10.111-1.908-3.678-6.436-5.112-10.111-3.205-3.915 2.03-7.794 4.22-11.56 6.526l-10.377-10.377c-3.474-3.474-8.092-5.386-13.005-5.386s-9.531 1.913-13.005 5.387l-35.86 35.864c-7.169 7.171-7.169 18.838 0 26.01l10.377 10.377c-10.197 16.641-17.656 34.628-22.201 53.534h-14.647c-10.142-.001-18.393 8.25-18.393 18.391v50.716c0 10.142 8.251 18.392 18.393 18.392h14.647c4.545 18.908 12.005 36.894 22.201 53.533l-10.377 10.378c-7.17 7.17-7.17 18.838 0 26.009l35.862 35.862c3.474 3.474 8.092 5.387 13.005 5.387s9.531-1.913 13.006-5.387l10.376-10.376c16.643 10.198 34.628 17.656 53.534 22.201v14.648c0 10.142 8.25 18.392 18.392 18.392h3.558c4.143 0 7.5-3.358 7.5-7.5s-3.358-7.5-7.5-7.5z"/><path d="m163.915 54.811c4.179-1.286 8.377-2.409 12.479-3.336 5.449-1.233 9.254-6.012 9.254-11.622v-17.088c0-1.87 1.521-3.392 3.392-3.392h50.717c1.87 0 3.392 1.521 3.392 3.392v17.088c0 5.611 3.806 10.39 9.253 11.622 18.938 4.284 36.902 11.734 53.397 22.144 4.724 2.981 10.796 2.295 14.765-1.671l12.102-12.103c1.324-1.322 3.475-1.323 4.797 0l35.861 35.862c.865.865.994 1.874.994 2.398 0 .525-.129 1.534-.994 2.399l-12.103 12.104c-3.966 3.966-4.652 10.037-1.671 14.764 7.782 12.331 13.959 25.604 18.356 39.451 1.015 3.193 3.966 5.231 7.146 5.231.752 0 1.518-.114 2.272-.354 3.947-1.254 6.132-5.471 4.878-9.418-4.534-14.274-10.804-27.987-18.649-40.794l10.377-10.376c7.171-7.171 7.171-18.839 0-26.01l-35.862-35.862c-7.171-7.17-18.839-7.168-26.01 0l-10.376 10.376c-16.644-10.198-34.628-17.656-53.534-22.201v-14.65c0-10.141-8.25-18.392-18.392-18.392h-50.717c-10.142 0-18.392 8.25-18.392 18.392v14.649c-3.688.89-7.426 1.917-11.145 3.062-3.959 1.218-6.181 5.416-4.962 9.375 1.22 3.959 5.422 6.18 9.375 4.96z"/><path d="m337.389 165.362c3.699-1.863 5.188-6.372 3.326-10.071-11.601-23.041-29.29-42.491-51.157-56.248-22.483-14.146-48.474-21.623-75.16-21.623-77.94 0-141.35 63.409-141.35 141.35 0 57.302 34.192 108.549 87.108 130.558.941.392 1.917.577 2.877.577 2.938 0 5.729-1.739 6.928-4.622 1.591-3.825-.22-8.215-4.045-9.805-47.303-19.674-77.868-65.485-77.868-116.708 0-69.67 56.68-126.35 126.35-126.35 48.032 0 91.3 26.675 112.919 69.615 1.863 3.7 6.371 5.19 10.072 3.327z"/><path d="m214.397 122.42c34.078 0 65.975 18.35 83.243 47.888 2.091 3.577 6.687 4.78 10.26 2.689 3.576-2.09 4.78-6.684 2.689-10.26-19.947-34.121-56.806-55.317-96.192-55.317-61.398 0-111.351 49.952-111.351 111.35 0 40.953 22.453 78.52 58.598 98.041 1.134.612 2.354.902 3.558.902 2.667 0 5.25-1.426 6.605-3.938 1.969-3.645.61-8.195-3.034-10.163-31.289-16.898-50.727-49.408-50.727-84.842.001-53.127 43.224-96.35 96.351-96.35z"/><path d="m490.898 307.321h-9.296c-3.312-13.131-8.506-25.657-15.479-37.323l6.588-6.588c6.063-6.064 6.062-15.93 0-21.994l-26.513-26.513c-6.062-6.062-15.929-6.064-21.995 0l-6.587 6.587c-11.665-6.974-24.19-12.168-37.323-15.479v-9.297c0-8.576-6.977-15.552-15.552-15.552h-37.494c-8.576 0-15.553 6.977-15.553 15.552v9.297c-13.132 3.311-25.658 8.506-37.323 15.479l-6.587-6.587c-6.064-6.064-15.931-6.063-21.995 0l-26.513 26.513c-6.062 6.063-6.063 15.93.001 21.995l6.587 6.587c-6.973 11.666-12.169 24.193-15.479 37.323h-9.296c-8.576 0-15.553 6.977-15.553 15.552v37.494c0 8.576 6.977 15.552 15.553 15.552h9.296c3.312 13.131 8.506 25.658 15.479 37.323l-6.588 6.587c-2.937 2.938-4.555 6.843-4.555 10.997s1.618 8.06 4.555 10.997l26.513 26.513c6.065 6.065 15.932 6.063 21.995 0l6.587-6.588c11.665 6.974 24.19 12.168 37.323 15.479v9.297c0 8.576 6.977 15.552 15.553 15.552h37.494c8.575 0 15.552-6.977 15.552-15.552v-9.297c13.132-3.311 25.659-8.506 37.323-15.479l6.588 6.588c6.064 6.062 15.93 6.062 21.994-.001l26.513-26.513c6.063-6.064 6.063-15.93 0-21.994l-6.588-6.588c6.974-11.666 12.169-24.192 15.479-37.323h9.297c8.575 0 15.552-6.977 15.552-15.552v-37.494c0-8.573-6.976-15.55-15.553-15.55zm.553 53.046c0 .305-.247.552-.552.552h-12.634c-5.066 0-9.384 3.439-10.499 8.365-3.117 13.782-8.54 26.857-16.117 38.863-2.696 4.273-2.076 9.76 1.507 13.342l8.947 8.947c.216.215.216.566 0 .781l-26.513 26.513c-.216.216-.566.215-.78 0l-8.946-8.947c-3.583-3.583-9.07-4.204-13.343-1.507-12.005 7.577-25.08 12.999-38.86 16.117-4.928 1.113-8.368 5.43-8.368 10.499v12.633c0 .305-.247.552-.552.552h-37.494c-.305 0-.553-.248-.553-.552v-12.633c0-5.068-3.44-9.385-8.365-10.499-13.783-3.118-26.858-8.54-38.864-16.118-1.775-1.12-3.761-1.667-5.731-1.667-2.771 0-5.515 1.082-7.609 3.175l-8.947 8.948c-.215.216-.565.215-.78 0l-26.513-26.513c-.216-.215-.216-.566-.001-.781l8.95-8.949c3.582-3.583 4.2-9.07 1.505-13.341-7.577-12.005-13-25.081-16.117-38.864-1.115-4.925-5.433-8.364-10.499-8.364h-12.633c-.305 0-.553-.248-.553-.552v-37.494c0-.305.248-.552.553-.552h12.633c5.066 0 9.384-3.439 10.499-8.365 3.117-13.782 8.54-26.857 16.117-38.863 2.695-4.271 2.077-9.757-1.507-13.342l-8.947-8.946c-.216-.216-.216-.566 0-.782l26.513-26.513c.215-.214.565-.215.78 0l8.949 8.949c3.582 3.581 9.068 4.201 13.341 1.504 12.005-7.577 25.08-12.999 38.861-16.116 4.926-1.114 8.366-5.431 8.366-10.5v-12.633c0-.305.248-.552.553-.552h37.494c.305 0 .552.248.552.552v12.633c0 5.069 3.44 9.387 8.366 10.499 13.782 3.118 26.857 8.541 38.864 16.118 4.273 2.696 9.759 2.075 13.34-1.507l8.946-8.947c.215-.216.566-.216.781-.001l26.513 26.513c.216.215.216.566 0 .781l-8.945 8.946c-3.585 3.583-4.205 9.07-1.509 13.343 7.577 12.005 13 25.081 16.117 38.864 1.115 4.925 5.433 8.364 10.499 8.364h12.633c.305 0 .553.248.553.552v37.495z"/><path d="m345.994 238.545c-56.836 0-103.076 46.24-103.076 103.076s46.24 103.076 103.076 103.076c22.16 0 43.28-6.932 61.079-20.045 3.334-2.457 4.046-7.152 1.589-10.487s-7.15-4.045-10.487-1.589c-15.201 11.201-33.245 17.122-52.181 17.122-48.565 0-88.076-39.511-88.076-88.076s39.511-88.076 88.076-88.076c48.564 0 88.075 39.511 88.075 88.076 0 17.874-5.327 35.084-15.405 49.77-2.344 3.415-1.476 8.084 1.939 10.428 3.418 2.342 8.084 1.474 10.428-1.94 11.801-17.195 18.038-37.34 18.038-58.257 0-56.839-46.239-103.078-103.075-103.078z"/><path d="m345.994 399.696c-31.854 0-57.903-25.917-58.067-57.773-.021-4.129-3.375-7.461-7.499-7.461-.014 0-.026 0-.04 0-4.142.021-7.482 3.396-7.461 7.539.207 40.085 32.984 72.696 73.067 72.696 40.294 0 73.075-32.782 73.075-73.076s-32.781-73.076-73.075-73.076c-27.061 0-51.794 14.889-64.546 38.857-1.945 3.657-.559 8.198 3.099 10.144 3.655 1.946 8.197.559 10.144-3.098 10.142-19.062 29.801-30.903 51.304-30.903 32.022 0 58.075 26.053 58.075 58.076s-26.053 58.075-58.076 58.075z"/></g></g></svg>