<svg id="Capa_1" enable-background="new 0 0 512.224 512.224" height="512" viewBox="0 0 512.224 512.224" width="512" xmlns="http://www.w3.org/2000/svg"><g><g><g><path d="m301.747 323.596c1.11 4.14-1.34 8.4-5.47 9.51l-11.77 3.17c-1.42.39-2.39 1.69-2.33 3.15.58 14.21-1.21 28.62-5.53 42.63-.43 1.39.18 2.9 1.45 3.63l10.55 6.07c3.71 2.14 4.99 6.88 2.85 10.59l-18.01 31.31c-2.14 3.72-6.88 5-10.59 2.86l-10.55-6.07c-1.27-.73-2.88-.5-3.87.57-9.93 10.78-21.5 19.57-34.07 26.21-1.3.68-1.93 2.18-1.55 3.59l3.17 11.78c1.12 4.13-1.33 8.39-5.47 9.51l-34.88 9.4c-4.13 1.11-8.39-1.34-9.51-5.47l-3.17-11.77c-.38-1.42-1.68-2.39-3.15-2.33-14.21.58-28.62-1.2-42.62-5.53-1.4-.43-2.91.18-3.64 1.45l-6.06 10.55c-2.14 3.71-6.88 4.99-10.6 2.85l-31.31-18.01c-3.71-2.14-4.99-6.88-2.85-10.59l6.06-10.55c.73-1.27.51-2.88-.57-3.87-10.78-9.93-19.57-21.49-26.2-34.07-.69-1.29-2.19-1.93-3.6-1.55l-11.77 3.17c-4.14 1.12-8.39-1.33-9.51-5.47l-9.4-34.87c-1.12-4.14 1.33-8.4 5.47-9.51l11.77-3.18c1.41-.38 2.39-1.68 2.33-3.14-.59-14.21 1.2-28.63 5.52-42.63.44-1.4-.18-2.9-1.44-3.63l-10.55-6.07c-3.72-2.14-5-6.88-2.86-10.6l18.01-31.31c2.14-3.71 6.88-4.99 10.6-2.85l10.55 6.07c1.26.73 2.88.5 3.87-.58 9.93-10.78 21.49-19.56 34.07-26.2 1.29-.69 1.93-2.19 1.54-3.6l-3.17-11.77c-1.11-4.14 1.34-8.39 5.47-9.51l34.88-9.4c4.14-1.12 8.39 1.33 9.51 5.47l3.17 11.77c.38 1.41 1.69 2.39 3.15 2.33 14.21-.58 28.62 1.2 42.62 5.53 1.4.43 2.91-.19 3.64-1.45l6.07-10.55c2.13-3.72 6.88-4.99 10.59-2.86l31.31 18.02c3.72 2.13 4.99 6.87 2.86 10.59l-6.07 10.55c-.73 1.27-.5 2.88.57 3.87 10.78 9.93 19.57 21.49 26.21 34.07.68 1.29 2.18 1.93 3.59 1.55l11.77-3.18c4.14-1.11 8.4 1.34 9.51 5.47zm-88.6 20.92c0-32.24-26.14-58.38-58.39-58.38-32.24 0-58.39 26.14-58.39 58.38 0 32.25 26.15 58.39 58.39 58.39 32.25 0 58.39-26.14 58.39-58.39z" fill="#fbe372"/></g><g><g><g id="XMLID_181_"><g><path d="m154.757 252.436c50.86 0 92.08 41.23 92.08 92.08 0 50.86-41.22 92.08-92.08 92.08-50.85 0-92.08-41.22-92.08-92.08 0-50.85 41.23-92.08 92.08-92.08zm58.39 92.08c0-32.24-26.14-58.38-58.39-58.38-32.24 0-58.39 26.14-58.39 58.38 0 32.25 26.15 58.39 58.39 58.39 32.25 0 58.39-26.14 58.39-58.39z" fill="#f8d448"/></g></g></g><circle cx="448.979" cy="436.6" fill="#b3adb5" r="55.744"/><path d="m416.162 435.665c0-26.053 17.864-47.942 42.017-54.054-2.997-.499-6.061-.756-9.2-.756-30.787 0-55.744 24.957-55.744 55.744s24.958 55.744 55.744 55.744c4.734 0 9.341-.593 13.729-1.703-26.401-4.391-46.546-27.327-46.546-54.975z" fill="#a59ca6"/><circle cx="422.271" cy="101.629" fill="#b3adb5" r="81.749"/><path d="m451.315 177.787c-45.148 0-81.749-36.6-81.749-81.749 0-34.648 21.583-64.254 52.014-76.155-44.822.381-81.059 36.834-81.059 81.746 0 45.149 36.6 81.749 81.749 81.749 10.501 0 20.528-1.979 29.751-5.586-.236.001-.469-.005-.706-.005z" fill="#a59ca6"/><g fill="#cac5cb"><circle cx="422.271" cy="101.629" r="45.117"/><circle cx="448.98" cy="436.6" r="25.744"/></g></g><g><path d="m58.421 335.596c0-59.215 33.997-110.49 83.533-135.377-1.864-2.37-5.02-3.521-8.117-2.683l-34.88 9.4c-4.13 1.12-6.58 5.37-5.47 9.51l3.17 11.77c.39 1.41-.25 2.91-1.54 3.6-12.58 6.64-24.14 15.42-34.07 26.2-.99 1.08-2.61 1.31-3.87.58l-10.55-6.07c-3.72-2.14-8.46-.86-10.6 2.85l-18.01 31.31c-2.14 3.72-.86 8.46 2.86 10.6l10.55 6.07c1.26.73 1.88 2.23 1.44 3.63-4.32 14-6.11 28.42-5.52 42.63.06 1.46-.92 2.76-2.33 3.14l-11.77 3.18c-4.14 1.11-6.59 5.37-5.47 9.51l9.4 34.87c1.12 4.14 5.37 6.59 9.51 5.47l11.77-3.17c1.41-.38 2.91.26 3.6 1.55 6.63 12.58 15.42 24.14 26.2 34.07 1.08.99 1.3 2.6.57 3.87l-6.06 10.55c-2.14 3.71-.86 8.45 2.85 10.59l31.31 18.01c3.72 2.14 8.46.86 10.6-2.85l6.06-10.55c.73-1.27 2.24-1.88 3.64-1.45 8.503 2.63 17.147 4.318 25.816 5.109-50.132-24.677-84.622-76.267-84.622-135.919z" fill="#f9de58"/></g></g><g><path d="m154.759 278.632c-36.33 0-65.887 29.557-65.887 65.887s29.557 65.887 65.887 65.887c36.331 0 65.888-29.557 65.888-65.887s-29.557-65.887-65.888-65.887zm0 116.774c-28.059 0-50.887-22.828-50.887-50.887s22.828-50.887 50.887-50.887c28.06 0 50.888 22.828 50.888 50.887s-22.829 50.887-50.888 50.887z"/><path d="m510.34 421.292v-305.192c.772-4.712 1.179-9.545 1.179-14.472 0-20.318-7.027-40.212-19.786-56.017-2.602-3.222-7.323-3.727-10.547-1.125s-3.727 7.324-1.125 10.547c10.767 13.337 16.458 29.449 16.458 46.595 0 40.941-33.308 74.249-74.249 74.249s-74.249-33.308-74.249-74.249 33.308-74.249 74.249-74.249c12.37 0 24.613 3.101 35.406 8.968 3.638 1.979 8.193.631 10.171-3.007 1.979-3.639.632-8.193-3.007-10.171-12.984-7.059-27.705-10.79-42.57-10.79-21.31 0-40.896 7.511-56.259 20.019-.255.17-.506.35-.745.555l-205.177 176.664c-2.401-.092-4.806-.141-7.219-.105l-2.28-8.458c-1.061-3.936-3.59-7.222-7.123-9.255-3.532-2.032-7.646-2.567-11.58-1.506l-34.878 9.403c-3.936 1.061-7.222 3.591-9.254 7.124-2.033 3.533-2.567 7.646-1.506 11.58l2.28 8.46c-11.314 6.352-21.578 14.245-30.586 23.522l-7.578-4.359c-3.533-2.032-7.646-2.567-11.58-1.506-3.936 1.061-7.222 3.591-9.254 7.123l-18.015 31.313c-4.193 7.292-1.673 16.638 5.618 20.833l7.579 4.36c-3.493 12.449-5.157 25.29-4.96 38.265l-8.46 2.281c-3.936 1.061-7.222 3.59-9.254 7.123-2.033 3.533-2.567 7.646-1.506 11.581l9.403 34.877c1.061 3.935 3.591 7.222 7.123 9.254 3.533 2.032 7.646 2.566 11.58 1.506l8.46-2.28c6.352 11.315 14.245 21.579 23.522 30.585l-4.361 7.58c-4.193 7.292-1.673 16.638 5.618 20.833l31.313 18.014c7.292 4.194 16.639 1.675 20.833-5.617l4.36-7.579c12.45 3.493 25.294 5.15 38.265 4.96l2.28 8.459c1.832 6.798 8.008 11.288 14.735 11.288 1.311 0 2.644-.17 3.968-.528l34.878-9.403c3.936-1.061 7.222-3.591 9.254-7.124s2.567-7.646 1.506-11.58l-2.28-8.46c1.878-1.055 3.717-2.167 5.537-3.306l204.327 38.311c5.746 1.722 11.827 2.66 18.126 2.66 34.873 0 63.244-28.371 63.244-63.244 0-5.28-.66-10.406-1.884-15.31zm-274.161-164.973c9.99 9.206 18.285 19.991 24.653 32.054 2.331 4.419 7.337 6.597 12.181 5.291l11.771-3.173c.035-.009.102-.028.196.026.092.053.11.12.12.156l9.403 34.877c.037.137-.045.279-.182.316l-11.771 3.173c-4.838 1.304-8.074 5.701-7.871 10.694.559 13.633-1.19 27.126-5.199 40.104-1.475 4.771.529 9.849 4.874 12.35l10.551 6.069c.032.019.092.053.119.156.028.103-.007.164-.025.196l-18.013 31.311c-.071.124-.229.166-.352.095l-10.551-6.07c-4.342-2.496-9.739-1.679-13.125 1.994-6.042 6.557-12.777 12.368-20.097 17.4l-32.038-6c37.134-14.478 63.516-50.624 63.516-92.819 0-10.752-1.71-21.341-5.082-31.473-1.309-3.93-5.557-6.055-9.484-4.748-3.931 1.308-6.056 5.555-4.748 9.485 2.863 8.601 4.314 17.596 4.314 26.735 0 46.638-37.943 84.581-84.581 84.581s-84.58-37.943-84.58-84.581 37.942-84.581 84.58-84.581c25.829 0 49.913 11.584 66.075 31.784 2.588 3.234 7.308 3.757 10.542 1.17 3.234-2.588 3.759-7.308 1.17-10.542-19.024-23.775-47.377-37.412-77.787-37.412-5.081 0-10.074.385-14.953 1.123l24.684-21.168c8.674.696 17.24 2.327 25.589 4.906 4.772 1.475 9.851-.531 12.348-4.874l6.069-10.55c.072-.124.231-.166.352-.095l31.312 18.014c.032.018.092.053.119.155.028.103-.007.164-.025.196l-6.067 10.547c-2.5 4.345-1.681 9.743 1.993 13.128zm50.288 87.2c-.004.001-.008.002-.012.003zm-80.852 119.253 3.173 11.771c.037.137-.045.279-.182.316l-34.878 9.403c-.136.037-.279-.044-.316-.181l-3.173-11.771c-1.266-4.694-5.441-7.879-10.246-7.879-.149 0-.299.003-.448.009-13.643.557-27.126-1.191-40.104-5.199-4.772-1.474-9.853.529-12.35 4.874l-6.069 10.55c-.07.125-.229.165-.352.095l-31.312-18.013c-.124-.071-.166-.229-.096-.352l6.068-10.548c2.5-4.343 1.682-9.741-1.992-13.127-9.989-9.204-18.284-19.989-24.655-32.058-2.333-4.416-7.343-6.591-12.179-5.287l-11.771 3.174c-.034.01-.101.028-.195-.025-.092-.053-.11-.121-.12-.156l-9.403-34.879c-.01-.036-.027-.103.025-.195.053-.093.12-.111.156-.121l11.771-3.173c4.838-1.304 8.074-5.701 7.871-10.695-.559-13.635 1.19-27.128 5.199-40.104 1.474-4.771-.53-9.849-4.874-12.349l-10.55-6.069c-.124-.071-.166-.229-.096-.352l18.014-31.311c.019-.033.054-.093.156-.121.099-.029.163.006.195.025l10.549 6.068c4.346 2.501 9.744 1.681 13.126-1.993 9.204-9.989 19.989-18.284 32.056-24.654 4.419-2.333 6.594-7.341 5.289-12.179l-3.173-11.772c-.01-.036-.027-.102.025-.194s.12-.111.156-.121l34.878-9.403c.035-.011.104-.028.195.025.092.053.109.119.12.157l3.174 11.771c.768 2.847 2.602 5.136 5.001 6.5l-44.452 38.274c-26.887 17.85-44.65 48.396-44.65 83.017 0 51.736 39.66 94.377 90.173 99.133l61.072 11.451c-1.182 2.291-1.524 5.004-.806 7.668zm243.365 22.072c-26.602 0-48.244-21.642-48.244-48.244 0-13.536 5.467-26.078 15.393-35.315 3.032-2.822 3.203-7.567.381-10.6-2.821-3.032-7.568-3.204-10.6-.381-12.821 11.932-20.174 28.806-20.174 46.296 0 15.121 5.34 29.014 14.225 39.907l-157.337-29.467c3.101-2.658 6.096-5.443 8.952-8.384l7.58 4.361c7.292 4.194 16.638 1.675 20.833-5.618l18.013-31.311c2.032-3.533 2.567-7.646 1.507-11.58-1.061-3.936-3.591-7.222-7.123-9.254l-7.579-4.36c3.492-12.451 5.157-25.292 4.96-38.265l8.46-2.281c3.936-1.061 7.222-3.59 9.254-7.123s2.567-7.646 1.506-11.58l-9.403-34.877c-1.061-3.935-3.59-7.222-7.123-9.254-3.533-2.033-7.646-2.567-11.58-1.506l-8.46 2.28c-6.351-11.312-14.244-21.577-23.522-30.585l4.359-7.579c2.032-3.533 2.567-7.645 1.507-11.58-1.061-3.936-3.591-7.222-7.123-9.254l-31.312-18.013c-7.291-4.194-16.639-1.676-20.834 5.617l-4.36 7.579c-3.768-1.057-7.575-1.926-11.406-2.647l156.6-134.297c-2.153 7.669-3.309 15.752-3.309 24.099 0 49.212 40.037 89.249 89.249 89.249 30.302 0 57.12-15.183 73.26-38.337l1.651 243.182c-11.61-13.669-28.905-22.366-48.202-22.366-3.454 0-6.975.295-10.464.877-4.086.682-6.846 4.546-6.164 8.632.681 4.084 4.539 6.844 8.631 6.164 2.677-.446 5.367-.673 7.997-.673 26.602 0 48.244 21.642 48.244 48.244s-21.642 48.244-48.243 48.244z"/><path d="m422.271 49.012c-29.014 0-52.617 23.604-52.617 52.617s23.604 52.617 52.617 52.617 52.617-23.604 52.617-52.617-23.604-52.617-52.617-52.617zm0 90.233c-20.742 0-37.617-16.875-37.617-37.617s16.875-37.617 37.617-37.617 37.617 16.875 37.617 37.617-16.875 37.617-37.617 37.617z"/><path d="m448.98 403.355c-18.331 0-33.244 14.913-33.244 33.244s14.913 33.244 33.244 33.244 33.244-14.913 33.244-33.244-14.913-33.244-33.244-33.244zm0 51.489c-10.06 0-18.244-8.184-18.244-18.244s8.185-18.244 18.244-18.244 18.244 8.184 18.244 18.244-8.185 18.244-18.244 18.244z"/></g></g></svg>