<?xml version="1.0" encoding="utf-8"?><svg viewBox="0 0 512 512" xmlns="http://www.w3.org/2000/svg" xmlns:xlink="http://www.w3.org/1999/xlink"><style>:root>svg{display:none}:root>svg:target{display:block}</style><svg viewBox="0 0 511.469 511.469" id="001-helmet" xmlns="http://www.w3.org/2000/svg"><path d="M331.454 107.96c85.787 25.127 148.444 104.392 148.444 198.303v111.169H32.57V306.263c0-93.577 62.213-172.61 147.53-198.031z" fill="#f7cf8f"/><path d="M452.184 374.579a5.592 5.592 0 01-5.592-5.592c0-11.186-6.545-21.48-16.675-26.228l-105.458-49.411a12.873 12.873 0 01-7.411-11.656V107.986l-122.626.22-14.321.026C94.784 133.653 32.57 212.686 32.57 306.263V417.432h447.328v-42.853zm-265.173-81.231l-64.391 30.17c-6.904 3.235-14.829-1.804-14.829-9.428v-7.826c0-69.366 34.191-130.733 86.631-168.202v143.63a12.875 12.875 0 01-7.411 11.656z" fill="#f5c374"/><path d="M214.507 109.604c0-9.501-7.702-17.203-17.203-17.203s-17.203 7.702-17.203 17.203v252.811h34.407V109.604zM331.454 109.604c0-9.501-7.702-17.203-17.203-17.203s-17.203 7.702-17.203 17.203v260.731h34.407z" fill="#f3b658"/><path d="M324.458 293.348a12.873 12.873 0 01-7.411-11.656l-.027-183.083c0-2.03.377-3.981 1.023-5.789a17.288 17.288 0 00-3.792-.419c-9.501 0-17.203 7.702-17.203 17.203v260.731h34.407v-73.709zM197.303 92.401c-.934 0-1.843.095-2.736.238a17.212 17.212 0 00-.165 2.261v187.334a12.865 12.865 0 01-7.391 11.113l-6.911 3.238v65.83h34.407V109.604c0-9.501-7.703-17.203-17.204-17.203z" fill="#f2a940"/><path d="M421.431 360.87l-121.696-57.02a4.667 4.667 0 01-2.687-4.227V97.401c0-10.858-8.802-19.661-19.661-19.661h-43.305c-10.858 0-19.661 8.802-19.661 19.661v202.222a4.669 4.669 0 01-2.687 4.227L90.038 360.87a8.963 8.963 0 00-5.16 8.117v48.445h341.713v-48.445a8.963 8.963 0 00-5.16-8.117z" fill="#f5c374"/><path d="M118.127 389.914a8.963 8.963 0 015.161-8.117l121.696-57.02a4.667 4.667 0 002.687-4.227V118.328c0-10.858 8.802-19.661 19.661-19.661h29.716v-1.266c0-10.858-8.802-19.661-19.661-19.661h-43.305c-10.858 0-19.661 8.802-19.661 19.661v202.222a4.667 4.667 0 01-2.687 4.227L90.038 360.87a8.963 8.963 0 00-5.16 8.117v48.445h33.249z" fill="#f3b658"/><path d="M489.814 433.728H21.655c-7.817 0-14.155-6.337-14.155-14.155v-10.84c0-7.817 6.337-14.155 14.155-14.155h468.159c7.817 0 14.155 6.337 14.155 14.155v10.84c0 7.818-6.338 14.155-14.155 14.155z" fill="#f3b658"/><path d="M489.814 387.079h-2.416v-80.816c0-53.854-20.076-105.326-56.529-144.936a7.501 7.501 0 00-11.037 10.159c33.897 36.833 52.566 84.698 52.566 134.778v80.816H434.09v-23.791a7.5 7.5 0 00-4.318-6.792l-90.819-42.553V118.243c21.086 7.353 40.665 18.167 58.317 32.233a7.464 7.464 0 004.669 1.635c2.205 0 4.39-.968 5.87-2.827a7.5 7.5 0 00-1.191-10.539c-20.68-16.48-43.826-28.807-68.851-36.695-3.2-9.937-12.531-17.148-23.518-17.148-4.144 0-8.05 1.031-11.484 2.842-3.903-10.221-13.804-17.502-25.38-17.502H234.08c-11.562 0-21.453 7.264-25.366 17.466a24.543 24.543 0 00-11.413-2.805c-11.106 0-20.521 7.367-23.621 17.471-41.561 13.367-78.83 39.797-105.321 74.791C40.04 214.574 25.07 259.217 25.07 306.263v80.816h-3.416C9.714 387.079 0 396.793 0 408.733v10.84c0 11.94 9.714 21.655 21.655 21.655h468.159c11.94 0 21.655-9.714 21.655-21.655v-10.84c0-11.94-9.715-21.654-21.655-21.654zM314.25 99.901c5.351 0 9.704 4.353 9.704 9.703v197.311l-19.407-9.093V109.604c0-5.35 4.353-9.703 9.703-9.703zM40.07 306.263c0-43.751 13.918-85.263 40.251-120.047 23.431-30.951 55.92-54.69 92.279-67.635v38.17a7.5 7.5 0 0015 0v-47.147c0-5.35 4.353-9.703 9.703-9.703 4.937 0 9.016 3.709 9.618 8.485v189.436l-19.321 9.053V188.714a7.5 7.5 0 00-15 0v125.19l-25.038 11.731a7.5 7.5 0 106.365 13.583l60.99-28.576c3.724-1.745 6.294-5.274 6.879-9.277.133-.56.212-1.141.212-1.741l-.085-202.222c0-6.706 5.455-12.161 12.161-12.161h43.305c6.706 0 12.161 5.455 12.161 12.161v202.222c0 4.699 2.75 9.024 7.005 11.019l122.538 57.415v19.022H92.378v-19.023l32.585-15.268a7.5 7.5 0 10-6.365-13.583l-36.903 17.291a7.5 7.5 0 00-4.318 6.792v23.791H40.07zm456.399 113.31a6.663 6.663 0 01-6.655 6.655H21.655A6.663 6.663 0 0115 419.573v-10.84a6.662 6.662 0 016.655-6.654h468.159a6.662 6.662 0 016.655 6.654z"/></svg><svg viewBox="0 0 511.455 511.455" id="002-forklift" xmlns="http://www.w3.org/2000/svg"><path d="M450.162 79.51L444.719 45a6.36 6.36 0 00-6.284-5.37h-26.1a6.362 6.362 0 00-6.284 5.37l-5.443 34.51-3.924 18.429h55.719z" fill="#de6a66"/><path d="M423.531 227.422a8.339 8.339 0 00-5.896 2.442l-23.929 23.929a8.338 8.338 0 00-2.442 5.896v83.84h75.794V227.422z" fill="#cac5cb"/><path d="M432.055 227.422v46.354c0 10.411-8.44 18.85-18.85 18.85h-21.941v50.903h75.794V227.421h-35.003z" fill="#b3adb5"/><path d="M256.218 303.395a6.964 6.964 0 00-3.703-6.153l-82.533-43.041v126.444h85.519z" fill="#cac5cb"/><path d="M208.479 315.019v-40.742l-38.497-20.076v126.443H255.502l.518-55.824h-37.739c-5.414.001-9.802-4.388-9.802-9.801z" fill="#b3adb5"/><path d="M479.055 346.227h-32V148.378c0-1.613-1.31-2.92-2.923-2.915l-199.75.598a2.914 2.914 0 00-2.287 1.119l-47.996 61.382a2.915 2.915 0 00-.619 1.795v160.176h-32V203.157c0-3.129 1.047-6.168 2.974-8.632l63.056-80.642 15.297-17.187h236.248z" fill="#e1dee2"/><path d="M481.962 113.883H220.509a7.777 7.777 0 01-7.777-7.777v-18.82a7.777 7.777 0 017.777-7.777h261.453a7.777 7.777 0 017.777 7.777v18.82a7.778 7.778 0 01-7.777 7.777z" fill="#b3adb5"/><path d="M499.835 433.442a4.12 4.12 0 004.12-4.12V323.734c0-.737-.197-1.46-.572-2.094l-7.074-11.988a4.119 4.119 0 00-3.548-2.026h-146.22a4.116 4.116 0 00-2.913 1.207l-29.781 29.781a4.118 4.118 0 01-2.913 1.207H116.089v93.622h383.746z" fill="#fbe372"/><path d="M492.473 408.821c0-45.542-37.051-82.594-82.594-82.594s-82.594 37.051-82.594 82.594a82.321 82.321 0 003.749 24.621h157.689a82.258 82.258 0 003.75-24.621z" fill="#f9de58"/><circle cx="409.879" cy="408.821" fill="#b3adb5" r="62.594"/><circle cx="409.879" cy="408.821" fill="#a59ca6" r="28.176"/><path d="M210.029 360.88c-17.531 0-33.474 6.928-45.237 18.188-3.432 3.285-9.133.805-9.133-3.946V339.82h-39.57v93.622h159.022c.252-2.33.39-4.694.39-7.09 0-36.101-29.371-65.472-65.472-65.472z" fill="#f9de58"/><circle cx="210.029" cy="426.353" fill="#b3adb5" r="45.473"/><g fill="#a59ca6"><path d="M375.462 406.124c0-27.603 17.848-51.038 42.647-59.361a62.577 62.577 0 00-8.229-.536c-34.57 0-62.594 28.024-62.594 62.594s28.024 62.594 62.594 62.594a62.33 62.33 0 0019.898-3.235c-30.665-4.043-54.316-30.287-54.316-62.056zM184.556 423.656c0-19.498 12.266-36.13 29.508-42.593a45.612 45.612 0 00-4.035-.183c-25.114 0-45.473 20.359-45.473 45.473s20.359 45.473 45.473 45.473a45.276 45.276 0 0015.939-2.879c-23.218-2.049-41.412-21.541-41.412-45.291z"/><circle cx="210.029" cy="426.353" r="15.473"/></g><path d="M102.241 411.594V93.282a3.493 3.493 0 013.493-3.493h22.863a3.493 3.493 0 013.493 3.493v318.312z" fill="#e1dee2"/><path d="M132.089 433.442H12.208a4.708 4.708 0 01-4.708-4.708v-20.431c0-2.6 2.108-4.708 4.708-4.708h119.88v29.847z" fill="#cac5cb"/><g><path d="M509.842 317.829l-7.074-11.988a11.669 11.669 0 00-10.007-5.714h-6.206V120.674c6.186-1.955 10.684-7.745 10.684-14.568v-18.82c0-8.424-6.853-15.277-15.276-15.277h-25.391l-4.444-28.178a13.796 13.796 0 00-13.692-11.702h-26.099a13.795 13.795 0 00-13.692 11.702l-4.444 28.178h-122a7.5 7.5 0 000 15h209.762c.152 0 .276.124.276.277 0 0-.124 19.096-.276 19.096H220.509a.277.277 0 01-.277-.276v-18.82c0-.153.124-.277.277-.277h19.728a7.5 7.5 0 000-15h-19.728c-8.424 0-15.277 6.853-15.277 15.277v18.82c0 5.887 3.353 10.998 8.244 13.547l-54.932 70.252a21.616 21.616 0 00-4.566 13.252v129.164h-14.39V93.282c0-6.062-4.931-10.993-10.993-10.993h-22.863c-6.062 0-10.993 4.931-10.993 10.993v47.894a7.5 7.5 0 0015 0V97.289h14.848v298.805h-14.848V173.138a7.5 7.5 0 00-15 0v222.956H12.208C5.477 396.094 0 401.571 0 408.303v20.431c0 6.731 5.477 12.208 12.208 12.208h146.907c6.353 22.134 26.764 38.383 50.913 38.383s44.56-16.249 50.913-38.383h86.669c11.67 22.531 35.192 37.973 62.269 37.973s50.599-15.442 62.269-37.973h27.687c6.407 0 11.62-5.212 11.62-11.62V323.734c0-2.077-.559-4.119-1.613-5.905zM409.384 72.01l3.924-24.88h24.154l3.924 24.88zM168.979 203.157c0-1.447.491-2.873 1.382-4.013l60.804-77.762h240.389v178.744h-17V148.378a10.34 10.34 0 00-3.062-7.375c-1.974-1.968-4.599-3.066-7.384-3.039l-199.752.598a10.357 10.357 0 00-8.171 4l-47.996 61.382a10.464 10.464 0 00-2.21 6.415v121.962h-17zm177.562 96.97a11.54 11.54 0 00-8.216 3.403l-28.791 28.791h-45.816v-28.925a14.433 14.433 0 00-7.69-12.78l-19.508-10.339 10.563-18.45 13.672 7.246a7.499 7.499 0 0010.139-3.114 7.5 7.5 0 00-3.115-10.139l-39.892-21.143a7.501 7.501 0 00-7.024 13.254l12.959 6.868-10.563 18.45-22.28-11.808v-49.502l45.652-58.384 192.924-.578v66.945h-16.023a15.732 15.732 0 00-11.199 4.639l-23.931 23.93a15.737 15.737 0 00-4.638 11.199v40.437zm-145.562-21.71l47.739 25.301v28.603h-47.739zm197.784-18.727c0-.221.09-.438.246-.593l23.931-23.93a.844.844 0 01.592-.245h16.023v65.205h-40.792zM15 411.094h109.589v14.848H15zm195.029 53.231c-20.938 0-37.973-17.035-37.973-37.973s17.035-37.973 37.973-37.973 37.973 17.035 37.973 37.973-17.035 37.973-37.973 37.973zm286.426-38.383H477.85a69.952 69.952 0 002.124-17.121c0-10.601-2.311-20.792-6.87-30.292a7.5 7.5 0 10-13.523 6.489c3.579 7.458 5.393 15.466 5.393 23.802 0 30.379-24.715 55.094-55.094 55.094s-55.094-24.715-55.094-55.094 24.715-55.094 55.094-55.094c11.308 0 22.181 3.412 31.446 9.867a7.5 7.5 0 008.575-12.307c-11.793-8.216-25.632-12.56-40.021-12.56-38.65 0-70.094 31.444-70.094 70.094 0 5.905.742 11.639 2.124 17.121h-78.918c-.223-29.02-23.89-52.562-52.962-52.562s-52.74 23.542-52.962 52.562H139.59V347.32h171.345a11.54 11.54 0 008.216-3.403l28.791-28.791h142.89l5.624 9.531v101.285z"/><path d="M409.879 373.145c-19.672 0-35.676 16.004-35.676 35.676s16.004 35.676 35.676 35.676 35.676-16.004 35.676-35.676-16.004-35.676-35.676-35.676zm0 56.352c-11.401 0-20.676-9.275-20.676-20.676s9.275-20.676 20.676-20.676 20.676 9.275 20.676 20.676-9.275 20.676-20.676 20.676zM210.029 403.38c-12.667 0-22.973 10.306-22.973 22.973s10.306 22.973 22.973 22.973 22.973-10.306 22.973-22.973-10.306-22.973-22.973-22.973zm0 30.945c-4.396 0-7.973-3.577-7.973-7.973s3.577-7.973 7.973-7.973 7.973 3.577 7.973 7.973-3.577 7.973-7.973 7.973z"/></g></svg><svg viewBox="0 0 511.356 511.356" id="003-high_visibility_vest" xmlns="http://www.w3.org/2000/svg"><path d="M324.498 14.502l-2.26 1.39c-13.88 8.56-29 14.21-44.52 16.94l-1.789 4.151h-40.623l-2.668-4.321c-15.17-2.8-29.94-8.39-43.52-16.77l-2.26-1.39H135.64V485.85h257.855V14.502z" fill="#f3b658"/><path d="M252.322 460.913V257.355h-.004V130.302a39.733 39.733 0 00-3.608-16.586L208.443 25.64a126.66 126.66 0 01-19.325-9.748l-2.26-1.39H135.64V485.85h111.032a57.584 57.584 0 005.65-24.937zM393.495 14.502h-68.997l-2.26 1.39a126.723 126.723 0 01-19.324 9.745l-40.276 88.096a39.697 39.697 0 00-3.6 16.568v330.61c0 8.923 2.031 17.38 5.65 24.938h128.807z" fill="#f2a940"/><path d="M462.698 196.052l-38.89-33.23a6.32 6.32 0 01-2.21-4.8V19.482c0-6.62-5.36-11.98-11.98-11.98h-20.374l-4.086 4.261h-33.106l-3.468-4.261h-13.196c-4.69 0-8.94 2.73-10.89 7l-48.21 105.45a24.98 24.98 0 00-2.25 10.35v142.14l23.474 38.123h151.676l18.531-38.123v-65.5a14.343 14.343 0 00-5.021-10.89z" fill="#f5c374"/><path d="M348.582 7.5h40.664v283.945h-40.664z" fill="#f8f7f8"/><path d="M235.068 119.952l-48.21-105.45c-1.95-4.27-6.2-7-10.89-7h-13.197l-5.272 4.463h-33.317l-2.07-4.463h-20.373c-6.62 0-11.98 5.36-11.98 11.98v138.54c0 1.85-.81 3.6-2.21 4.8l-38.89 33.23c-3.18 2.72-5.02 6.7-5.02 10.89v65.5l15.954 32.652H209.92l27.399-32.652v-142.14c-.001-3.57-.771-7.1-2.251-10.35z" fill="#f5c374"/><path d="M68.377 282.016l-.004-.007v-59.847c0-3.828 1.84-7.465 5.02-9.95l38.89-30.362c1.4-1.096 2.21-2.695 2.21-4.386V50.881c0-6.049 5.36-10.946 11.98-10.946h72.011l-11.627-25.432c-1.95-4.27-6.2-7-10.89-7H162.77l-5.272 4.463h-33.317l-2.07-4.463h-20.373c-6.62 0-11.98 5.36-11.98 11.98v138.54c0 1.85-.81 3.6-2.21 4.8l-38.89 33.23c-3.18 2.72-5.02 6.7-5.02 10.89v65.5l15.954 32.652h8.785z" fill="#f3b658"/><path d="M162.774 292.445H122.11V7.5h40.664z" fill="#f8f7f8"/><path d="M277.718 32.832v23.01c0 2.62-2.12 4.74-4.74 4.74h-35.6c-2.62 0-4.74-2.12-4.74-4.74v-23.18a126.69 126.69 0 0045.08.17z" fill="#cac5cb"/><path d="M213.852 272.442H43.642v41.138l7.454 8.548v38.095l-7.454 6.541v32.482l13.201 5.362v34.789l-13.201 13.032v27.054c0 13.46 10.92 24.37 24.38 24.37h126.36c23.72 0 42.94-19.22 42.94-42.94v-188.47c0-.001-20.8.119-23.47-.001z" fill="#f3b658"/><path d="M219.117 493.447H92.758c-13.46 0-24.38-9.968-24.38-22.267V282.016l-.004-.007v-9.566H43.642v41.138l7.454 8.548v38.095l-7.454 6.541v32.482l13.201 5.362v34.789L43.642 452.43v27.054c0 13.46 10.92 24.37 24.38 24.37h126.36c10.783 0 20.628-3.981 28.168-10.542a48.09 48.09 0 01-3.433.135z" fill="#f2a940"/><path d="M119.12 366.764H43.642V313.58h75.479c4.2 0 7.605 3.405 7.605 7.605v37.973a7.606 7.606 0 01-7.606 7.606zM157.991 452.429H43.638v-53.183h114.353c4.2 0 7.605 3.405 7.605 7.605v37.973a7.604 7.604 0 01-7.605 7.605z" fill="#f3f1f3"/><path d="M455.713 445.306v-36.785l12.005-9.275v-32.482l-10.038-11.363v-31.444l10.038-10.376v-41.138h-193.68v188.47c0 23.72 19.22 42.94 42.94 42.94h126.36c13.46 0 24.38-10.91 24.38-24.37v-27.054z" fill="#f3b658"/><g fill="#f3f1f3"><path d="M392.239 366.763h75.479V313.58h-75.479a7.605 7.605 0 00-7.605 7.605v37.973c0 4.2 3.405 7.605 7.605 7.605zM353.365 452.428h114.353v-53.183H353.365a7.605 7.605 0 00-7.605 7.605v37.973a7.604 7.604 0 007.605 7.605z"/></g><path d="M287.084 301.687h-62.812c-5.759 0-10.428-4.669-10.428-10.428v-18.814c0-5.759 4.669-10.428 10.428-10.428h62.812c5.759 0 10.428 4.669 10.428 10.428v18.814c0 5.759-4.669 10.428-10.428 10.428zM287.084 386.599h-62.812c-5.759 0-10.428-4.669-10.428-10.428v-18.814c0-5.759 4.669-10.428 10.428-10.428h62.812c5.759 0 10.428 4.669 10.428 10.428v18.814c0 5.759-4.669 10.428-10.428 10.428z" fill="#f3f1f3"/><g fill="#efedee"><path d="M122.11 40.694a12.935 12.935 0 014.364-.759h36.3V7.5H122.11zM43.642 313.58h24.736v53.183H43.642zM43.638 399.245h24.74v53.183h-24.74z"/></g><path d="M467.57 190.352l-38.47-32.875V19.481C429.1 8.739 420.361 0 409.619 0H335.39c-6.745 0-12.975 3.523-16.502 9.146l-.589.364a119.22 119.22 0 01-62.621 17.757c-22.13 0-43.784-6.141-62.62-17.757l-.591-.365C188.939 3.523 182.71 0 175.965 0h-74.228C90.995 0 82.256 8.739 82.256 19.481v137.997l-38.469 32.874a21.792 21.792 0 00-7.645 16.589V479.48c0 17.577 14.3 31.877 31.877 31.877h126.357c27.815 0 50.445-22.63 50.445-50.445V394.1h21.713v66.812c0 27.815 22.63 50.445 50.446 50.445h126.356c17.577 0 31.877-14.3 31.877-31.877V206.94a21.787 21.787 0 00-7.643-16.588zm-7.356 168.912h-67.979a.104.104 0 01-.105-.105v-37.973c0-.058.047-.105.105-.105h67.979zm-78.468-94.319h-25.664V15h25.664zM335.391 15h5.691v249.945h-37.736c-2.846-6.145-9.056-10.428-16.262-10.428h-5.55V130.303c0-2.513.53-4.946 1.576-7.234l48.206-105.451A4.491 4.491 0 01335.391 15zM224.272 379.099a2.931 2.931 0 01-2.928-2.928v-18.814a2.93 2.93 0 012.928-2.928h62.812a2.931 2.931 0 012.928 2.928v18.814a2.931 2.931 0 01-2.928 2.928zm20.549-39.67v-30.242h21.713v30.242zm-20.549-45.242a2.931 2.931 0 01-2.928-2.928v-18.814a2.931 2.931 0 012.928-2.928h62.812a2.931 2.931 0 012.928 2.928v18.814a2.931 2.931 0 01-2.928 2.928zm17.616-177.354l-39.05-85.422a134.236 134.236 0 0022.301 7.319v17.117c0 6.746 5.488 12.234 12.234 12.234h35.609c6.745 0 12.233-5.488 12.233-12.234V38.962a134.098 134.098 0 0023.304-7.556l-39.052 85.427a32.191 32.191 0 00-2.934 13.47v124.214H244.82V130.303a32.16 32.16 0 00-2.932-13.47zm28.328-75.37V53.08h-30.077V41.35c5.14.6 10.326.918 15.539.918 4.874-.001 9.725-.281 14.538-.805zM180.04 17.618l48.207 105.451a17.282 17.282 0 011.575 7.234v124.214h-5.549c-7.206 0-13.416 4.282-16.262 10.428h-37.737v-49.666a7.5 7.5 0 00-15 0v49.666H129.61V15h25.664v168.317a7.5 7.5 0 0015 0V26.089c-1.787-2.272-3.575-4.526-5.033-7.052-.797-1.381-1.177-2.742-1.239-4.037h11.963a4.493 4.493 0 014.075 2.618zM53.531 201.755l38.886-33.23a13.79 13.79 0 004.839-10.498V19.481A4.486 4.486 0 01101.737 15h12.873v249.945H51.142V206.94a6.81 6.81 0 012.389-5.185zm-2.389 119.326h67.979c.058 0 .105.047.105.105v37.973a.105.105 0 01-.105.105H51.142zm178.679 139.83c0 19.544-15.901 35.445-35.445 35.445H68.019c-9.306 0-16.877-7.571-16.877-16.877v-19.55h106.853c8.329 0 15.105-6.776 15.105-15.105v-37.973c0-8.329-6.776-15.105-15.105-15.105H109.91a7.5 7.5 0 000 15h48.085c.058 0 .105.047.105.105v37.973a.105.105 0 01-.105.105H51.142v-38.184h26.805a7.5 7.5 0 000-15H51.142v-17.481h67.979c8.329 0 15.105-6.776 15.105-15.105v-37.973c0-8.329-6.776-15.105-15.105-15.105H51.142v-26.136h155.203v11.314c0 9.885 8.042 17.928 17.928 17.928h5.549v30.242h-5.549c-9.885 0-17.928 8.042-17.928 17.928v18.814c0 9.885 8.042 17.928 17.928 17.928h5.549v66.812zm213.516 35.445H316.981c-19.545 0-35.446-15.901-35.446-35.445v-66.812h5.55c9.886 0 17.928-8.042 17.928-17.928v-18.814c0-9.886-8.042-17.928-17.928-17.928h-5.55v-30.242h5.55c9.886 0 17.928-8.042 17.928-17.928v-11.314h102.566c4.143 0 7.5-3.358 7.5-7.5s-3.357-7.5-7.5-7.5h-10.832V15h12.873c2.471 0 4.48 2.01 4.48 4.481v138.546c0 4.045 1.764 7.872 4.839 10.498l38.886 33.23a6.81 6.81 0 012.39 5.185v58.004H439.54c-4.143 0-7.5 3.358-7.5 7.5s3.357 7.5 7.5 7.5h20.674v26.136h-67.979c-8.329 0-15.105 6.776-15.105 15.105v37.973c0 8.329 6.776 15.105 15.105 15.105h67.979v17.481H353.361c-8.329 0-15.105 6.776-15.105 15.105v37.973c0 8.329 6.776 15.105 15.105 15.105h106.854v19.55c-.001 9.308-7.572 16.879-16.878 16.879zm16.877-51.427H353.361a.104.104 0 01-.105-.105v-37.973c0-.058.047-.105.105-.105h106.854v38.183z"/></svg><svg viewBox="0 0 512 512" id="004-hook" xmlns="http://www.w3.org/2000/svg"><path d="M451 166.7h-6.3l-18.6 8.4-16.1-8.4h-45.4l-15.3 7.7-19.5-7.7h-45.4l-18.5 9.6-16.3-9.6h-45.4l-16.2 7.8-18.6-7.8H124l-16.6 9.4-18.2-9.4H62.7c-4.8 0-8.8 3.9-8.8 8.8v36.3c0 4.8 3.9 8.8 8.8 8.8h6.1l22.9-14.7 11.9 14.7H149l22.4-10.8 12.4 10.8h45.4l23.6-13.8 11.2 13.8h45.4l20.4-11.2 14.4 11.2h45.4l22.1-9 12.7 9H451c4.8 0 8.8-3.9 8.8-8.8v-36.3c0-4.8-4-8.8-8.8-8.8z" fill="#fbe372"/><path d="M391.6 120.6h7.4c8.4 0 15.1-6.8 15.1-15.1V76h-37.7v29.5c0 8.4 6.8 15.1 15.2 15.1zM122.2 120.6h-7.4c-8.4 0-15.1-6.8-15.1-15.1V74h37.7v31.5c-.1 8.4-6.9 15.1-15.2 15.1z" fill="#e1dee2"/><path d="M411.5 113.6h-7.4c-8.4 0-15.1-6.8-15.1-15.1V76h-12.5v29.5c0 8.4 6.8 15.1 15.1 15.1h7.4c5.4 0 10.1-2.8 12.8-7h-.3zM134.7 113.6h-7.4c-8.4 0-15.1-6.8-15.1-15.1V74H99.6v31.5c0 8.4 6.8 15.1 15.1 15.1h7.4c5.4 0 10.1-2.8 12.8-7h-.2z" fill="#cac5cb"/><path d="M241.3 504.5c-27.6.1-51.1-17.8-59.4-42.5-3.3-9.8 3.9-19.9 14.2-19.9 6.5 0 12.2 4.3 14.3 10.4 4.6 13.4 17.6 22.8 32.7 21.9 15.7-.9 28.7-13.3 30.3-29 1.6-15.4-7.7-29.5-22.2-34.2-6.1-2-10.3-7.8-10.3-14.2v-40.3h30v30.5c21.1 11.4 34.2 34.3 32.5 59.3-2.3 32.4-29.6 57.9-62.1 58z" fill="#e1dee2"/><path d="M320.4 273.9v60c0 2.2-.9 4.4-2.6 5.9L287 367.7c-1.5 1.3-3.4 2.1-5.3 2.1h-50.6c-2 0-3.9-.7-5.3-2.1l-30.9-27.9c-1.7-1.5-2.6-3.6-2.6-5.9v-60c0-4.4 3.5-7.9 7.9-7.9h112.3c4.4-.1 7.9 3.5 7.9 7.9z" fill="#b3adb5"/><path d="M251.1 356.8c-2 0-4-.7-5.5-1.9L214 328.7c-1.7-1.4-2.7-3.4-2.7-5.5V267c0-.3 0-.6.1-1h-11.2c-4.4 0-7.9 3.5-7.9 7.9v60c0 2.2.9 4.4 2.6 5.9l30.9 27.9c1.5 1.3 3.4 2.1 5.3 2.1h50.6c2 0 3.9-.7 5.3-2.1l12.1-10.9z" fill="#a59ca6"/><circle cx="256.4" cy="317.8" fill="#e1dee2" r="24.3"/><path d="M254.4 208.7l9.6 11.8h45.4l20.4-11.2 14.4 11.2h45.4l22.1-9 12.7 9H451c4.8 0 8.8-3.9 8.8-8.8v-3.1z" fill="#f9de58"/><path d="M444.7 166.7l-20.3 53.8h-34.8l20.4-53.8zM364.5 166.7l-20.3 53.8h-34.8l20.4-53.8z" fill="#a59ca6"/><path d="M94 208.7l9.6 11.8H149l22.4-10.7 12.4 10.7h45.4l20.1-11.8z" fill="#f9de58"/><path d="M284.4 166.7L264 220.5h-34.8l20.4-53.8zM204.2 166.7l-20.4 53.8H149l20.4-53.8z" fill="#a59ca6"/><path d="M85.4 208.7c-4.8 0-8.8-3.9-8.8-8.8v-33.2H62.7c-4.8 0-8.8 3.9-8.8 8.8v36.3c0 4.8 3.9 8.8 8.8 8.8h6.1l18.3-11.8h-1.7z" fill="#f9de58"/><path d="M124 166.7l-20.4 53.8H68.8l20.4-53.8z" fill="#a59ca6"/><g fill="#8f8390"><path d="M394.1 208.7l-4.5 11.8h34.8l4.5-11.8zM313.9 208.7l-4.5 11.8h34.8l4.5-11.8zM233.7 208.7l-4.5 11.8H264l4.5-11.8zM153.5 208.7l-4.5 11.8h34.8l4.5-11.8zM85.4 208.7c-4.8 0-8.8-3.9-8.8-8.8v-.1l-7.8 20.7h34.8l4.5-11.8z"/></g><path d="M453.3 83H60.4c-12.2 0-22.1-9.9-22.1-22.1V7.5h437v53.4c.1 12.2-9.8 22.1-22 22.1z" fill="#b3adb5"/><path d="M90.9 62.4c-12.2 0-22.1-9.9-22.1-22.1V7.5H38.3v53.4c0 12.2 9.9 22.1 22.1 22.1h392.9c11.7 0 21.2-9.1 22-20.6z" fill="#a59ca6"/><g><path d="M484.8 15H27.2c-4.1 0-7.5-3.4-7.5-7.5S23 0 27.2 0h457.6c4.1 0 7.5 3.4 7.5 7.5S489 15 484.8 15z" fill="#8f8390"/></g><g><path d="M256.4 286.1c-17.5 0-31.8 14.3-31.8 31.8s14.3 31.8 31.8 31.8 31.8-14.3 31.8-31.8c-.1-17.6-14.3-31.8-31.8-31.8zm0 48.5c-9.3 0-16.8-7.5-16.8-16.8s7.5-16.8 16.8-16.8 16.8 7.5 16.8 16.8c-.1 9.3-7.6 16.8-16.8 16.8z"/><path d="M484.8 0H27.2c-4.1 0-7.5 3.4-7.5 7.5S23 15 27.2 15h3.7v45.9c0 16.3 13.3 29.6 29.6 29.6h31.7v15.1c0 11.2 8.2 20.5 18.8 22.3v31.5H62.7c-9 0-16.3 7.3-16.3 16.3V212c0 9 7.3 16.3 16.3 16.3h135.1v30.6c-7.3 1.2-13 7.5-13 15.2v60c0 4.3 1.8 8.5 5.1 11.4l30.9 27.9c2.8 2.6 6.5 4 10.3 4h2.3V397c0 9.7 6.2 18.3 15.5 21.3 11.2 3.7 18.2 14.5 17 26.3-1.2 12-11.2 21.6-23.3 22.3-11.2.7-21.5-6.3-25.2-16.9-3.2-9.3-11.7-15.5-21.4-15.5-7.3 0-14 3.4-18.2 9.3s-5.4 13.5-3.1 20.4c9.6 28.5 36.2 47.6 66.3 47.6h.3c29.6-.1 56.1-19 65.8-47.1 1.4-3.9-.7-8.2-4.6-9.5-3.9-1.4-8.2.7-9.5 4.6-7.7 22.1-28.4 37-51.7 37h-.2c-23.6 0-44.5-15-52.1-37.4-.8-2.4-.4-4.9 1-6.9s3.6-3.1 6.1-3.1c3.2 0 6.1 2.2 7.2 5.4 5.8 17 22.3 28.1 40.2 27 19.3-1.1 35.4-16.5 37.3-35.7 1.9-18.9-9.3-36.2-27.3-42.1-3.1-1-5.1-3.9-5.1-7.1v-19.8h15v10c0 2.8 1.5 5.3 3.9 6.6 14.6 7.9 24.7 21.8 27.8 38.1.7 3.6 3.8 6.1 7.4 6.1.5 0 .9 0 1.4-.1 4.1-.8 6.7-4.7 6-8.7-3.6-19.3-15-35.9-31.4-46.2v-5.7h3.3c3.8 0 7.5-1.4 10.4-4l30.9-27.9c3.2-2.9 5.1-7.1 5.1-11.4v-60c0-7.3-5.1-13.4-12-15V228h135.1c9 0 16.3-7.3 16.3-16.3v-36.3c0-9-7.3-16.3-16.3-16.3h-48.2v-31.5c10.7-1.8 18.8-11.1 18.8-22.3V90.4h31.7c16.3 0 29.6-13.3 29.6-29.6V15h1.9c4.1 0 7.5-3.4 7.5-7.5S489 0 484.8 0zM107.1 105.5V90.4h22.7v15.1c0 4.2-3.4 7.6-7.6 7.6h-7.4c-4.3 0-7.7-3.4-7.7-7.6zm292 68.7L384.4 213H355l14.7-38.8zm34.8 0L419.2 213h-18.8l14.7-38.8zM339 213h-18.8l14.7-38.8h18.8zm-34.8 0h-29.4l14.7-38.8h29.4zm-45.4 0H240l14.7-38.8h18.8zm-34.8 0h-29.4l14.7-38.8h29.4zm-45.4 0h-18.8l14.7-38.8h18.8zm-34.8 0h-29.4l14.7-38.8h29.4zm-64.1 0l14.7-38.8h18.8L98.4 213zm-18.3-37.5c0-.7.6-1.3 1.3-1.3h15.6L63.6 213h-.9c-.7 0-1.3-.6-1.3-1.3zm251.5 158.4c0 .1-.1.2-.1.3l-30.9 27.9c-.1.1-.2.1-.3.1H231c-.1 0-.2 0-.3-.1l-30.9-27.9c-.1-.1-.1-.2-.1-.3v-60c0-.2.2-.4.4-.4h26.1c4.1 0 7.5-3.4 7.5-7.5s-3.4-7.5-7.5-7.5h-13.6V228H301v30.4h-42.7c-4.1 0-7.5 3.4-7.5 7.5s3.4 7.5 7.5 7.5h54.2c.2 0 .4.2.4.4zm139.4-122.1c0 .7-.6 1.3-1.3 1.3h-15.8l14.7-38.8h1.1c.7 0 1.3.6 1.3 1.3zm-45.7-106.3c0 4.2-3.4 7.6-7.6 7.6h-7.4c-4.2 0-7.6-3.4-7.6-7.6V90.4h22.7v15.1zm61.3-44.6c0 8.1-6.6 14.6-14.6 14.6H336.4c-4.1 0-7.5 3.4-7.5 7.5s3.4 7.5 7.5 7.5H369v15.1c0 11.2 8.2 20.5 18.8 22.3v31.5H125.9v-31.5c10.7-1.8 18.8-11.1 18.8-22.3V90.4h159.7c4.1 0 7.5-3.4 7.5-7.5s-3.4-7.5-7.5-7.5h-244c-8.1 0-14.6-6.6-14.6-14.6V15h422.1z"/><path d="M118.4 54.5c4.1 0 7.5-3.4 7.5-7.5v-3.8c0-4.1-3.4-7.5-7.5-7.5s-7.5 3.4-7.5 7.5V47c.1 4.2 3.4 7.5 7.5 7.5zM395.3 54.5c4.1 0 7.5-3.4 7.5-7.5v-3.8c0-4.1-3.4-7.5-7.5-7.5s-7.5 3.4-7.5 7.5V47c0 4.2 3.3 7.5 7.5 7.5z"/></g></svg><svg viewBox="0 0 511.557 511.557" id="005-robotic_arm" xmlns="http://www.w3.org/2000/svg"><path d="M123.68 182.536l-30.477-22.172L177.07 40.608l33.466 19.757z" fill="#cac5cb"/><path d="M178.825 104.968l31.71-44.603-33.465-19.757-83.867 119.756 30.477 22.172 1.951-2.745 24.236-34.09a64.45 64.45 0 00-12.013-11.841c-2.383-1.801-2.954-5.138-1.241-7.585l18.438-26.329c1.677-2.395 4.916-3.033 7.413-1.512a52.684 52.684 0 0016.361 6.534z" fill="#b3adb5"/><path d="M118.309 332.913h-37.99l-.01-141.679h38z" fill="#cac5cb"/><path d="M99.367 248.876a63.757 63.757 0 0018.942-2.864v-54.778h-38l.01 141.679h37.991v-53.621H96.764a5.052 5.052 0 01-5.052-5.052l-.001-20.367c0-2.881 2.403-5.15 5.282-5.042.788.03 1.579.045 2.374.045z" fill="#b3adb5"/><path d="M142.181 305.986c0-8.115-6.579-14.694-14.694-14.694H71.165c-8.115 0-14.694 6.579-14.694 14.694v101.327h85.71z" fill="#e1dee2"/><path d="M91.039 333.434c-5.928.01-10.73-4.792-10.73-10.72v-26.423c0-1.758.325-3.436.891-4.999H71.166c-8.115 0-14.694 6.579-14.694 14.694v101.327h85.709v-73.929s-33.418.019-51.142.05z" fill="#cac5cb"/><path d="M253.704 67.067h28.501v75.278h-28.501z" fill="#b3adb5"/><path d="M310.899 193.85h-12.264a8.868 8.868 0 01-8.868-8.868v-5.758c0-11.812-9.167-21.885-20.971-22.331-12.409-.469-22.652 9.49-22.652 21.796v6.293a8.868 8.868 0 01-8.868 8.868h-12.264a8.868 8.868 0 01-8.868-8.868v-5.424c0-28.371 22.445-52.134 50.811-52.671 29.025-.55 52.812 22.9 52.812 51.802v6.293a8.868 8.868 0 01-8.868 8.868z" fill="#e1dee2"/><path d="M236.796 187.379c-4.755 0-8.609-3.362-8.609-7.51v-4.593c0-24.027 21.79-44.152 49.327-44.607a57.364 57.364 0 0112.533 1.159c-6.989-3.309-14.825-5.096-23.092-4.94-28.366.538-50.811 24.3-50.811 52.671v5.424a8.868 8.868 0 008.868 8.868h12.264c4.066 0 7.484-2.739 8.531-6.471h-9.011z" fill="#cac5cb"/><path d="M427.544 501.41H84.013c-42.257 0-76.513-34.256-76.513-76.513 0-42.257 34.256-76.513 76.513-76.513h343.531c42.257 0 76.513 34.256 76.513 76.513 0 42.257-34.256 76.513-76.513 76.513z" fill="#b3adb5"/><path d="M144.11 482.821c-42.257 0-76.513-34.256-76.513-76.513 0-23.156 10.301-43.893 26.554-57.924H84.013c-42.257 0-76.513 34.256-76.513 76.513 0 42.257 34.256 76.513 76.513 76.513h343.531c19.101 0 36.576-7.007 49.983-18.581z" fill="#a59ca6"/><path d="M84.013 471.41c-25.647 0-46.513-20.866-46.513-46.513s20.865-46.513 46.513-46.513h343.531c25.647 0 46.513 20.866 46.513 46.513s-20.865 46.513-46.513 46.513z" fill="#cac5cb"/><path d="M67.597 406.307a76.238 76.238 0 014.698-26.426C52.302 385.089 37.5 403.296 37.5 424.897c0 25.647 20.865 46.513 46.513 46.513h19.902c-21.793-13.484-36.318-37.593-36.318-65.103z" fill="#b3adb5"/><g fill="#e1dee2"><circle cx="83.482" cy="424.897" r="15.885"/><circle cx="428.075" cy="424.897" r="15.885"/><circle cx="256.778" cy="424.897" r="15.885"/><circle cx="344.532" cy="424.897" r="15.885"/><circle cx="169.025" cy="424.897" r="15.885"/><circle cx="99.367" cy="184.903" r="51.973"/></g><path d="M67.997 184.903c0-25.176 17.903-46.168 41.671-50.948a52.178 52.178 0 00-10.301-1.025c-28.704 0-51.973 23.269-51.973 51.973s23.269 51.973 51.973 51.973c3.527 0 6.971-.355 10.301-1.025-23.769-4.78-41.671-25.771-41.671-50.948z" fill="#cac5cb"/><circle cx="189.993" cy="53.008" fill="#e1dee2" r="41.15"/><path d="M167.899 52.971c0-19.417 13.44-35.701 31.53-40.03a41.145 41.145 0 00-9.436-1.083c-22.727 0-41.15 18.424-41.15 41.15s18.424 41.15 41.15 41.15c3.31 0 6.511-.387 9.595-1.125-18.171-4.27-31.689-20.588-31.689-40.062z" fill="#cac5cb"/><circle cx="99.367" cy="184.903" fill="#cac5cb" r="20.602"/><path d="M300.425 95.794h-64.941a4.341 4.341 0 01-4.341-4.341V41.6c0-17.371 14.082-31.454 31.454-31.454h10.716c17.371 0 31.454 14.082 31.454 31.454v49.853a4.342 4.342 0 01-4.342 4.341z" fill="#e1dee2"/><path d="M263.573 84.732c-5.45 0-9.868-4.418-9.868-9.869V41.637c0-15.383 11.045-28.177 25.635-30.908a31.575 31.575 0 00-6.027-.583h-10.716c-17.371 0-31.453 14.082-31.453 31.453v49.854a4.342 4.342 0 004.341 4.341h64.941a4.342 4.342 0 004.341-4.341v-6.722h-41.194z" fill="#cac5cb"/><path d="M389.575 348.384h-191.99a7.592 7.592 0 01-7.592-7.592V229.99a7.592 7.592 0 017.592-7.592h191.99a7.592 7.592 0 017.592 7.592v110.801a7.592 7.592 0 01-7.592 7.593z" fill="#f8deb6"/><path d="M228.492 326.753a7.592 7.592 0 01-7.592-7.592v-96.763h-23.314a7.593 7.593 0 00-7.593 7.592v110.801a7.592 7.592 0 007.593 7.592h191.99a7.592 7.592 0 007.592-7.592v-14.038z" fill="#f7d8a4"/><path d="M315.054 222.398v51.606c0 2.086-2.152 3.445-3.986 2.517l-16.261-8.225a2.714 2.714 0 00-2.454 0l-16.261 8.225c-1.834.928-3.986-.431-3.986-2.517v-51.606z" fill="#de6a66"/><g><path d="M427.544 340.884h-22.879c0-.031.003-.061.003-.092v-39.419c0-4.142-3.357-7.5-7.5-7.5s-7.5 3.358-7.5 7.5v39.419a.093.093 0 01-.093.092h-191.99a.092.092 0 01-.092-.092V229.99c0-.051.041-.092.092-.092h67.021v44.158c0 3.576 1.814 6.835 4.854 8.719a10.222 10.222 0 005.399 1.549c1.556 0 3.116-.358 4.568-1.079l14.152-7.027 14.152 7.027c3.202 1.59 6.929 1.415 9.968-.469s4.854-5.144 4.854-8.72v-44.158h67.021c.051 0 .093.042.093.092v39.419c0 4.142 3.357 7.5 7.5 7.5s7.5-3.358 7.5-7.5V229.99c0-8.322-6.771-15.092-15.093-15.092h-191.99c-8.321 0-15.092 6.771-15.092 15.092v110.801c0 .031.004.061.004.092h-32.815v-34.898c0-12.238-9.956-22.194-22.194-22.194h-1.671c-.003-15.161-.006-31.095-.007-45.639 19.557-9.751 33.03-29.952 33.03-53.25a59.107 59.107 0 00-7.279-28.482l38.24-54.768c.065 0 .128.005.193.005 13.047 0 24.907-5.167 33.65-13.558v3.353c0 6.529 5.312 11.841 11.841 11.841h10.72v20.327c-21.93 8.883-37.561 30.734-37.561 55.937v5.424c0 9.025 7.343 16.368 16.368 16.368h12.264c9.025 0 16.368-7.342 16.368-16.368v-6.293c0-3.916 1.561-7.576 4.395-10.304a14.264 14.264 0 0110.475-3.997c7.584.287 13.754 6.942 13.754 14.836v5.758c0 9.025 7.343 16.368 16.368 16.368h12.264c9.025 0 16.368-7.342 16.368-16.368v-6.293c0-16.034-6.318-31.063-17.792-42.321-5.774-5.665-12.485-9.995-19.77-12.871v-20.202h10.72c6.529 0 11.842-5.312 11.842-11.841v-14.55c0-4.142-3.357-7.5-7.5-7.5s-7.5 3.358-7.5 7.5v11.392h-58.623V41.6c0-13.208 10.745-23.953 23.953-23.953h10.716c13.208 0 23.954 10.745 23.954 23.953v3.341c0 4.142 3.357 7.5 7.5 7.5s7.5-3.358 7.5-7.5V41.6c0-21.479-17.475-38.953-38.954-38.953h-10.716c-14.791 0-27.673 8.292-34.264 20.468-8.909-11.406-22.778-18.757-38.34-18.757-26.826 0-48.65 21.825-48.65 48.65a48.36 48.36 0 004.122 19.566 630447.735 630447.735 0 01-37.36 53.504 59.682 59.682 0 00-8.738-.647 59.39 59.39 0 00-30.845 8.614 7.5 7.5 0 007.789 12.82 44.386 44.386 0 0123.056-6.434c24.521 0 44.472 19.95 44.472 44.472s-19.95 44.473-44.472 44.473-44.473-19.95-44.473-44.473a44.21 44.21 0 013.456-17.218 7.5 7.5 0 10-13.828-5.812c-3.071 7.306-4.628 15.055-4.628 23.029 0 23.252 13.421 43.417 32.916 53.191l.007 45.698h-1.652c-12.237 0-22.193 9.956-22.193 22.194v42.584C20.1 361.878 0 391.075 0 424.897c0 46.325 37.688 84.013 84.013 84.013h343.531c46.325 0 84.013-37.688 84.013-84.013s-37.688-84.013-84.013-84.013zm-119.99-74.476l-9.412-4.673a10.317 10.317 0 00-9.123 0l-9.412 4.673v-36.511h27.947zm4.713-87.719v6.293a1.37 1.37 0 01-1.368 1.368h-12.264a1.37 1.37 0 01-1.368-1.368v-5.758c0-16.128-12.382-29.229-28.188-29.826a29.07 29.07 0 00-1.142-.021c-7.613 0-14.786 2.889-20.304 8.202-5.798 5.583-8.99 13.079-8.99 21.109v6.293a1.37 1.37 0 01-1.368 1.368h-12.264a1.37 1.37 0 01-1.368-1.368v-5.424c0-24.454 19.493-44.719 43.454-45.173 11.934-.232 23.301 4.279 31.872 12.689 8.575 8.415 13.298 19.643 13.298 31.616zm-37.562-58.92a60.19 60.19 0 00-7.892-.381 57.99 57.99 0 00-5.608.386v-16.48h13.501v16.475zM189.993 19.358c18.555 0 33.65 15.096 33.65 33.65s-15.096 33.65-33.65 33.65-33.65-15.096-33.65-33.65 15.095-33.65 33.65-33.65zm-66.671 111.129c9.77-13.989 20.619-29.526 31.019-44.423a48.796 48.796 0 0019.172 12.716l-31.346 44.893a59.73 59.73 0 00-18.845-13.186zM87.811 243.24c3.74.74 7.602 1.136 11.556 1.136 3.914 0 7.737-.391 11.442-1.116.001 13.118.004 27.128.007 40.532H87.817zm-23.839 62.746c0-3.967 3.227-7.194 7.193-7.194h56.322a7.202 7.202 0 017.194 7.194v34.898H84.013c-6.907 0-13.615.855-20.041 2.434zM427.544 493.91H84.013C45.959 493.91 15 462.951 15 424.897s30.959-69.013 69.013-69.013h343.531c38.054 0 69.013 30.959 69.013 69.013s-30.959 69.013-69.013 69.013z"/><path d="M427.544 370.884H84.013C54.23 370.884 30 395.114 30 424.897s24.229 54.013 54.013 54.013h343.531c29.783 0 54.013-24.23 54.013-54.013s-24.23-54.013-54.013-54.013zm0 93.026H84.013C62.501 463.91 45 446.408 45 424.897s17.501-39.013 39.013-39.013h343.531c21.512 0 39.013 17.501 39.013 39.013s-17.501 39.013-39.013 39.013z"/><path d="M83.481 401.512c-12.895 0-23.385 10.49-23.385 23.385s10.49 23.385 23.385 23.385 23.386-10.49 23.386-23.385-10.491-23.385-23.386-23.385zm0 31.769c-4.623 0-8.385-3.761-8.385-8.385s3.762-8.385 8.385-8.385c4.624 0 8.386 3.761 8.386 8.385s-3.762 8.385-8.386 8.385zM428.075 401.512c-12.895 0-23.386 10.49-23.386 23.385s10.491 23.385 23.386 23.385 23.385-10.49 23.385-23.385-10.49-23.385-23.385-23.385zm0 31.769c-4.624 0-8.386-3.761-8.386-8.385s3.762-8.385 8.386-8.385c4.623 0 8.385 3.761 8.385 8.385s-3.762 8.385-8.385 8.385zM256.778 401.512c-12.895 0-23.385 10.49-23.385 23.385s10.49 23.385 23.385 23.385 23.385-10.49 23.385-23.385-10.49-23.385-23.385-23.385zm0 31.769c-4.623 0-8.385-3.761-8.385-8.385s3.762-8.385 8.385-8.385 8.385 3.761 8.385 8.385-3.762 8.385-8.385 8.385zM344.531 401.512c-12.895 0-23.385 10.49-23.385 23.385s10.49 23.385 23.385 23.385 23.386-10.49 23.386-23.385-10.491-23.385-23.386-23.385zm0 31.769c-4.623 0-8.385-3.761-8.385-8.385s3.762-8.385 8.385-8.385c4.624 0 8.386 3.761 8.386 8.385s-3.762 8.385-8.386 8.385zM169.025 401.512c-12.895 0-23.386 10.49-23.386 23.385s10.491 23.385 23.386 23.385 23.385-10.49 23.385-23.385-10.49-23.385-23.385-23.385zm0 31.769c-4.624 0-8.386-3.761-8.386-8.385s3.762-8.385 8.386-8.385c4.623 0 8.385 3.761 8.385 8.385s-3.762 8.385-8.385 8.385zM127.469 184.904c0-15.496-12.606-28.103-28.102-28.103s-28.103 12.607-28.103 28.103 12.606 28.102 28.103 28.102c15.495 0 28.102-12.607 28.102-28.102zm-41.204 0c0-7.225 5.878-13.103 13.103-13.103s13.102 5.878 13.102 13.103-5.877 13.102-13.102 13.102-13.103-5.878-13.103-13.102zM189.993 62.503a7.5 7.5 0 007.5-7.5v-3.991c0-4.142-3.357-7.5-7.5-7.5s-7.5 3.358-7.5 7.5v3.991a7.5 7.5 0 007.5 7.5z"/></g></svg><svg viewBox="0 0 510.464 510.464" id="006-switch" xmlns="http://www.w3.org/2000/svg"><path d="M136.405 180.52c-1.899-13.634-13.558-23.782-27.324-23.782H76.654c-13.766 0-25.425 10.148-27.324 23.782l-11.061 79.407-5.253 22.318h118.247l-3.796-22.318z" fill="#e5827f"/><path d="M147.466 259.928l-2.089-15H84.775c-8.126 0-14.378-7.182-13.257-15.231l4.389-31.507c1.899-13.634 13.558-23.782 27.324-23.782h31.598c-4.019-10.446-14.133-17.67-25.747-17.67H76.654c-13.766 0-25.425 10.148-27.324 23.782l-11.061 79.407-5.253 22.318H151.262z" fill="#de6a66"/><path d="M457.199 115.872l29.379-49.281c5.636-9.454 1.286-21.703-9.051-25.484l-33.158-12.128c-10.337-3.781-21.564 2.77-23.358 13.63l-9.352 56.607-5.568 26.807 35.433 14.243z" fill="#cac5cb"/><path d="M429.095 119.095l9.352-56.607c1.794-10.859 13.021-17.411 23.358-13.63l27.212 9.953c.512-7.496-3.852-14.912-11.489-17.705L444.37 28.978c-10.337-3.781-21.564 2.77-23.358 13.63l-9.352 56.607-5.568 26.807 19.902 8z" fill="#b3adb5"/><path d="M375.848 318.562l60.135-164.404a7.611 7.611 0 013.461-4.045l14.242-7.889a7.611 7.611 0 003.461-4.045l4.587-12.542a7.615 7.615 0 00-4.535-9.766l-45.54-16.657a7.615 7.615 0 00-9.766 4.535l-4.587 12.542a7.613 7.613 0 00.035 5.323l5.791 15.216a7.608 7.608 0 01.034 5.323l-60.08 164.255s-37.007 84.995-37.121 84.998c-.114.002 32.195 15.578 32.195 15.578z" fill="#efedee"/><path d="M442.684 462.409a132.01 132.01 0 002.893-27.519c0-72.625-58.874-131.499-131.499-131.499S182.579 362.265 182.579 434.89a132.01 132.01 0 002.893 27.519z" fill="#e4e1e5"/><path d="M444.893 421.406H245.447c-11.293 0-19.219-11.329-15.129-21.855 19.074-49.092 66.775-83.892 122.609-83.892 6.702 0 13.297.496 19.729 1.463-16.933-8.438-35.95-13.331-56.064-13.708-73.201-1.373-133.025 56.489-134.002 129.696a132.107 132.107 0 002.881 29.298h257.213a132.01 132.01 0 002.893-27.519c0-4.551-.232-9.05-.684-13.483z" fill="#d6d1d6"/><path d="M374.741 446.627a62.09 62.09 0 001.128-11.737c0-34.126-27.665-61.791-61.791-61.791s-61.791 27.665-61.791 61.791a62 62 0 001.128 11.737z" fill="#efedee"/><path d="M252.286 434.89a62 62 0 001.128 11.737h121.327a62.09 62.09 0 001.128-11.737c0-4.634-.526-9.142-1.493-13.484H253.78a61.952 61.952 0 00-1.494 13.484z" fill="#e4e1e5"/><path d="M74.564 282.962h36.607v170.444H74.564z" fill="#cac5cb"/><path d="M74.564 421.406h36.607v32H74.564z" fill="#b3adb5"/><path d="M488.39 482.561H22.074c-8.049 0-14.574-6.525-14.574-14.574V450.98c0-8.049 6.525-14.574 14.574-14.574H488.39c8.049 0 14.574 6.525 14.574 14.574v17.007c0 8.049-6.525 14.574-14.574 14.574z" fill="#a59ca6"/><path d="M74.564 282.962h36.607v28H74.564z" fill="#b3adb5"/><path d="M150.951 295.962H34.784c-5.829 0-10.554-4.725-10.554-10.554v-14.927c0-5.829 4.725-10.554 10.554-10.554h116.168c5.829 0 10.554 4.725 10.554 10.554v14.927c-.001 5.829-4.726 10.554-10.555 10.554z" fill="#e4e1e5"/><path d="M50.104 285.228c-5.829 0-10.554-4.725-10.554-10.554v-14.746h-4.767c-5.829 0-10.554 4.725-10.554 10.554v14.927c0 5.829 4.725 10.554 10.554 10.554h116.168c5.829 0 10.554-4.725 10.554-10.554v-.181z" fill="#d6d1d6"/><g><path d="M488.39 428.906h-35.255c-2.055-48.338-28.876-90.367-68.072-113.703l15.003-41.018a7.5 7.5 0 00-14.087-5.153l-14.318 39.144a138.22 138.22 0 00-18.696-6.945L410.21 144.73a15.12 15.12 0 00-.068-10.567l-5.792-15.295 4.587-12.542a.113.113 0 01.146-.067l45.54 16.657c.05.019.085.096.067.146l-4.639 12.602-14.244 7.89a15.117 15.117 0 00-6.869 8.029l-31.971 87.405a7.5 7.5 0 0014.087 5.153l32.022-87.466 14.243-7.889a15.111 15.111 0 006.87-8.029l4.587-12.542a15.014 15.014 0 00-.486-11.557 15.25 15.25 0 00-1.4-2.398l26.128-43.828a24.983 24.983 0 002.09-21.22 24.98 24.98 0 00-15.007-15.148l-33.157-12.128a24.983 24.983 0 00-21.239 1.89 24.985 24.985 0 00-12.096 17.56l-8.318 50.351c-4.657 1.201-8.67 4.589-10.443 9.437l-4.587 12.542a15.114 15.114 0 00.068 10.567l5.791 15.296-57.874 158.224a139.456 139.456 0 00-24.171-2.105c-20.425 0-39.856 3.805-57.755 11.31a7.5 7.5 0 005.799 13.833c16.053-6.73 33.533-10.143 51.956-10.143 66.475 0 120.914 52.497 124.047 118.209h-55.031c-3.046-35.414-32.826-63.307-69.016-63.307s-65.97 27.893-69.016 63.307H190.01c1.516-38.617 17.726-71.5 46.055-93.064a7.5 7.5 0 001.425-10.51 7.498 7.498 0 00-10.51-1.425c-32.129 24.456-50.44 61.576-51.98 105h-56.332V303.462h32.28c9.955 0 18.054-8.099 18.054-18.054v-14.927c0-8.902-6.483-16.301-14.971-17.771l-10.2-73.225c-2.401-17.244-17.342-30.247-34.752-30.247H76.654c-17.411 0-32.351 13.003-34.752 30.247l-2.838 20.375a7.5 7.5 0 0014.857 2.069l2.838-20.375c1.375-9.872 9.928-17.316 19.896-17.316h32.428c9.967 0 18.521 7.444 19.896 17.316l9.872 70.873H46.886l2.622-18.826a7.5 7.5 0 00-6.394-8.463 7.498 7.498 0 00-8.463 6.394l-2.95 21.179c-8.489 1.469-14.971 8.868-14.971 17.771v14.927c0 9.955 8.099 18.054 18.054 18.054h32.28v125.444h-44.99C9.902 428.906 0 438.808 0 450.98v17.008c0 12.171 9.902 22.074 22.074 22.074H488.39c12.172 0 22.074-9.902 22.074-22.074V450.98c0-12.172-9.902-22.074-22.074-22.074zM428.412 43.83c.49-2.965 2.259-5.535 4.855-7.049s5.704-1.792 8.526-.759L474.95 48.15a10.034 10.034 0 016.025 6.082 10.03 10.03 0 01-.839 8.519l-26.197 43.943-33.867-12.388zM314.078 380.599c27.914 0 50.965 21.177 53.954 48.307H260.124c2.989-27.13 26.041-48.307 53.954-48.307zM31.73 285.408v-14.927a3.057 3.057 0 013.054-3.054h116.167a3.057 3.057 0 013.054 3.054v14.927a3.057 3.057 0 01-3.054 3.054H34.784a3.057 3.057 0 01-3.054-3.054zm50.334 18.054h21.607v125.444H82.064zm413.4 164.526c0 3.9-3.173 7.074-7.074 7.074H22.074A7.082 7.082 0 0115 467.988V450.98c0-3.9 3.173-7.074 7.074-7.074H488.39a7.082 7.082 0 017.074 7.074zM3.405 159.943l9.911 7.02a7.46 7.46 0 004.329 1.38 7.489 7.489 0 006.126-3.166 7.499 7.499 0 00-1.785-10.455l-9.911-7.02a7.5 7.5 0 00-10.455 1.785 7.5 7.5 0 001.785 10.456zM7.746 209.225a7.468 7.468 0 004.329-1.38l9.911-7.02a7.5 7.5 0 00-8.67-12.24l-9.911 7.02a7.5 7.5 0 004.341 13.62z"/><path d="M168.091 168.343a7.468 7.468 0 004.329-1.38l9.911-7.02c3.38-2.394 4.18-7.075 1.785-10.455s-7.076-4.18-10.455-1.785l-9.911 7.02a7.499 7.499 0 004.341 13.62zM163.75 200.825l9.911 7.02a7.46 7.46 0 004.329 1.38 7.489 7.489 0 006.126-3.166 7.499 7.499 0 00-1.785-10.455l-9.911-7.02a7.5 7.5 0 10-8.67 12.241z"/></g></svg><svg viewBox="0 0 510.696 510.696" id="007-wrench" xmlns="http://www.w3.org/2000/svg"><path d="M371.965 162.25l84.243-84.243 12.614-4.27a9.067 9.067 0 003.506-2.178l24.448-24.448a6.774 6.774 0 000-9.579L475.53 16.283a6.774 6.774 0 00-9.579 0l-24.448 24.448a9.074 9.074 0 00-2.178 3.506l-4.27 12.614-84.243 84.243-41.52 41.412 17.559 21.735z" fill="#efedee"/><path d="M233.913 132.682l-15.1-.003a127.16 127.16 0 00-33.145 15.533l-28.1 21.43-9.75 17.09-.09.17c-3.35 5.308-6.294 10.891-8.846 16.685l.602 14.109 22.76 24.265 10.343-7.139c7.556-30.632 31.555-54.784 62.107-62.541l7.843-7.212z" fill="#fbe372"/><path d="M264.292 227.613L137.684 101.005C147.817 76.49 142.926 47.228 123 27.302 103.493 7.795 75.041 2.706 50.852 12.008c-1.602.616-2.024 2.694-.81 3.908l39.921 39.921a5.285 5.285 0 011.313 5.294l-6.279 20.346a5.284 5.284 0 01-3.49 3.49l-20.346 6.279a5.283 5.283 0 01-5.294-1.313L15.945 50.011c-1.213-1.213-3.29-.793-3.905.807-9.461 24.597-4.04 53.604 16.29 73.13 19.375 18.609 47.413 23.331 71.205 14.232L226.63 265.275l17.411 18.211 39.253-36.736z" fill="#efedee"/><path d="M372.564 283.486l-22.596-14.296-10.645 6.094c-7.171 30.256-30.352 54.297-60.112 62.697l-7.655 14.859 10.325 19.005 23.616.927a127.957 127.957 0 0018.46-9.629c.12-.08.24-.13.35-.18l26.5-16.34 11.84-21.43a127.635 127.635 0 0011.544-21.885z" fill="#fbe372"/><path d="M247.785 286.43l124.731 124.731c-9.099 23.792-4.377 51.829 14.232 71.205 19.527 20.331 48.533 25.752 73.13 16.29 1.601-.615 2.02-2.693.807-3.905l-39.922-39.922a5.285 5.285 0 01-1.313-5.294l6.279-20.346a5.285 5.285 0 013.49-3.491l20.346-6.278a5.283 5.283 0 015.294 1.313l39.921 39.921c1.214 1.214 3.292.792 3.908-.81 9.302-24.189 4.214-52.641-15.294-72.148-19.926-19.926-49.188-24.816-73.703-14.684L285.447 248.768l-16.422-15.385-38.709 39.313z" fill="#efedee"/><path d="M274.15 237.541l-9.857-9.928-10.607-10.607-10.346 10.346c-6.083 6.083-15.945 6.083-22.028 0L117.287 123.328c-5.782-5.782-14.046-8.201-22.089-6.724-20.761 3.812-43.008-2.041-59.203-17.595-14.051-13.495-20.969-31.536-20.786-49.502-1.186-.515-2.666.003-3.169 1.311-9.461 24.597-4.04 53.604 16.29 73.13 19.375 18.609 47.413 23.331 71.205 14.232L226.63 265.275l17.411 18.211 39.253-36.736z" fill="#e4e1e5"/><path d="M461.312 495.844c-18.214.386-36.559-6.535-50.242-20.782-15.6-16.243-21.441-38.573-17.561-59.387 1.476-7.918-.94-16.059-6.655-21.735L280.577 288.384c-3.746-3.721-3.756-9.776-.023-13.51l15.5-15.5-10.607-10.607-9.159-8.581-7.262-6.804-38.709 39.313 17.468 13.734 10.607 10.607 114.125 114.125c-9.099 23.792-4.377 51.829 14.232 71.205 19.527 20.331 48.533 25.751 73.13 16.29 1.182-.454 1.722-1.699 1.433-2.812z" fill="#e4e1e5"/><path d="M327.379 206.835L218.277 315.938l-35.724 35.441-22.503-22.061 37.073-34.535L306.605 185.3l22.16-23.05 22.045 21.284z" fill="#efedee"/><path d="M138.891 203.595v.001l.001-.001z" fill="#b3adb5"/><path d="M279.211 337.981a85.78 85.78 0 01-23.343 3.241c-47.38 0-85.79-38.41-85.79-85.79 0-7.107.88-14.006 2.509-20.61l-33.696-31.227c-.476 1.28-5.698 14.41-7.663 23.096-.32 1.43-1.61 2.43-3.07 2.43h-12.2c-4.3 0-7.78 3.49-7.78 7.78v36.2c0 4.29 3.48 7.78 7.78 7.78h12.2c1.46 0 2.75 1 3.07 2.43 3.24 14.32 8.89 27.73 16.5 39.79.14.21.23.44.31.68l8.76 18.77 32.56 21.54c11.64 7.12 24.49 12.45 38.2 15.55 1.43.32 2.43 1.61 2.43 3.07v12.2c0 4.29 3.48 7.77 7.77 7.77h36.21c4.29 0 7.77-3.48 7.77-7.77v-12.2c0-1.46 1-2.75 2.43-3.07 8.601-1.945 18.981-5.974 21.317-6.886v-.002c-8.39-10.939-19.074-24.969-26.274-34.772z" fill="#fbe372"/><path d="M218.813 132.679v.003h.001z" fill="#b3adb5"/><path d="M395.768 229.122h-12.19c-1.49 0-2.76-1.04-3.09-2.49a127.098 127.098 0 00-16.46-39.68c-.79-1.26-.63-2.89.42-3.94l8.64-8.64a7.774 7.774 0 000-11l-25.6-25.6c-3.03-3.03-7.96-3.03-10.99 0l-8.64 8.64a3.161 3.161 0 01-3.94.42 127.133 127.133 0 00-39.69-16.45 3.175 3.175 0 01-2.49-3.09v-12.2c0-4.29-3.48-7.77-7.77-7.77h-36.21c-4.29 0-7.77 3.48-7.77 7.77v12.2c0 1.49-1.04 2.76-2.49 3.09-3.447.781-7.716 2.018-8.684 2.3l15.88 39.6a85.923 85.923 0 0121.174-2.64c47.38 0 85.79 38.41 85.79 85.79 0 6.837-.823 13.477-2.334 19.852l34.868 28.023a126.362 126.362 0 006.296-19.935c.33-1.45 1.6-2.49 3.09-2.49h12.19c4.3 0 7.78-3.49 7.78-7.78v-36.2c0-4.29-3.48-7.78-7.78-7.78z" fill="#fbe372"/><g><path d="M197.123 294.783l-37.073 34.535 22.503 22.061 35.724-35.441 10.607-10.607-21.155-21.155z" fill="#e4e1e5"/><path d="M91.549 472.399l127.716-141.42a10.47 10.47 0 00-.367-14.42L196.1 293.761a10.47 10.47 0 00-14.42-.367L40.26 421.11c-15.214 13.74-15.817 37.421-1.321 51.917l.694.694c14.496 14.495 38.177 13.892 51.916-1.322z" fill="#e5827f"/></g><path d="M74.477 473.72l-.693-.694c-14.496-14.496-13.893-38.177 1.321-51.917L205.6 303.26l-9.499-9.499a10.47 10.47 0 00-14.42-.367L40.26 421.11c-15.214 13.74-15.817 37.421-1.321 51.917l.693.694c11.632 11.632 29.173 13.546 42.751 5.985a35.942 35.942 0 01-7.906-5.986z" fill="#de6a66"/><path d="M488.698 382.393c-20.352-20.352-50.136-27.198-77.115-18.095l-39.699-39.699a134.008 134.008 0 0015.112-36.221h8.774c8.422 0 15.274-6.852 15.274-15.274v-36.201c0-8.423-6.852-15.275-15.274-15.275h-8.775a134.165 134.165 0 00-14.821-35.737l6.217-6.218c4.475-4.475 5.586-11.057 3.337-16.58l19.337-19.337a7.5 7.5 0 000-10.606 7.5 7.5 0 00-10.606 0l-18.495 18.495-10.548-10.548 78.94-78.94a7.51 7.51 0 001.801-2.898l4.271-12.615a1.57 1.57 0 01.377-.606L470.741 22.1l20.219 20.22-23.933 23.934a1.588 1.588 0 01-.609.379l-12.614 4.27a7.502 7.502 0 00-2.898 1.801l-37.844 37.844a7.5 7.5 0 000 10.606 7.5 7.5 0 0010.606 0l36.605-36.605 10.956-3.708a16.661 16.661 0 006.403-3.979l24.448-24.448c2.696-2.696 4.181-6.28 4.181-10.093s-1.484-7.397-4.181-10.093L480.833 10.98c-5.564-5.564-14.62-5.564-20.186 0l-24.448 24.449a16.66 16.66 0 00-3.979 6.404l-3.708 10.955-77.888 77.888a15.153 15.153 0 00-8.63-2.676c-4.08 0-7.916 1.589-10.801 4.474l-6.218 6.218a134.164 134.164 0 00-35.736-14.821v-8.775c0-8.423-6.852-15.275-15.275-15.275h-36.201c-8.422 0-15.275 6.852-15.275 15.275v8.775a134.002 134.002 0 00-36.221 15.112l-39.871-39.871a75.326 75.326 0 002.926-36.102 7.501 7.501 0 00-14.806 2.408c1.804 11.087.502 22.402-3.763 32.724a7.499 7.499 0 001.628 8.168l121.305 121.305-27.056 27.056-121.792-121.794a7.501 7.501 0 00-7.982-1.702c-21.798 8.337-46.658 3.377-63.33-12.636-15.539-14.924-21.77-36.688-16.897-57.238l33.934 33.934a12.754 12.754 0 0012.809 3.177l20.344-6.278a12.77 12.77 0 008.447-8.446l6.278-20.345a12.752 12.752 0 00-3.176-12.809l-33.931-33.93c20.1-4.738 41.512 1.152 56.362 16.002a61.05 61.05 0 015.748 6.655 7.501 7.501 0 0012.028-8.964 75.947 75.947 0 00-7.168-8.298C107.327 1.021 75.869-5.65 48.159 5.008a9.824 9.824 0 00-6.101 7.158 9.86 9.86 0 002.681 9.053l38.976 38.976-5.539 17.95-17.95 5.54-38.978-38.977a9.863 9.863 0 00-9.053-2.681 9.824 9.824 0 00-7.156 6.099c-10.895 28.325-3.792 60.21 18.095 81.232 19.657 18.88 48.386 25.481 74.411 17.44l40.932 40.932a134.127 134.127 0 00-13.747 33.898h-8.775c-8.422 0-15.274 6.852-15.274 15.275v36.201c0 8.422 6.852 15.274 15.274 15.274h8.775a134.082 134.082 0 0013.759 33.917L88.222 367.69a7.5 7.5 0 0010.054 11.133l88.432-79.862a2.969 2.969 0 014.09.104l22.798 22.798a2.968 2.968 0 01.104 4.09L85.983 467.373c-5.253 5.817-12.462 9.131-20.299 9.331-7.812.199-15.205-2.743-20.746-8.284l-.695-.696c-5.543-5.543-8.486-12.911-8.286-20.748.199-7.836 3.513-15.046 9.331-20.3l29.237-26.404a7.501 7.501 0 00-10.053-11.133l-29.237 26.404c-8.898 8.036-13.967 19.063-14.272 31.05s4.196 23.257 12.673 31.734l.695.696c8.209 8.209 19.034 12.69 30.594 12.689.38 0 .761-.005 1.143-.015 11.987-.305 23.014-5.374 31.049-14.272l93.747-103.806c10.022 5.513 20.619 9.719 31.626 12.515v8.775c0 8.422 6.853 15.274 15.275 15.274h36.201c8.422 0 15.275-6.852 15.275-15.274v-8.775a134.086 134.086 0 0033.898-13.746l40.762 40.761c-8.04 26.023-1.44 54.753 17.44 74.411 14.478 15.074 34.105 23.136 54.177 23.134a75.318 75.318 0 0027.056-5.039 9.822 9.822 0 006.099-7.156 9.862 9.862 0 00-2.681-9.053l-38.977-38.978 5.539-17.95 17.95-5.539 38.975 38.975a9.864 9.864 0 009.052 2.683 9.825 9.825 0 007.16-6.103c10.653-27.706 3.984-59.164-16.993-80.141zM229.155 137.694c4.906-1.113 8.333-5.39 8.333-10.402v-12.197c0-.151.124-.275.275-.275h36.201c.151 0 .275.124.275.275v12.197c0 5.012 3.427 9.289 8.333 10.402a119.258 119.258 0 0137.341 15.487c4.257 2.684 9.704 2.082 13.247-1.462l8.639-8.639c.026-.026.081-.08.194-.08s.168.054.194.081l25.598 25.598a.276.276 0 010 .389l-8.639 8.639c-3.544 3.544-4.146 8.992-1.462 13.247a119.326 119.326 0 0115.487 37.342c1.113 4.907 5.39 8.333 10.402 8.333h12.197c.151 0 .274.124.274.275v36.201a.274.274 0 01-.274.274h-12.197c-5.012 0-9.289 3.427-10.402 8.334-2.54 11.204-6.681 21.888-12.284 31.891l-19.743-19.743a94.01 94.01 0 008.434-38.857c0-51.675-42.041-93.715-93.715-93.715a94.006 94.006 0 00-38.857 8.434l-19.744-19.744c10.005-5.605 20.689-9.745 31.893-12.285zm105.424 117.308a78.977 78.977 0 01-4.92 27.372l-33.606-33.606 29.772-29.772a78.196 78.196 0 018.754 36.006zm-106.085-73.793a78.962 78.962 0 0127.369-4.922 78.206 78.206 0 0138.851 10.298l-30.422 30.422zm-89.952 100.446c-1.103-4.874-5.375-8.278-10.389-8.278h-12.197a.274.274 0 01-.274-.274v-36.201c0-.151.123-.275.274-.275h12.197c5.015 0 9.287-3.404 10.389-8.278 2.336-10.324 6.05-20.219 11.006-29.549l19.902 19.902c-4.848 11.491-7.302 23.677-7.302 36.3a94.013 94.013 0 008.26 38.466l-20.479 18.494c-5.153-9.552-8.989-19.707-11.387-30.307zm44.232 2.548a78.972 78.972 0 01-5.626-29.201c0-8.495 1.327-16.75 3.944-24.658l34.931 34.931-19.655 19.655a17.979 17.979 0 00-13.594-.727zm24.955 10.58l99.421-99.42a79.304 79.304 0 0110.341 10.755l-99.214 99.214zm20.26 22.049l19.796-19.796 32.737 32.737c-7.907 2.617-16.162 3.944-24.658 3.944-9.377 0-18.459-1.621-27.104-4.807a17.99 17.99 0 00-.771-12.078zm54.528 55.491c-4.874 1.103-8.278 5.375-8.278 10.389v12.197a.275.275 0 01-.275.274h-36.201a.275.275 0 01-.275-.274v-12.197c0-5.015-3.404-9.287-8.278-10.389-9.706-2.196-19.071-5.634-27.968-10.198l18.601-20.597c11.408 4.77 23.498 7.188 36.021 7.188 12.624 0 24.809-2.454 36.3-7.302l19.923 19.923a119.038 119.038 0 01-29.57 10.986zm211.577 77.037l-33.93-33.929a12.75 12.75 0 00-12.809-3.177l-20.346 6.278a12.775 12.775 0 00-8.445 8.446l-6.278 20.345a12.752 12.752 0 003.176 12.809l33.935 33.935c-20.554 4.873-42.315-1.358-57.239-16.897-16.013-16.672-20.973-41.531-12.636-63.331a7.5 7.5 0 00-1.702-7.982L258.391 286.43l27.056-27.056 118.941 118.941a7.497 7.497 0 008.168 1.628c22.559-9.323 48.282-4.198 65.536 13.056 14.849 14.851 20.74 36.265 16.002 56.361z"/></svg><svg viewBox="0 0 511.974 511.974" id="008-mechanical_arm" xmlns="http://www.w3.org/2000/svg"><path d="M277.667 178.617l40.252 21.413v34.394c0 5.455 4.422 9.877 9.876 9.877h10.247c5.455 0 9.877-4.422 9.877-9.877v-43.405c0-5.545-3.06-10.639-7.955-13.243l-48.212-25.647-38.191-18.382-12.855 27.884z" fill="#e1dee2"/><path d="M235.789 178.617l-40.252 21.413v34.394c0 5.455-4.422 9.877-9.877 9.877h-10.247c-5.455 0-9.877-4.422-9.877-9.877v-43.405c0-5.545 3.06-10.639 7.955-13.243l48.211-25.647 21.739-11.01 11.648 26.894zM240.706 57.526h32.045v82.913h-32.045z" fill="#e1dee2"/><path d="M186.306 52.971l14.357 19.557 110.316 4.584 13.696-8.105 4.371-4.374a5.04 5.04 0 001.48-3.57V7.502H187.35c-.339 14.459-1.044 45.469-1.044 45.469zM489.964 504.474H22.01c-7.96 0-14.413-6.453-14.413-14.413v-10.12c0-7.96 6.453-14.413 14.413-14.413h467.954c7.96 0 14.413 6.453 14.413 14.413v10.12c0 7.96-6.453 14.413-14.413 14.413z" fill="#a59ca6"/><path d="M397.962 465.527h-283.95a9.582 9.582 0 01-9.582-9.582V301.524a9.582 9.582 0 019.582-9.582h283.95a9.582 9.582 0 019.582 9.582v154.421a9.582 9.582 0 01-9.582 9.582z" fill="#f8deb6"/><path d="M143.319 437.507a9.582 9.582 0 01-9.582-9.582V291.942h-19.725a9.582 9.582 0 00-9.582 9.582v154.421a9.582 9.582 0 009.582 9.582h283.95a9.582 9.582 0 009.582-9.582v-18.439H143.319z" fill="#f7d8a4"/><path d="M222.246 356.367h-73.954a5.604 5.604 0 00-5.604 5.604v103.556h85.163V361.971a5.605 5.605 0 00-5.605-5.604z" fill="#e5827f"/><path d="M363.458 378.735h-83.706a6.182 6.182 0 01-6.182-6.182v-43.677a6.182 6.182 0 016.182-6.182h83.706a6.182 6.182 0 016.182 6.182v43.677a6.181 6.181 0 01-6.182 6.182z" fill="#f8f7f8"/><g fill="#d6d1d6"><path d="M221.704 152.129l-14.182 7.544c1.912 10.262 6.956 19.433 14.11 26.475l14.158-7.531 19.302-10.603-11.648-26.894zM272.751 103.067c-5.034-1.706-10.419-2.645-16.022-2.645s-10.988.939-16.022 2.645v37.372h32.045v-37.372z"/><path d="M253.561 133.747l-12.855 27.884 36.961 16.985 14.158 7.532c7.154-7.042 12.198-16.213 14.11-26.475l-14.183-7.545z"/></g><circle cx="256.728" cy="150.488" fill="#b3adb5" r="35.066"/><path d="M237.685 150.488c0-16.609 11.563-30.518 27.066-34.144a35.235 35.235 0 00-8.023-.922c-19.366 0-35.066 15.699-35.066 35.066 0 19.366 15.699 35.066 35.066 35.066a35.07 35.07 0 008.005-.918c-15.503-3.626-27.048-17.54-27.048-34.148z" fill="#a59ca6"/><path d="M256.729 159.778a7.5 7.5 0 01-7.5-7.5v-2.791a7.5 7.5 0 0115 0v2.791a7.5 7.5 0 01-7.5 7.5z" fill="#e1dee2"/><path d="M221.417 69.006c-1.34 0-2.63-.54-3.58-1.48l-15.77-15.78a5.04 5.04 0 01-1.48-3.57V7.502h-18.14v53.56c0 .927.249 1.81.72 2.59l23.265 8.779 2.485 9.461h36.54l8.104-3.983h29.438l1.388 3.983h25.31c1.34 0 2.63-.54 3.58-1.48l11.399-11.406z" fill="#8f8390"/><g fill="#fbe372"><path d="M262.657 7.502l-53.74 74.39h-5.64c-1.34 0-2.63-.54-3.58-1.48l-15.77-15.78c-.3-.3-.55-.63-.76-.98l40.57-56.15h38.92zM330.527 7.502v10.52l-46.14 63.87h-38.93l53.74-74.39z"/></g><path d="M254.766 69.006l-9.309 12.886h38.93l9.309-12.886zM203.277 81.892h5.64l9.86-13.649a5.127 5.127 0 01-.94-.717l-15.77-15.78a5.04 5.04 0 01-1.48-3.57v-8.634l-17.42 24.11c.21.35.46.68.76.98l15.77 15.78c.95.94 2.24 1.48 3.58 1.48z" fill="#f9de58"/><path d="M143.319 437.507c-.213 0-.422-.018-.631-.032v28.053h85.163v-28.021z" fill="#de6a66"/><g><path d="M489.963 458.027h-75.06c.084-.684.14-1.376.14-2.082V301.524c0-9.419-7.663-17.082-17.082-17.082h-25.72c-4.143 0-7.5 3.358-7.5 7.5s3.357 7.5 7.5 7.5h25.72c1.148 0 2.082.934 2.082 2.082v154.421a2.084 2.084 0 01-2.082 2.082h-162.61v-35.099a7.5 7.5 0 00-15 0v35.099h-70.163v-94.161h70.163v27.099a7.5 7.5 0 0015 0V361.97c0-7.226-5.878-13.104-13.104-13.104h-73.954c-7.226 0-13.104 5.879-13.104 13.104v96.056h-21.175a2.084 2.084 0 01-2.082-2.082v-154.42c0-1.148.934-2.082 2.082-2.082h226.267c4.143 0 7.5-3.358 7.5-7.5s-3.357-7.5-7.5-7.5H114.012c-9.419 0-17.082 7.663-17.082 17.082v154.421c0 .706.056 1.398.14 2.082H78.136a7.5 7.5 0 000 15h411.827a6.92 6.92 0 016.913 6.913v10.12a6.921 6.921 0 01-6.913 6.913H22.01a6.92 6.92 0 01-6.913-6.913v-10.12a6.92 6.92 0 016.913-6.913h24.164a7.5 7.5 0 000-15H22.01c-12.083 0-21.913 9.83-21.913 21.913v10.12c0 12.083 9.83 21.913 21.913 21.913h467.954c12.083 0 21.913-9.83 21.913-21.913v-10.12c-.001-12.083-9.831-21.913-21.914-21.913z"/><path d="M377.14 328.875c0-7.544-6.138-13.682-13.682-13.682h-83.707c-7.544 0-13.682 6.138-13.682 13.682v43.677c0 7.544 6.138 13.683 13.682 13.683h83.707c7.544 0 13.682-6.138 13.682-13.683zm-15 42.36h-81.07v-41.042h81.07zM273.57 414.447h7.741c4.143 0 7.5-3.358 7.5-7.5s-3.357-7.5-7.5-7.5h-7.741c-4.143 0-7.5 3.358-7.5 7.5s3.357 7.5 7.5 7.5zM369.64 399.447h-58.723c-4.143 0-7.5 3.358-7.5 7.5s3.357 7.5 7.5 7.5h58.723c4.143 0 7.5-3.358 7.5-7.5s-3.357-7.5-7.5-7.5zM273.57 443.737h96.07c4.143 0 7.5-3.358 7.5-7.5s-3.357-7.5-7.5-7.5h-96.07c-4.143 0-7.5 3.358-7.5 7.5s3.357 7.5 7.5 7.5zM175.414 251.8h10.247c9.582 0 17.376-7.795 17.376-17.376v-29.889l32.379-17.224c6.272 3.645 13.55 5.743 21.312 5.743s15.039-2.099 21.312-5.743l32.379 17.224v29.889c0 9.582 7.795 17.376 17.376 17.376h10.247c9.582 0 17.377-7.795 17.377-17.376v-43.405a22.454 22.454 0 00-11.933-19.864l-44.302-23.567c-.919-13.575-8.223-25.423-18.934-32.553V89.389h29.446c3.354 0 6.507-1.306 8.881-3.678l15.771-15.772a12.479 12.479 0 003.678-8.88V15h4.233c4.143 0 7.5-3.358 7.5-7.5s-3.357-7.5-7.5-7.5H171.196a7.5 7.5 0 000 15h3.75v46.059c0 3.355 1.307 6.51 3.678 8.88l15.771 15.771a12.475 12.475 0 008.881 3.68h29.929v25.646c-10.711 7.13-18.015 18.977-18.934 32.552l-44.302 23.567a22.454 22.454 0 00-11.933 19.864v43.405c.002 9.581 7.797 17.376 17.378 17.376zm165.005-60.781v43.405a2.378 2.378 0 01-2.377 2.376h-10.247a2.378 2.378 0 01-2.376-2.376V200.03a7.5 7.5 0 00-3.978-6.622l-31.27-16.635a42.504 42.504 0 007.067-13.231l39.204 20.855a7.485 7.485 0 013.977 6.622zM284.53 15l-42.904 59.389H223.59L266.494 15zm18.505 0h19.992v.595l-42.474 58.794h-20.422zm5.651 59.389h-9.629l23.969-33.18v18.838zM209.063 15l-19.116 26.461V15zm-16.168 47.995L227.568 15h20.421l-42.904 59.389h-.797zm55.311 26.394h17.044v19.392c-2.754-.562-5.604-.858-8.522-.858s-5.768.296-8.522.858zm8.523 33.533c15.2 0 27.566 12.366 27.566 27.565s-12.366 27.566-27.566 27.566-27.566-12.366-27.566-27.566 12.366-27.565 27.566-27.565zm-83.691 68.097a7.484 7.484 0 013.978-6.621l39.204-20.855a42.505 42.505 0 007.067 13.231l-31.27 16.635a7.5 7.5 0 00-3.978 6.622v34.394a2.378 2.378 0 01-2.376 2.376h-10.247a2.378 2.378 0 01-2.376-2.376v-43.406z"/><path d="M256.729 159.778a7.5 7.5 0 007.5-7.5v-2.791a7.5 7.5 0 00-15 0v2.791a7.5 7.5 0 007.5 7.5z"/></g></svg><svg viewBox="0 0 506.451 506.451" id="009-gear" xmlns="http://www.w3.org/2000/svg"><path d="M421.297 193.417v50.71c0 6.02-4.88 10.89-10.89 10.89h-17.09c-2.06 0-3.86 1.41-4.31 3.41-4.54 20.07-12.46 38.86-23.12 55.75-1.09 1.73-.82 4 .64 5.45l12.1 12.11c4.25 4.25 4.25 11.15 0 15.4l-35.86 35.86a10.888 10.888 0 01-15.41 0l-12.1-12.1c-1.45-1.45-3.72-1.73-5.46-.63a177.81 177.81 0 01-55.74 23.11c-2 .46-3.41 2.26-3.41 4.31v17.09c0 6.01-4.88 10.89-10.89 10.89h-50.72c-6.01 0-10.89-4.88-10.89-10.89v-17.09c0-2.05-1.41-3.85-3.41-4.31a177.81 177.81 0 01-55.74-23.11c-1.74-1.1-4.01-.82-5.46.63l-12.1 12.1a10.888 10.888 0 01-15.41 0l-35.86-35.86c-4.25-4.25-4.25-11.15 0-15.4l12.1-12.11c1.46-1.45 1.73-3.72.64-5.45-10.66-16.89-18.58-35.68-23.12-55.75-.45-2-2.25-3.41-4.31-3.41h-17.09c-6.01 0-10.89-4.87-10.89-10.89v-50.71c0-6.02 4.88-10.9 10.89-10.9h17.09c2.06 0 3.86-1.4 4.31-3.41 4.54-20.07 12.46-38.85 23.12-55.74 1.09-1.74.82-4.01-.64-5.46l-12.1-12.1c-4.25-4.25-4.25-11.15 0-15.4l35.86-35.87c4.26-4.25 11.15-4.25 15.41 0l12.1 12.11c1.45 1.45 3.72 1.73 5.46.63a177.831 177.831 0 0155.74-23.12c2-.45 3.41-2.25 3.41-4.3v-17.09c0-6.02 4.88-10.89 10.89-10.89h50.72c6.01 0 10.89 4.87 10.89 10.89v17.09c0 2.05 1.41 3.85 3.41 4.3a177.831 177.831 0 0155.74 23.12c1.74 1.1 4.01.82 5.46-.63l12.1-12.11c4.26-4.25 11.15-4.25 15.41 0l35.86 35.87c4.25 4.25 4.25 11.15 0 15.4l-12.1 12.1a4.406 4.406 0 00-.64 5.46c10.66 16.89 18.58 35.67 23.12 55.74.45 2.01 2.25 3.41 4.31 3.41h17.09c6.01 0 10.89 4.88 10.89 10.9zm-103.05 25.35c0-57.26-46.59-103.85-103.85-103.85s-103.85 46.59-103.85 103.85c0 57.27 46.59 103.85 103.85 103.85s103.85-46.58 103.85-103.85z" fill="#fbe372"/><path d="M214.397 84.917c73.92 0 133.85 59.93 133.85 133.85 0 73.93-59.93 133.85-133.85 133.85s-133.85-59.92-133.85-133.85c0-73.92 59.93-133.85 133.85-133.85zm103.85 133.85c0-57.26-46.59-103.85-103.85-103.85s-103.85 46.59-103.85 103.85c0 57.27 46.59 103.85 103.85 103.85s103.85-46.58 103.85-103.85z" fill="#f8d448"/><circle cx="345.992" cy="341.093" fill="#f8f7f8" r="86.622"/><path d="M345.997 246.047c52.78 0 95.57 42.79 95.57 95.57 0 52.79-42.79 95.58-95.57 95.58-52.79 0-95.58-42.79-95.58-95.58 0-52.78 42.79-95.57 95.58-95.57zm65.57 95.57c0-36.16-29.42-65.57-65.57-65.57-36.16 0-65.58 29.41-65.58 65.57s29.42 65.58 65.58 65.58c36.15 0 65.57-29.42 65.57-65.58z" fill="#e4e1e5"/><path d="M76.597 213.602c0-70.748 36.968-132.869 92.627-168.104a177.986 177.986 0 00-50.227 21.78c-1.74 1.1-4.01.82-5.46-.63l-12.1-12.11c-4.26-4.25-11.15-4.25-15.41 0l-35.86 35.87c-4.25 4.25-4.25 11.15 0 15.4l12.1 12.1a4.406 4.406 0 01.64 5.46c-10.66 16.89-18.58 35.67-23.12 55.74-.45 2.01-2.25 3.41-4.31 3.41h-17.09c-6.01 0-10.89 4.88-10.89 10.9v50.71c0 6.02 4.88 10.89 10.89 10.89h17.09c2.06 0 3.86 1.41 4.31 3.41 4.54 20.07 12.46 38.86 23.12 55.75 1.09 1.73.82 4-.64 5.45l-12.1 12.11c-4.25 4.25-4.25 11.15 0 15.4l35.86 35.86a10.888 10.888 0 0015.41 0l12.1-12.1c1.45-1.45 3.72-1.73 5.46-.63a177.81 177.81 0 0055.74 23.11c2 .46 3.41 2.26 3.41 4.31v17.09c0 6.01 4.88 10.89 10.89 10.89h50.72c6.01 0 10.89-4.88 10.89-10.89v-3.899c-98.114-12.19-174.05-95.863-174.05-197.277z" fill="#f9de58"/><path d="M498.947 322.877v37.49c0 4.45-3.6 8.05-8.05 8.05h-12.63c-1.52 0-2.85 1.04-3.19 2.52-3.35 14.84-9.21 28.73-17.08 41.21-.82 1.29-.61 2.97.46 4.04l8.95 8.95a8.051 8.051 0 010 11.38l-26.51 26.52c-3.15 3.14-8.25 3.14-11.39 0l-8.95-8.95c-1.07-1.07-2.75-1.28-4.03-.47-12.49 7.88-26.38 13.74-41.21 17.09a3.265 3.265 0 00-2.52 3.19v12.63c0 4.45-3.61 8.05-8.06 8.05h-37.49c-4.45 0-8.05-3.6-8.05-8.05v-12.63c0-1.52-1.04-2.85-2.52-3.19a131.328 131.328 0 01-41.21-17.09c-1.29-.81-2.97-.6-4.04.47l-8.95 8.95a8.051 8.051 0 01-11.38 0l-26.52-26.52a8.051 8.051 0 010-11.38l8.95-8.95a3.268 3.268 0 00.47-4.04 131.328 131.328 0 01-17.09-41.21 3.265 3.265 0 00-3.19-2.52h-12.63c-4.45 0-8.05-3.6-8.05-8.05v-37.49c0-4.45 3.6-8.06 8.05-8.06h12.63c1.52 0 2.85-1.04 3.19-2.52 3.35-14.83 9.21-28.72 17.09-41.21.81-1.28.6-2.96-.47-4.03l-8.95-8.95c-3.14-3.14-3.14-8.24 0-11.39l26.52-26.51a8.051 8.051 0 0111.38 0l8.95 8.95c1.07 1.07 2.75 1.28 4.04.46 12.48-7.87 26.37-13.73 41.21-17.08a3.265 3.265 0 002.52-3.19v-12.63c0-4.45 3.6-8.05 8.05-8.05h37.49c4.45 0 8.06 3.6 8.06 8.05v12.63c0 1.52 1.04 2.85 2.52 3.19 14.83 3.35 28.72 9.21 41.21 17.08 1.28.82 2.96.61 4.03-.46l8.95-8.95c3.14-3.14 8.24-3.14 11.39 0l26.51 26.51c3.14 3.15 3.14 8.25 0 11.39l-8.95 8.95c-1.07 1.07-1.28 2.75-.46 4.03 7.87 12.49 13.73 26.38 17.08 41.21a3.265 3.265 0 003.19 2.52h12.63c4.45 0 8.05 3.61 8.05 8.06zm-57.38 18.74c0-52.78-42.79-95.57-95.57-95.57-52.79 0-95.58 42.79-95.58 95.57 0 52.79 42.79 95.58 95.58 95.58 52.78 0 95.57-42.79 95.57-95.58z" fill="#efedee"/><path d="M246.332 333.879c0-50.151 26.209-94.335 66.01-120.278a131.672 131.672 0 00-36.875 16.015c-1.29.82-2.97.61-4.04-.46l-8.95-8.95a8.051 8.051 0 00-11.38 0l-26.52 26.51c-3.14 3.15-3.14 8.25 0 11.39l8.95 8.95c1.07 1.07 1.28 2.75.47 4.03-7.88 12.49-13.74 26.38-17.09 41.21a3.265 3.265 0 01-3.19 2.52h-12.63c-4.45 0-8.05 3.61-8.05 8.06v37.49c0 4.45 3.6 8.05 8.05 8.05h12.63c1.52 0 2.85 1.04 3.19 2.52 3.35 14.84 9.21 28.73 17.09 41.21.81 1.29.6 2.97-.47 4.04l-8.95 8.95a8.051 8.051 0 000 11.38l26.52 26.52a8.051 8.051 0 0011.38 0l8.95-8.95a3.268 3.268 0 014.04-.47 131.328 131.328 0 0041.21 17.09c1.48.34 2.52 1.67 2.52 3.19v12.63c0 4.45 3.6 8.05 8.05 8.05h37.49c4.45 0 8.06-3.6 8.06-8.05v-9.607c-71.562-10.358-126.465-70.451-126.465-143.04z" fill="#e4e1e5"/><g><path d="M192.597 418.167h-3.558a3.396 3.396 0 01-3.392-3.392v-17.088c0-5.61-3.805-10.389-9.254-11.622-18.938-4.283-36.902-11.733-53.395-22.143-4.727-2.982-10.797-2.297-14.767 1.671l-12.102 12.102a3.377 3.377 0 01-2.399.994 3.376 3.376 0 01-2.397-.993l-35.862-35.862a3.397 3.397 0 010-4.797l12.101-12.101c3.968-3.965 4.656-10.037 1.673-14.768-10.408-16.491-17.858-34.456-22.143-53.396-1.233-5.448-6.013-9.253-11.622-9.253H18.393A3.396 3.396 0 0115 244.127v-50.716a3.396 3.396 0 013.393-3.392H35.48c5.609 0 10.389-3.805 11.622-9.254 4.284-18.938 11.733-36.903 22.144-53.397 2.982-4.727 2.294-10.798-1.672-14.764l-12.103-12.102a3.398 3.398 0 010-4.798l35.862-35.862a3.376 3.376 0 012.397-.993c.525 0 1.534.129 2.398.993l12.104 12.105c3.969 3.965 10.04 4.65 14.764 1.669 4.067-2.567 8.3-4.994 12.581-7.214a7.501 7.501 0 00-6.906-13.316 187.373 187.373 0 00-11.56 6.526l-10.377-10.377c-3.474-3.474-8.092-5.386-13.005-5.386s-9.531 1.913-13.005 5.387L44.864 85.1c-7.169 7.171-7.169 18.838 0 26.01l10.377 10.377c-10.197 16.641-17.656 34.628-22.201 53.534H18.393C8.251 175.02 0 183.271 0 193.412v50.716c0 10.142 8.251 18.392 18.393 18.392H33.04c4.545 18.908 12.005 36.894 22.201 53.533l-10.377 10.378c-7.17 7.17-7.17 18.838 0 26.009l35.862 35.862c3.474 3.474 8.092 5.387 13.005 5.387s9.531-1.913 13.006-5.387l10.376-10.376c16.643 10.198 34.628 17.656 53.534 22.201v14.648c0 10.142 8.25 18.392 18.392 18.392h3.558a7.5 7.5 0 000-15zM163.915 54.811a170.165 170.165 0 0112.479-3.336c5.449-1.233 9.254-6.012 9.254-11.622V22.765a3.396 3.396 0 013.392-3.392h50.717a3.396 3.396 0 013.392 3.392v17.088c0 5.611 3.806 10.39 9.253 11.622 18.938 4.284 36.902 11.734 53.397 22.144 4.724 2.981 10.796 2.295 14.765-1.671l12.102-12.103a3.396 3.396 0 014.797 0l35.861 35.862c.865.865.994 1.874.994 2.398 0 .525-.129 1.534-.994 2.399l-12.103 12.104c-3.966 3.966-4.652 10.037-1.671 14.764a170.87 170.87 0 0118.356 39.451 7.503 7.503 0 007.146 5.231 7.5 7.5 0 007.15-9.772 185.88 185.88 0 00-18.649-40.794l10.377-10.376c7.171-7.171 7.171-18.839 0-26.01L348.068 49.24c-7.171-7.17-18.839-7.168-26.01 0l-10.376 10.376c-16.644-10.198-34.628-17.656-53.534-22.201v-14.65c0-10.141-8.25-18.392-18.392-18.392h-50.717c-10.142 0-18.392 8.25-18.392 18.392v14.649c-3.688.89-7.426 1.917-11.145 3.062a7.5 7.5 0 104.413 14.335z"/><path d="M337.389 165.362a7.5 7.5 0 003.326-10.071 141.813 141.813 0 00-51.157-56.248c-22.483-14.146-48.474-21.623-75.16-21.623-77.94 0-141.35 63.409-141.35 141.35 0 57.302 34.192 108.549 87.108 130.558a7.467 7.467 0 002.877.577 7.504 7.504 0 006.928-4.622 7.499 7.499 0 00-4.045-9.805c-47.303-19.674-77.868-65.485-77.868-116.708 0-69.67 56.68-126.35 126.35-126.35 48.032 0 91.3 26.675 112.919 69.615a7.5 7.5 0 0010.072 3.327z"/><path d="M214.397 122.42c34.078 0 65.975 18.35 83.243 47.888a7.5 7.5 0 0010.26 2.689 7.5 7.5 0 002.689-10.26c-19.947-34.121-56.806-55.317-96.192-55.317-61.398 0-111.351 49.952-111.351 111.35 0 40.953 22.453 78.52 58.598 98.041a7.495 7.495 0 0010.163-3.036 7.5 7.5 0 00-3.034-10.163c-31.289-16.898-50.727-49.408-50.727-84.842.001-53.127 43.224-96.35 96.351-96.35z"/><path d="M490.898 307.321h-9.296a138.759 138.759 0 00-15.479-37.323l6.588-6.588c6.063-6.064 6.062-15.93 0-21.994l-26.513-26.513c-6.062-6.062-15.929-6.064-21.995 0l-6.587 6.587a138.655 138.655 0 00-37.323-15.479v-9.297c0-8.576-6.977-15.552-15.552-15.552h-37.494c-8.576 0-15.553 6.977-15.553 15.552v9.297a138.7 138.7 0 00-37.323 15.479l-6.587-6.587c-6.064-6.064-15.931-6.063-21.995 0l-26.513 26.513c-6.062 6.063-6.063 15.93.001 21.995l6.587 6.587a138.708 138.708 0 00-15.479 37.323h-9.296c-8.576 0-15.553 6.977-15.553 15.552v37.494c0 8.576 6.977 15.552 15.553 15.552h9.296a138.745 138.745 0 0015.479 37.323l-6.588 6.587c-2.937 2.938-4.555 6.843-4.555 10.997s1.618 8.06 4.555 10.997l26.513 26.513c6.065 6.065 15.932 6.063 21.995 0l6.587-6.588a138.655 138.655 0 0037.323 15.479v9.297c0 8.576 6.977 15.552 15.553 15.552h37.494c8.575 0 15.552-6.977 15.552-15.552v-9.297a138.687 138.687 0 0037.323-15.479l6.588 6.588c6.064 6.062 15.93 6.062 21.994-.001l26.513-26.513c6.063-6.064 6.063-15.93 0-21.994l-6.588-6.588a138.662 138.662 0 0015.479-37.323h9.297c8.575 0 15.552-6.977 15.552-15.552v-37.494c0-8.573-6.976-15.55-15.553-15.55zm.553 53.046a.552.552 0 01-.552.552h-12.634c-5.066 0-9.384 3.439-10.499 8.365-3.117 13.782-8.54 26.857-16.117 38.863-2.696 4.273-2.076 9.76 1.507 13.342l8.947 8.947a.552.552 0 010 .781L435.59 457.73a.551.551 0 01-.78 0l-8.946-8.947c-3.583-3.583-9.07-4.204-13.343-1.507a123.837 123.837 0 01-38.86 16.117c-4.928 1.113-8.368 5.43-8.368 10.499v12.633a.552.552 0 01-.552.552h-37.494a.553.553 0 01-.553-.552v-12.633c0-5.068-3.44-9.385-8.365-10.499a123.818 123.818 0 01-38.864-16.118 10.719 10.719 0 00-5.731-1.667 10.744 10.744 0 00-7.609 3.175l-8.947 8.948a.551.551 0 01-.78 0l-26.513-26.513a.553.553 0 01-.001-.781l8.95-8.949c3.582-3.583 4.2-9.07 1.505-13.341-7.577-12.005-13-25.081-16.117-38.864-1.115-4.925-5.433-8.364-10.499-8.364H201.09a.553.553 0 01-.553-.552v-37.494c0-.305.248-.552.553-.552h12.633c5.066 0 9.384-3.439 10.499-8.365 3.117-13.782 8.54-26.857 16.117-38.863 2.695-4.271 2.077-9.757-1.507-13.342l-8.947-8.946a.553.553 0 010-.782l26.513-26.513a.553.553 0 01.78 0l8.949 8.949c3.582 3.581 9.068 4.201 13.341 1.504a123.807 123.807 0 0138.861-16.116c4.926-1.114 8.366-5.431 8.366-10.5v-12.633c0-.305.248-.552.553-.552h37.494c.305 0 .552.248.552.552v12.633c0 5.069 3.44 9.387 8.366 10.499 13.782 3.118 26.857 8.541 38.864 16.118 4.273 2.696 9.759 2.075 13.34-1.507l8.946-8.947a.553.553 0 01.781-.001l26.513 26.513a.552.552 0 010 .781l-8.945 8.946c-3.585 3.583-4.205 9.07-1.509 13.343 7.577 12.005 13 25.081 16.117 38.864 1.115 4.925 5.433 8.364 10.499 8.364h12.633c.305 0 .553.248.553.552v37.495z"/><path d="M345.994 238.545c-56.836 0-103.076 46.24-103.076 103.076s46.24 103.076 103.076 103.076c22.16 0 43.28-6.932 61.079-20.045a7.5 7.5 0 00-8.898-12.076c-15.201 11.201-33.245 17.122-52.181 17.122-48.565 0-88.076-39.511-88.076-88.076s39.511-88.076 88.076-88.076c48.564 0 88.075 39.511 88.075 88.076 0 17.874-5.327 35.084-15.405 49.77a7.5 7.5 0 1012.367 8.488c11.801-17.195 18.038-37.34 18.038-58.257 0-56.839-46.239-103.078-103.075-103.078z"/><path d="M345.994 399.696c-31.854 0-57.903-25.917-58.067-57.773a7.5 7.5 0 00-7.499-7.461h-.04a7.5 7.5 0 00-7.461 7.539c.207 40.085 32.984 72.696 73.067 72.696 40.294 0 73.075-32.782 73.075-73.076s-32.781-73.076-73.075-73.076c-27.061 0-51.794 14.889-64.546 38.857a7.5 7.5 0 0013.243 7.046c10.142-19.062 29.801-30.903 51.304-30.903 32.022 0 58.075 26.053 58.075 58.076s-26.053 58.075-58.076 58.075z"/></g></svg><svg viewBox="0 0 512.224 512.224" id="010-timing_belt" xmlns="http://www.w3.org/2000/svg"><path d="M301.747 323.596c1.11 4.14-1.34 8.4-5.47 9.51l-11.77 3.17c-1.42.39-2.39 1.69-2.33 3.15.58 14.21-1.21 28.62-5.53 42.63-.43 1.39.18 2.9 1.45 3.63l10.55 6.07c3.71 2.14 4.99 6.88 2.85 10.59l-18.01 31.31c-2.14 3.72-6.88 5-10.59 2.86l-10.55-6.07c-1.27-.73-2.88-.5-3.87.57a126.835 126.835 0 01-34.07 26.21c-1.3.68-1.93 2.18-1.55 3.59l3.17 11.78c1.12 4.13-1.33 8.39-5.47 9.51l-34.88 9.4c-4.13 1.11-8.39-1.34-9.51-5.47l-3.17-11.77a3.129 3.129 0 00-3.15-2.33c-14.21.58-28.62-1.2-42.62-5.53-1.4-.43-2.91.18-3.64 1.45l-6.06 10.55a7.764 7.764 0 01-10.6 2.85l-31.31-18.01c-3.71-2.14-4.99-6.88-2.85-10.59l6.06-10.55c.73-1.27.51-2.88-.57-3.87a126.44 126.44 0 01-26.2-34.07 3.157 3.157 0 00-3.6-1.55l-11.77 3.17c-4.14 1.12-8.39-1.33-9.51-5.47l-9.4-34.87a7.747 7.747 0 015.47-9.51l11.77-3.18c1.41-.38 2.39-1.68 2.33-3.14-.59-14.21 1.2-28.63 5.52-42.63.44-1.4-.18-2.9-1.44-3.63l-10.55-6.07c-3.72-2.14-5-6.88-2.86-10.6l18.01-31.31a7.764 7.764 0 0110.6-2.85l10.55 6.07c1.26.73 2.88.5 3.87-.58a126.642 126.642 0 0134.07-26.2 3.139 3.139 0 001.54-3.6l-3.17-11.77a7.768 7.768 0 015.47-9.51l34.88-9.4c4.14-1.12 8.39 1.33 9.51 5.47l3.17 11.77c.38 1.41 1.69 2.39 3.15 2.33 14.21-.58 28.62 1.2 42.62 5.53 1.4.43 2.91-.19 3.64-1.45l6.07-10.55c2.13-3.72 6.88-4.99 10.59-2.86l31.31 18.02c3.72 2.13 4.99 6.87 2.86 10.59l-6.07 10.55c-.73 1.27-.5 2.88.57 3.87a126.68 126.68 0 0126.21 34.07 3.138 3.138 0 003.59 1.55l11.77-3.18c4.14-1.11 8.4 1.34 9.51 5.47zm-88.6 20.92c0-32.24-26.14-58.38-58.39-58.38-32.24 0-58.39 26.14-58.39 58.38 0 32.25 26.15 58.39 58.39 58.39 32.25 0 58.39-26.14 58.39-58.39z" fill="#fbe372"/><path d="M154.757 252.436c50.86 0 92.08 41.23 92.08 92.08 0 50.86-41.22 92.08-92.08 92.08-50.85 0-92.08-41.22-92.08-92.08 0-50.85 41.23-92.08 92.08-92.08zm58.39 92.08c0-32.24-26.14-58.38-58.39-58.38-32.24 0-58.39 26.14-58.39 58.38 0 32.25 26.15 58.39 58.39 58.39 32.25 0 58.39-26.14 58.39-58.39z" fill="#f8d448"/><circle cx="448.979" cy="436.6" fill="#b3adb5" r="55.744"/><path d="M416.162 435.665c0-26.053 17.864-47.942 42.017-54.054a55.9 55.9 0 00-9.2-.756c-30.787 0-55.744 24.957-55.744 55.744s24.958 55.744 55.744 55.744c4.734 0 9.341-.593 13.729-1.703-26.401-4.391-46.546-27.327-46.546-54.975z" fill="#a59ca6"/><circle cx="422.271" cy="101.629" fill="#b3adb5" r="81.749"/><path d="M451.315 177.787c-45.148 0-81.749-36.6-81.749-81.749 0-34.648 21.583-64.254 52.014-76.155-44.822.381-81.059 36.834-81.059 81.746 0 45.149 36.6 81.749 81.749 81.749 10.501 0 20.528-1.979 29.751-5.586-.236.001-.469-.005-.706-.005z" fill="#a59ca6"/><g fill="#cac5cb"><circle cx="422.271" cy="101.629" r="45.117"/><circle cx="448.98" cy="436.6" r="25.744"/></g><g><path d="M58.421 335.596c0-59.215 33.997-110.49 83.533-135.377a7.739 7.739 0 00-8.117-2.683l-34.88 9.4a7.768 7.768 0 00-5.47 9.51l3.17 11.77c.39 1.41-.25 2.91-1.54 3.6a126.642 126.642 0 00-34.07 26.2 3.132 3.132 0 01-3.87.58l-10.55-6.07a7.764 7.764 0 00-10.6 2.85l-18.01 31.31a7.758 7.758 0 002.86 10.6l10.55 6.07c1.26.73 1.88 2.23 1.44 3.63-4.32 14-6.11 28.42-5.52 42.63.06 1.46-.92 2.76-2.33 3.14l-11.77 3.18a7.747 7.747 0 00-5.47 9.51l9.4 34.87c1.12 4.14 5.37 6.59 9.51 5.47l11.77-3.17c1.41-.38 2.91.26 3.6 1.55a126.44 126.44 0 0026.2 34.07c1.08.99 1.3 2.6.57 3.87l-6.06 10.55c-2.14 3.71-.86 8.45 2.85 10.59l31.31 18.01c3.72 2.14 8.46.86 10.6-2.85l6.06-10.55a3.143 3.143 0 013.64-1.45 126.063 126.063 0 0025.816 5.109c-50.132-24.677-84.622-76.267-84.622-135.919z" fill="#f9de58"/></g><g><path d="M154.759 278.632c-36.33 0-65.887 29.557-65.887 65.887s29.557 65.887 65.887 65.887c36.331 0 65.888-29.557 65.888-65.887s-29.557-65.887-65.888-65.887zm0 116.774c-28.059 0-50.887-22.828-50.887-50.887s22.828-50.887 50.887-50.887c28.06 0 50.888 22.828 50.888 50.887s-22.829 50.887-50.888 50.887z"/><path d="M510.34 421.292V116.1a89.449 89.449 0 001.179-14.472c0-20.318-7.027-40.212-19.786-56.017a7.5 7.5 0 00-11.672 9.422c10.767 13.337 16.458 29.449 16.458 46.595 0 40.941-33.308 74.249-74.249 74.249s-74.249-33.308-74.249-74.249 33.308-74.249 74.249-74.249c12.37 0 24.613 3.101 35.406 8.968a7.5 7.5 0 007.164-13.178c-12.984-7.059-27.705-10.79-42.57-10.79-21.31 0-40.896 7.511-56.259 20.019-.255.17-.506.35-.745.555L160.089 209.617a135.596 135.596 0 00-7.219-.105l-2.28-8.458a15.158 15.158 0 00-7.123-9.255 15.158 15.158 0 00-11.58-1.506l-34.878 9.403a15.155 15.155 0 00-9.254 7.124 15.154 15.154 0 00-1.506 11.58l2.28 8.46a133.944 133.944 0 00-30.586 23.522l-7.578-4.359a15.159 15.159 0 00-11.58-1.506 15.157 15.157 0 00-9.254 7.123l-18.015 31.313c-4.193 7.292-1.673 16.638 5.618 20.833l7.579 4.36a133.854 133.854 0 00-4.96 38.265l-8.46 2.281a15.154 15.154 0 00-9.254 7.123 15.156 15.156 0 00-1.506 11.581l9.403 34.877a15.16 15.16 0 007.123 9.254 15.163 15.163 0 0011.58 1.506l8.46-2.28a133.874 133.874 0 0023.522 30.585l-4.361 7.58c-4.193 7.292-1.673 16.638 5.618 20.833l31.313 18.014c7.292 4.194 16.639 1.675 20.833-5.617l4.36-7.579a134.124 134.124 0 0038.265 4.96l2.28 8.459c1.832 6.798 8.008 11.288 14.735 11.288 1.311 0 2.644-.17 3.968-.528l34.878-9.403c3.936-1.061 7.222-3.591 9.254-7.124s2.567-7.646 1.506-11.58l-2.28-8.46a136.12 136.12 0 005.537-3.306l204.327 38.311a63.034 63.034 0 0018.126 2.66c34.873 0 63.244-28.371 63.244-63.244 0-5.28-.66-10.406-1.884-15.31zM236.179 256.319a119.03 119.03 0 0124.653 32.054c2.331 4.419 7.337 6.597 12.181 5.291l11.771-3.173c.035-.009.102-.028.196.026.092.053.11.12.12.156l9.403 34.877a.259.259 0 01-.182.316l-11.771 3.173c-4.838 1.304-8.074 5.701-7.871 10.694a119.002 119.002 0 01-5.199 40.104c-1.475 4.771.529 9.849 4.874 12.35l10.551 6.069c.032.019.092.053.119.156.028.103-.007.164-.025.196l-18.013 31.311a.257.257 0 01-.352.095l-10.551-6.07c-4.342-2.496-9.739-1.679-13.125 1.994a118.773 118.773 0 01-20.097 17.4l-32.038-6c37.134-14.478 63.516-50.624 63.516-92.819a99.481 99.481 0 00-5.082-31.473 7.5 7.5 0 10-14.232 4.737 84.49 84.49 0 014.314 26.735c0 46.638-37.943 84.581-84.581 84.581s-84.58-37.943-84.58-84.581 37.942-84.581 84.58-84.581c25.829 0 49.913 11.584 66.075 31.784a7.501 7.501 0 0011.712-9.372c-19.024-23.775-47.377-37.412-77.787-37.412a99.93 99.93 0 00-14.953 1.123l24.684-21.168c8.674.696 17.24 2.327 25.589 4.906 4.772 1.475 9.851-.531 12.348-4.874l6.069-10.55a.258.258 0 01.352-.095l31.312 18.014a.229.229 0 01.119.155c.028.103-.007.164-.025.196l-6.067 10.547c-2.5 4.345-1.681 9.743 1.993 13.128zm50.288 87.2l-.012.003zm-80.852 119.253l3.173 11.771a.259.259 0 01-.182.316l-34.878 9.403a.258.258 0 01-.316-.181l-3.173-11.771c-1.266-4.694-5.441-7.879-10.246-7.879-.149 0-.299.003-.448.009-13.643.557-27.126-1.191-40.104-5.199-4.772-1.474-9.853.529-12.35 4.874l-6.069 10.55a.257.257 0 01-.352.095l-31.312-18.013a.259.259 0 01-.096-.352l6.068-10.548c2.5-4.343 1.682-9.741-1.992-13.127a119.013 119.013 0 01-24.655-32.058c-2.333-4.416-7.343-6.591-12.179-5.287l-11.771 3.174a.23.23 0 01-.195-.025c-.092-.053-.11-.121-.12-.156l-9.403-34.879a.234.234 0 01.025-.195c.053-.093.12-.111.156-.121L26.967 360c4.838-1.304 8.074-5.701 7.871-10.695a118.99 118.99 0 015.199-40.104c1.474-4.771-.53-9.849-4.874-12.349l-10.55-6.069a.259.259 0 01-.096-.352l18.014-31.311a.235.235 0 01.156-.121.229.229 0 01.195.025l10.549 6.068c4.346 2.501 9.744 1.681 13.126-1.993a119.01 119.01 0 0132.056-24.654c4.419-2.333 6.594-7.341 5.289-12.179l-3.173-11.772c-.01-.036-.027-.102.025-.194s.12-.111.156-.121l34.878-9.403a.227.227 0 01.195.025c.092.053.109.119.12.157l3.174 11.771c.768 2.847 2.602 5.136 5.001 6.5l-44.452 38.274c-26.887 17.85-44.65 48.396-44.65 83.017 0 51.736 39.66 94.377 90.173 99.133l61.072 11.451a10.634 10.634 0 00-.806 7.668zm243.365 22.072c-26.602 0-48.244-21.642-48.244-48.244 0-13.536 5.467-26.078 15.393-35.315a7.5 7.5 0 00-10.219-10.981c-12.821 11.932-20.174 28.806-20.174 46.296 0 15.121 5.34 29.014 14.225 39.907L242.624 447.04a134.131 134.131 0 008.952-8.384l7.58 4.361c7.292 4.194 16.638 1.675 20.833-5.618l18.013-31.311a15.164 15.164 0 001.507-11.58 15.157 15.157 0 00-7.123-9.254l-7.579-4.36a133.908 133.908 0 004.96-38.265l8.46-2.281c3.936-1.061 7.222-3.59 9.254-7.123s2.567-7.646 1.506-11.58l-9.403-34.877a15.156 15.156 0 00-7.123-9.254 15.154 15.154 0 00-11.58-1.506l-8.46 2.28a133.926 133.926 0 00-23.522-30.585l4.359-7.579a15.163 15.163 0 001.507-11.58 15.157 15.157 0 00-7.123-9.254l-31.312-18.013c-7.291-4.194-16.639-1.676-20.834 5.617l-4.36 7.579a133.871 133.871 0 00-11.406-2.647l156.6-134.297a89.043 89.043 0 00-3.309 24.099c0 49.212 40.037 89.249 89.249 89.249 30.302 0 57.12-15.183 73.26-38.337l1.651 243.182c-11.61-13.669-28.905-22.366-48.202-22.366-3.454 0-6.975.295-10.464.877a7.5 7.5 0 00-6.164 8.632 7.498 7.498 0 008.631 6.164 48.817 48.817 0 017.997-.673c26.602 0 48.244 21.642 48.244 48.244s-21.642 48.244-48.243 48.244z"/><path d="M422.271 49.012c-29.014 0-52.617 23.604-52.617 52.617s23.604 52.617 52.617 52.617 52.617-23.604 52.617-52.617-23.604-52.617-52.617-52.617zm0 90.233c-20.742 0-37.617-16.875-37.617-37.617s16.875-37.617 37.617-37.617 37.617 16.875 37.617 37.617-16.875 37.617-37.617 37.617zM448.98 403.355c-18.331 0-33.244 14.913-33.244 33.244s14.913 33.244 33.244 33.244 33.244-14.913 33.244-33.244-14.913-33.244-33.244-33.244zm0 51.489c-10.06 0-18.244-8.184-18.244-18.244s8.185-18.244 18.244-18.244 18.244 8.184 18.244 18.244-8.185 18.244-18.244 18.244z"/></g></svg></svg>